solid OpenSCAD_Model
  facet normal -1 0 0
    outer loop
      vertex 0 12 0
      vertex 0 2 2
      vertex 0 12 2
    endloop
  endfacet
  facet normal -1 0 0
    outer loop
      vertex 0 0 0
      vertex 0 2 2
      vertex 0 12 0
    endloop
  endfacet
  facet normal -1 0 0
    outer loop
      vertex 0 0 12
      vertex 0 2 2
      vertex 0 0 0
    endloop
  endfacet
  facet normal -1 0 0
    outer loop
      vertex 0 2 2
      vertex 0 0 12
      vertex 0 2 12
    endloop
  endfacet
  facet normal 0 0 1
    outer loop
      vertex 12 12 2
      vertex 7 10 2
      vertex 12 2 2
    endloop
  endfacet
  facet normal 0 0 1
    outer loop
      vertex 12 12 2
      vertex 5 10 2
      vertex 7 10 2
    endloop
  endfacet
  facet normal -0 0 1
    outer loop
      vertex 0 12 2
      vertex 5 10 2
      vertex 12 12 2
    endloop
  endfacet
  facet normal 0 0 1
    outer loop
      vertex 0 2 2
      vertex 5 10 2
      vertex 0 12 2
    endloop
  endfacet
  facet normal 0 0 1
    outer loop
      vertex 5 10 2
      vertex 0 2 2
      vertex 5 2 2
    endloop
  endfacet
  facet normal 0 0 1
    outer loop
      vertex 12 2 2
      vertex 7 10 2
      vertex 7 2 2
    endloop
  endfacet
  facet normal 1 0 0
    outer loop
      vertex 12 2 12
      vertex 12 0 12
      vertex 12 2 2
    endloop
  endfacet
  facet normal 1 -0 0
    outer loop
      vertex 12 2 2
      vertex 12 12 0
      vertex 12 12 2
    endloop
  endfacet
  facet normal 1 0 0
    outer loop
      vertex 12 2 2
      vertex 12 0 0
      vertex 12 12 0
    endloop
  endfacet
  facet normal 1 0 0
    outer loop
      vertex 12 0 0
      vertex 12 2 2
      vertex 12 0 12
    endloop
  endfacet
  facet normal 0 1 -0
    outer loop
      vertex 12 12 0
      vertex 0 12 2
      vertex 12 12 2
    endloop
  endfacet
  facet normal 0 1 0
    outer loop
      vertex 0 12 2
      vertex 12 12 0
      vertex 0 12 0
    endloop
  endfacet
  facet normal 0 0 -1
    outer loop
      vertex 0 0 0
      vertex 12 12 0
      vertex 12 0 0
    endloop
  endfacet
  facet normal -0 0 -1
    outer loop
      vertex 12 12 0
      vertex 0 0 0
      vertex 0 12 0
    endloop
  endfacet
  facet normal 0 -1 0
    outer loop
      vertex 0 0 0
      vertex 12 0 12
      vertex 0 0 12
    endloop
  endfacet
  facet normal 0 -1 -0
    outer loop
      vertex 12 0 12
      vertex 0 0 0
      vertex 12 0 0
    endloop
  endfacet
  facet normal -0 0 1
    outer loop
      vertex 0 2 12
      vertex 12 0 12
      vertex 12 2 12
    endloop
  endfacet
  facet normal 0 0 1
    outer loop
      vertex 12 0 12
      vertex 0 2 12
      vertex 0 0 12
    endloop
  endfacet
  facet normal 0 1 0
    outer loop
      vertex 12 2 12
      vertex 7 2 10
      vertex 0 2 12
    endloop
  endfacet
  facet normal 0 1 -0
    outer loop
      vertex 12 2 2
      vertex 7 2 10
      vertex 12 2 12
    endloop
  endfacet
  facet normal 0 1 0
    outer loop
      vertex 7 2 10
      vertex 12 2 2
      vertex 7 2 2
    endloop
  endfacet
  facet normal 0 1 -0
    outer loop
      vertex 5 2 10
      vertex 0 2 12
      vertex 7 2 10
    endloop
  endfacet
  facet normal 0 1 0
    outer loop
      vertex 0 2 2
      vertex 5 2 10
      vertex 5 2 2
    endloop
  endfacet
  facet normal 0 1 0
    outer loop
      vertex 5 2 10
      vertex 0 2 2
      vertex 0 2 12
    endloop
  endfacet
  facet normal 1 0 0
    outer loop
      vertex 7 2 10
      vertex 7 2 2
      vertex 7 10 2
    endloop
  endfacet
  facet normal 0 0.707107 0.707107
    outer loop
      vertex 7 10 2
      vertex 5 2 10
      vertex 7 2 10
    endloop
  endfacet
  facet normal 0 0.707107 0.707107
    outer loop
      vertex 5 2 10
      vertex 7 10 2
      vertex 5 10 2
    endloop
  endfacet
  facet normal -1 0 0
    outer loop
      vertex 5 10 2
      vertex 5 2 2
      vertex 5 2 10
    endloop
  endfacet
endsolid OpenSCAD_Model
