solid OpenSCAD_Model
  facet normal -1 0 0
    outer loop
      vertex -20 -9.5 -4.75
      vertex -20 -3.5 13.25
      vertex -20 -3.5 -4.75
    endloop
  endfacet
  facet normal -1 -0 0
    outer loop
      vertex -20 -3.5 13.25
      vertex -20 -9.5 -4.75
      vertex -20 -9.5 13.25
    endloop
  endfacet
  facet normal 0 -1 0
    outer loop
      vertex -20 -9.5 -4.75
      vertex 20 -9.5 13.25
      vertex -20 -9.5 13.25
    endloop
  endfacet
  facet normal 0 -1 -0
    outer loop
      vertex 20 -9.5 13.25
      vertex -20 -9.5 -4.75
      vertex 20 -9.5 -4.75
    endloop
  endfacet
  facet normal 1 0 0
    outer loop
      vertex 20 -3.5 13.25
      vertex 20 -5.5 11.25
      vertex 20 -3.5 -4.75
    endloop
  endfacet
  facet normal 1 0 0
    outer loop
      vertex 20 -3.5 13.25
      vertex 20 -7.5 11.25
      vertex 20 -5.5 11.25
    endloop
  endfacet
  facet normal 1 0 0
    outer loop
      vertex 20 -7.5 11.25
      vertex 20 -9.5 13.25
      vertex 20 -7.5 -2.75
    endloop
  endfacet
  facet normal 1 -0 0
    outer loop
      vertex 20 -9.5 13.25
      vertex 20 -7.5 11.25
      vertex 20 -3.5 13.25
    endloop
  endfacet
  facet normal 1 -0 0
    outer loop
      vertex 20 -5.5 -2.75
      vertex 20 -3.5 -4.75
      vertex 20 -5.5 11.25
    endloop
  endfacet
  facet normal 1 -0 0
    outer loop
      vertex 20 -7.5 -2.75
      vertex 20 -3.5 -4.75
      vertex 20 -5.5 -2.75
    endloop
  endfacet
  facet normal 1 0 0
    outer loop
      vertex 20 -7.5 -2.75
      vertex 20 -9.5 -4.75
      vertex 20 -3.5 -4.75
    endloop
  endfacet
  facet normal 1 0 0
    outer loop
      vertex 20 -9.5 -4.75
      vertex 20 -7.5 -2.75
      vertex 20 -9.5 13.25
    endloop
  endfacet
  facet normal -0 0 1
    outer loop
      vertex -20 -3.5 13.25
      vertex 20 -9.5 13.25
      vertex 20 -3.5 13.25
    endloop
  endfacet
  facet normal 0 0 1
    outer loop
      vertex 20 -9.5 13.25
      vertex -20 -3.5 13.25
      vertex -20 -9.5 13.25
    endloop
  endfacet
  facet normal 0 1 0
    outer loop
      vertex 20 -3.5 13.25
      vertex 12.5 -3.5 3.25
      vertex -20 -3.5 13.25
    endloop
  endfacet
  facet normal 0 1 -0
    outer loop
      vertex 20 -3.5 -4.75
      vertex 12.5 -3.5 3.25
      vertex 20 -3.5 13.25
    endloop
  endfacet
  facet normal 0 1 0
    outer loop
      vertex 12.5 -3.5 -3.25
      vertex 20 -3.5 -4.75
      vertex -12.5 -3.5 -3.25
    endloop
  endfacet
  facet normal 0 1 0
    outer loop
      vertex 12.5 -3.5 3.25
      vertex 20 -3.5 -4.75
      vertex 12.5 -3.5 -3.25
    endloop
  endfacet
  facet normal 0 1 -0
    outer loop
      vertex -12.5 -3.5 3.25
      vertex -20 -3.5 13.25
      vertex 12.5 -3.5 3.25
    endloop
  endfacet
  facet normal 0 1 0
    outer loop
      vertex -20 -3.5 -4.75
      vertex -12.5 -3.5 3.25
      vertex -12.5 -3.5 -3.25
    endloop
  endfacet
  facet normal 0 1 0
    outer loop
      vertex -12.5 -3.5 3.25
      vertex -20 -3.5 -4.75
      vertex -20 -3.5 13.25
    endloop
  endfacet
  facet normal 0 1 0
    outer loop
      vertex -20 -3.5 -4.75
      vertex -12.5 -3.5 -3.25
      vertex 20 -3.5 -4.75
    endloop
  endfacet
  facet normal 0 0 -1
    outer loop
      vertex -20 -9.5 -4.75
      vertex 20 -3.5 -4.75
      vertex 20 -9.5 -4.75
    endloop
  endfacet
  facet normal -0 0 -1
    outer loop
      vertex 20 -3.5 -4.75
      vertex -20 -9.5 -4.75
      vertex -20 -3.5 -4.75
    endloop
  endfacet
  facet normal 1 -0 0
    outer loop
      vertex -16.99 -7.5 11.25
      vertex -16.99 -5.5 -2.75
      vertex -16.99 -5.5 11.25
    endloop
  endfacet
  facet normal 1 0 0
    outer loop
      vertex -16.99 -5.5 -2.75
      vertex -16.99 -7.5 11.25
      vertex -16.99 -7.5 -2.75
    endloop
  endfacet
  facet normal 0 1 -0
    outer loop
      vertex 20 -7.5 -2.75
      vertex -16.99 -7.5 11.25
      vertex 20 -7.5 11.25
    endloop
  endfacet
  facet normal 0 1 0
    outer loop
      vertex -16.99 -7.5 11.25
      vertex 20 -7.5 -2.75
      vertex -16.99 -7.5 -2.75
    endloop
  endfacet
  facet normal 0 0 -1
    outer loop
      vertex -16.99 -7.5 11.25
      vertex 20 -5.5 11.25
      vertex 20 -7.5 11.25
    endloop
  endfacet
  facet normal -0 0 -1
    outer loop
      vertex 20 -5.5 11.25
      vertex -16.99 -7.5 11.25
      vertex -16.99 -5.5 11.25
    endloop
  endfacet
  facet normal 0 -1 0
    outer loop
      vertex -16.99 -5.5 -2.75
      vertex 20 -5.5 11.25
      vertex -16.99 -5.5 11.25
    endloop
  endfacet
  facet normal 0 -1 -0
    outer loop
      vertex 20 -5.5 11.25
      vertex -16.99 -5.5 -2.75
      vertex 20 -5.5 -2.75
    endloop
  endfacet
  facet normal -0 0 1
    outer loop
      vertex -16.99 -5.5 -2.75
      vertex 20 -7.5 -2.75
      vertex 20 -5.5 -2.75
    endloop
  endfacet
  facet normal 0 0 1
    outer loop
      vertex 20 -7.5 -2.75
      vertex -16.99 -5.5 -2.75
      vertex -16.99 -7.5 -2.75
    endloop
  endfacet
  facet normal -1 0 0
    outer loop
      vertex -12.5 -3.5 -3.25
      vertex -12.5 -1 3.25
      vertex -12.5 -1 -3.25
    endloop
  endfacet
  facet normal -1 -0 0
    outer loop
      vertex -12.5 -1 3.25
      vertex -12.5 -3.5 -3.25
      vertex -12.5 -3.5 3.25
    endloop
  endfacet
  facet normal -1 0 0
    outer loop
      vertex -12.5 -1 -3.25
      vertex -12.5 1 -4.75
      vertex -12.5 -1 -4.75
    endloop
  endfacet
  facet normal -1 0 0
    outer loop
      vertex -12.5 1 -4.75
      vertex -12.5 -1 -3.25
      vertex -12.5 1 4.75
    endloop
  endfacet
  facet normal -1 0 0
    outer loop
      vertex -12.5 -1 3.25
      vertex -12.5 1 4.75
      vertex -12.5 -1 -3.25
    endloop
  endfacet
  facet normal -1 -0 0
    outer loop
      vertex -12.5 1 4.75
      vertex -12.5 -1 3.25
      vertex -12.5 -1 4.75
    endloop
  endfacet
  facet normal 0 -1 0
    outer loop
      vertex -12.5 -1 -4.75
      vertex 12.5 -1 -3.25
      vertex -12.5 -1 -3.25
    endloop
  endfacet
  facet normal 0 -1 -0
    outer loop
      vertex 12.5 -1 -3.25
      vertex -12.5 -1 -4.75
      vertex 12.5 -1 -4.75
    endloop
  endfacet
  facet normal 0 -1 0
    outer loop
      vertex -12.5 -1 3.25
      vertex 12.5 -1 4.75
      vertex -12.5 -1 4.75
    endloop
  endfacet
  facet normal 0 -1 -0
    outer loop
      vertex 12.5 -1 4.75
      vertex -12.5 -1 3.25
      vertex 12.5 -1 3.25
    endloop
  endfacet
  facet normal 1 -0 0
    outer loop
      vertex 12.5 -3.5 3.25
      vertex 12.5 -1 -3.25
      vertex 12.5 -1 3.25
    endloop
  endfacet
  facet normal 1 0 0
    outer loop
      vertex 12.5 -1 -3.25
      vertex 12.5 -3.5 3.25
      vertex 12.5 -3.5 -3.25
    endloop
  endfacet
  facet normal 1 0 0
    outer loop
      vertex 12.5 -1 3.25
      vertex 12.5 1 4.75
      vertex 12.5 -1 4.75
    endloop
  endfacet
  facet normal 1 0 0
    outer loop
      vertex 12.5 1 4.75
      vertex 12.5 -1 3.25
      vertex 12.5 1 -4.75
    endloop
  endfacet
  facet normal 1 -0 0
    outer loop
      vertex 12.5 -1 -3.25
      vertex 12.5 1 -4.75
      vertex 12.5 -1 3.25
    endloop
  endfacet
  facet normal 1 0 0
    outer loop
      vertex 12.5 1 -4.75
      vertex 12.5 -1 -3.25
      vertex 12.5 -1 -4.75
    endloop
  endfacet
  facet normal -0 0 1
    outer loop
      vertex -12.5 1 4.75
      vertex 12.5 -1 4.75
      vertex 12.5 1 4.75
    endloop
  endfacet
  facet normal 0 0 1
    outer loop
      vertex 12.5 -1 4.75
      vertex -12.5 1 4.75
      vertex -12.5 -1 4.75
    endloop
  endfacet
  facet normal 0 1 -0
    outer loop
      vertex 12.5 1 -4.75
      vertex -12.5 1 4.75
      vertex 12.5 1 4.75
    endloop
  endfacet
  facet normal 0 1 0
    outer loop
      vertex -12.5 1 4.75
      vertex 12.5 1 -4.75
      vertex -12.5 1 -4.75
    endloop
  endfacet
  facet normal 0 0 -1
    outer loop
      vertex -12.5 -1 -4.75
      vertex 12.5 1 -4.75
      vertex 12.5 -1 -4.75
    endloop
  endfacet
  facet normal -0 0 -1
    outer loop
      vertex 12.5 1 -4.75
      vertex -12.5 -1 -4.75
      vertex -12.5 1 -4.75
    endloop
  endfacet
  facet normal -0 0 1
    outer loop
      vertex -12.5 -1 3.25
      vertex 12.5 -3.5 3.25
      vertex 12.5 -1 3.25
    endloop
  endfacet
  facet normal 0 0 1
    outer loop
      vertex 12.5 -3.5 3.25
      vertex -12.5 -1 3.25
      vertex -12.5 -3.5 3.25
    endloop
  endfacet
  facet normal 0 0 -1
    outer loop
      vertex -12.5 -3.5 -3.25
      vertex 12.5 -1 -3.25
      vertex 12.5 -3.5 -3.25
    endloop
  endfacet
  facet normal -0 0 -1
    outer loop
      vertex 12.5 -1 -3.25
      vertex -12.5 -3.5 -3.25
      vertex -12.5 -1 -3.25
    endloop
  endfacet
endsolid OpenSCAD_Model
