solid 
   facet normal 0.000000e+000 -1.000000e+000 0.000000e+000
      outer loop
         vertex 1.475000e+001 8.000000e+000 1.553109e+001
         vertex 1.475000e+001 8.000000e+000 0.000000e+000
         vertex 2.525000e+001 8.000000e+000 1.553109e+001
      endloop
   endfacet
   facet normal 0.000000e+000 -1.000000e+000 -0.000000e+000
      outer loop
         vertex 2.525000e+001 8.000000e+000 0.000000e+000
         vertex 2.525000e+001 8.000000e+000 1.553109e+001
         vertex 1.475000e+001 8.000000e+000 0.000000e+000
      endloop
   endfacet
   facet normal 0.000000e+000 -1.000000e+000 0.000000e+000
      outer loop
         vertex 1.475000e+001 8.000000e+000 1.553109e+001
         vertex 2.525000e+001 8.000000e+000 1.553109e+001
         vertex 2.000000e+001 8.000000e+000 1.856218e+001
      endloop
   endfacet
   facet normal -1.000000e+000 0.000000e+000 0.000000e+000
      outer loop
         vertex 2.325000e+001 0.000000e+000 0.000000e+000
         vertex 2.325000e+001 0.000000e+000 1.250000e+001
         vertex 2.325000e+001 3.000000e+000 1.250000e+001
      endloop
   endfacet
   facet normal -1.000000e+000 0.000000e+000 -0.000000e+000
      outer loop
         vertex 2.325000e+001 0.000000e+000 0.000000e+000
         vertex 2.325000e+001 3.000000e+000 1.250000e+001
         vertex 2.325000e+001 3.000000e+000 0.000000e+000
      endloop
   endfacet
   facet normal 9.986296e-001 0.000000e+000 -5.233400e-002
      outer loop
         vertex 1.676780e+001 0.000000e+000 1.283972e+001
         vertex 1.675000e+001 0.000000e+000 1.250000e+001
         vertex 1.675000e+001 3.000000e+000 1.250000e+001
      endloop
   endfacet
   facet normal 9.659251e-001 0.000000e+000 -2.588217e-001
      outer loop
         vertex 1.690907e+001 3.000000e+000 1.350430e+001
         vertex 1.690907e+001 0.000000e+000 1.350430e+001
         vertex 1.682102e+001 0.000000e+000 1.317571e+001
      endloop
   endfacet
   facet normal 8.910071e-001 0.000000e+000 -4.539894e-001
      outer loop
         vertex 1.718542e+001 3.000000e+000 1.412500e+001
         vertex 1.718542e+001 0.000000e+000 1.412500e+001
         vertex 1.703098e+001 0.000000e+000 1.382189e+001
      endloop
   endfacet
   facet normal 7.771452e-001 0.000000e+000 -6.293213e-001
      outer loop
         vertex 1.758478e+001 3.000000e+000 1.467467e+001
         vertex 1.758478e+001 0.000000e+000 1.467467e+001
         vertex 1.737070e+001 0.000000e+000 1.441030e+001
      endloop
   endfacet
   facet normal 6.293185e-001 0.000000e+000 -7.771475e-001
      outer loop
         vertex 1.808970e+001 3.000000e+000 1.512930e+001
         vertex 1.808970e+001 0.000000e+000 1.512930e+001
         vertex 1.782533e+001 0.000000e+000 1.491522e+001
      endloop
   endfacet
   facet normal 4.539894e-001 0.000000e+000 -8.910071e-001
      outer loop
         vertex 1.867811e+001 3.000000e+000 1.546902e+001
         vertex 1.867811e+001 0.000000e+000 1.546902e+001
         vertex 1.837500e+001 0.000000e+000 1.531458e+001
      endloop
   endfacet
   facet normal 2.588191e-001 0.000000e+000 -9.659258e-001
      outer loop
         vertex 1.932429e+001 3.000000e+000 1.567898e+001
         vertex 1.932429e+001 0.000000e+000 1.567898e+001
         vertex 1.899570e+001 0.000000e+000 1.559093e+001
      endloop
   endfacet
   facet normal 5.233680e-002 0.000000e+000 -9.986295e-001
      outer loop
         vertex 2.000000e+001 3.000000e+000 1.575000e+001
         vertex 2.000000e+001 0.000000e+000 1.575000e+001
         vertex 1.966028e+001 0.000000e+000 1.573220e+001
      endloop
   endfacet
   facet normal -1.564334e-001 0.000000e+000 -9.876885e-001
      outer loop
         vertex 2.067571e+001 3.000000e+000 1.567898e+001
         vertex 2.067571e+001 0.000000e+000 1.567898e+001
         vertex 2.033972e+001 0.000000e+000 1.573220e+001
      endloop
   endfacet
   facet normal -3.583683e-001 0.000000e+000 -9.335803e-001
      outer loop
         vertex 2.132189e+001 3.000000e+000 1.546902e+001
         vertex 2.132189e+001 0.000000e+000 1.546902e+001
         vertex 2.100430e+001 0.000000e+000 1.559093e+001
      endloop
   endfacet
   facet normal -5.446414e-001 0.000000e+000 -8.386690e-001
      outer loop
         vertex 2.191030e+001 3.000000e+000 1.512930e+001
         vertex 2.191030e+001 0.000000e+000 1.512930e+001
         vertex 2.162500e+001 0.000000e+000 1.531458e+001
      endloop
   endfacet
   facet normal -7.071082e-001 0.000000e+000 -7.071054e-001
      outer loop
         vertex 2.241522e+001 3.000000e+000 1.467467e+001
         vertex 2.241522e+001 0.000000e+000 1.467467e+001
         vertex 2.217467e+001 0.000000e+000 1.491522e+001
      endloop
   endfacet
   facet normal -8.386698e-001 0.000000e+000 -5.446402e-001
      outer loop
         vertex 2.281458e+001 3.000000e+000 1.412500e+001
         vertex 2.281458e+001 0.000000e+000 1.412500e+001
         vertex 2.262930e+001 0.000000e+000 1.441030e+001
      endloop
   endfacet
   facet normal -9.335812e-001 0.000000e+000 -3.583658e-001
      outer loop
         vertex 2.296902e+001 3.000000e+000 1.382189e+001
         vertex 2.309093e+001 0.000000e+000 1.350430e+001
         vertex 2.296902e+001 0.000000e+000 1.382189e+001
      endloop
   endfacet
   facet normal -9.876881e-001 0.000000e+000 -1.564362e-001
      outer loop
         vertex 2.323220e+001 3.000000e+000 1.283972e+001
         vertex 2.323220e+001 0.000000e+000 1.283972e+001
         vertex 2.317898e+001 0.000000e+000 1.317571e+001
      endloop
   endfacet
   facet normal -9.986296e-001 -0.000000e+000 -5.233400e-002
      outer loop
         vertex 2.323220e+001 0.000000e+000 1.283972e+001
         vertex 2.325000e+001 3.000000e+000 1.250000e+001
         vertex 2.325000e+001 0.000000e+000 1.250000e+001
      endloop
   endfacet
   facet normal -9.659251e-001 -0.000000e+000 -2.588217e-001
      outer loop
         vertex 2.309093e+001 0.000000e+000 1.350430e+001
         vertex 2.309093e+001 3.000000e+000 1.350430e+001
         vertex 2.317898e+001 3.000000e+000 1.317571e+001
      endloop
   endfacet
   facet normal -8.910071e-001 -0.000000e+000 -4.539894e-001
      outer loop
         vertex 2.281458e+001 0.000000e+000 1.412500e+001
         vertex 2.281458e+001 3.000000e+000 1.412500e+001
         vertex 2.296902e+001 3.000000e+000 1.382189e+001
      endloop
   endfacet
   facet normal -7.771452e-001 -0.000000e+000 -6.293213e-001
      outer loop
         vertex 2.241522e+001 0.000000e+000 1.467467e+001
         vertex 2.241522e+001 3.000000e+000 1.467467e+001
         vertex 2.262930e+001 3.000000e+000 1.441030e+001
      endloop
   endfacet
   facet normal -6.293185e-001 -0.000000e+000 -7.771475e-001
      outer loop
         vertex 2.191030e+001 0.000000e+000 1.512930e+001
         vertex 2.191030e+001 3.000000e+000 1.512930e+001
         vertex 2.217467e+001 3.000000e+000 1.491522e+001
      endloop
   endfacet
   facet normal -4.539894e-001 -0.000000e+000 -8.910071e-001
      outer loop
         vertex 2.132189e+001 0.000000e+000 1.546902e+001
         vertex 2.132189e+001 3.000000e+000 1.546902e+001
         vertex 2.162500e+001 3.000000e+000 1.531458e+001
      endloop
   endfacet
   facet normal -2.588191e-001 -0.000000e+000 -9.659258e-001
      outer loop
         vertex 2.067571e+001 0.000000e+000 1.567898e+001
         vertex 2.067571e+001 3.000000e+000 1.567898e+001
         vertex 2.100430e+001 3.000000e+000 1.559093e+001
      endloop
   endfacet
   facet normal -5.233680e-002 -0.000000e+000 -9.986295e-001
      outer loop
         vertex 2.000000e+001 0.000000e+000 1.575000e+001
         vertex 2.000000e+001 3.000000e+000 1.575000e+001
         vertex 2.033972e+001 3.000000e+000 1.573220e+001
      endloop
   endfacet
   facet normal 1.564334e-001 0.000000e+000 -9.876885e-001
      outer loop
         vertex 1.932429e+001 0.000000e+000 1.567898e+001
         vertex 1.932429e+001 3.000000e+000 1.567898e+001
         vertex 1.966028e+001 3.000000e+000 1.573220e+001
      endloop
   endfacet
   facet normal 3.583683e-001 0.000000e+000 -9.335803e-001
      outer loop
         vertex 1.867811e+001 0.000000e+000 1.546902e+001
         vertex 1.867811e+001 3.000000e+000 1.546902e+001
         vertex 1.899570e+001 3.000000e+000 1.559093e+001
      endloop
   endfacet
   facet normal 5.446414e-001 0.000000e+000 -8.386690e-001
      outer loop
         vertex 1.808970e+001 0.000000e+000 1.512930e+001
         vertex 1.808970e+001 3.000000e+000 1.512930e+001
         vertex 1.837500e+001 3.000000e+000 1.531458e+001
      endloop
   endfacet
   facet normal 7.071082e-001 0.000000e+000 -7.071054e-001
      outer loop
         vertex 1.758478e+001 0.000000e+000 1.467467e+001
         vertex 1.758478e+001 3.000000e+000 1.467467e+001
         vertex 1.782533e+001 3.000000e+000 1.491522e+001
      endloop
   endfacet
   facet normal 8.386698e-001 0.000000e+000 -5.446402e-001
      outer loop
         vertex 1.718542e+001 0.000000e+000 1.412500e+001
         vertex 1.718542e+001 3.000000e+000 1.412500e+001
         vertex 1.737070e+001 3.000000e+000 1.441030e+001
      endloop
   endfacet
   facet normal 9.335812e-001 0.000000e+000 -3.583658e-001
      outer loop
         vertex 1.690907e+001 0.000000e+000 1.350430e+001
         vertex 1.690907e+001 3.000000e+000 1.350430e+001
         vertex 1.703098e+001 3.000000e+000 1.382189e+001
      endloop
   endfacet
   facet normal 9.876881e-001 0.000000e+000 -1.564362e-001
      outer loop
         vertex 1.676780e+001 0.000000e+000 1.283972e+001
         vertex 1.676780e+001 3.000000e+000 1.283972e+001
         vertex 1.682102e+001 3.000000e+000 1.317571e+001
      endloop
   endfacet
   facet normal 9.986296e-001 0.000000e+000 -5.233400e-002
      outer loop
         vertex 1.676780e+001 3.000000e+000 1.283972e+001
         vertex 1.676780e+001 0.000000e+000 1.283972e+001
         vertex 1.675000e+001 3.000000e+000 1.250000e+001
      endloop
   endfacet
   facet normal 7.771452e-001 0.000000e+000 -6.293213e-001
      outer loop
         vertex 1.737070e+001 3.000000e+000 1.441030e+001
         vertex 1.758478e+001 3.000000e+000 1.467467e+001
         vertex 1.737070e+001 0.000000e+000 1.441030e+001
      endloop
   endfacet
   facet normal 2.588191e-001 0.000000e+000 -9.659258e-001
      outer loop
         vertex 1.899570e+001 3.000000e+000 1.559093e+001
         vertex 1.932429e+001 3.000000e+000 1.567898e+001
         vertex 1.899570e+001 0.000000e+000 1.559093e+001
      endloop
   endfacet
   facet normal -3.583683e-001 0.000000e+000 -9.335803e-001
      outer loop
         vertex 2.100430e+001 3.000000e+000 1.559093e+001
         vertex 2.132189e+001 3.000000e+000 1.546902e+001
         vertex 2.100430e+001 0.000000e+000 1.559093e+001
      endloop
   endfacet
   facet normal -8.386698e-001 0.000000e+000 -5.446402e-001
      outer loop
         vertex 2.262930e+001 3.000000e+000 1.441030e+001
         vertex 2.281458e+001 3.000000e+000 1.412500e+001
         vertex 2.262930e+001 0.000000e+000 1.441030e+001
      endloop
   endfacet
   facet normal -9.876881e-001 0.000000e+000 -1.564362e-001
      outer loop
         vertex 2.317898e+001 3.000000e+000 1.317571e+001
         vertex 2.323220e+001 3.000000e+000 1.283972e+001
         vertex 2.317898e+001 0.000000e+000 1.317571e+001
      endloop
   endfacet
   facet normal -9.659251e-001 0.000000e+000 -2.588217e-001
      outer loop
         vertex 2.317898e+001 0.000000e+000 1.317571e+001
         vertex 2.309093e+001 0.000000e+000 1.350430e+001
         vertex 2.317898e+001 3.000000e+000 1.317571e+001
      endloop
   endfacet
   facet normal -7.771452e-001 0.000000e+000 -6.293213e-001
      outer loop
         vertex 2.262930e+001 0.000000e+000 1.441030e+001
         vertex 2.241522e+001 0.000000e+000 1.467467e+001
         vertex 2.262930e+001 3.000000e+000 1.441030e+001
      endloop
   endfacet
   facet normal -2.588191e-001 0.000000e+000 -9.659258e-001
      outer loop
         vertex 2.100430e+001 0.000000e+000 1.559093e+001
         vertex 2.067571e+001 0.000000e+000 1.567898e+001
         vertex 2.100430e+001 3.000000e+000 1.559093e+001
      endloop
   endfacet
   facet normal 3.583683e-001 0.000000e+000 -9.335803e-001
      outer loop
         vertex 1.899570e+001 0.000000e+000 1.559093e+001
         vertex 1.867811e+001 0.000000e+000 1.546902e+001
         vertex 1.899570e+001 3.000000e+000 1.559093e+001
      endloop
   endfacet
   facet normal 8.386698e-001 0.000000e+000 -5.446402e-001
      outer loop
         vertex 1.737070e+001 0.000000e+000 1.441030e+001
         vertex 1.718542e+001 0.000000e+000 1.412500e+001
         vertex 1.737070e+001 3.000000e+000 1.441030e+001
      endloop
   endfacet
   facet normal 9.876881e-001 0.000000e+000 -1.564362e-001
      outer loop
         vertex 1.682102e+001 3.000000e+000 1.317571e+001
         vertex 1.682102e+001 0.000000e+000 1.317571e+001
         vertex 1.676780e+001 0.000000e+000 1.283972e+001
      endloop
   endfacet
   facet normal 7.071082e-001 0.000000e+000 -7.071054e-001
      outer loop
         vertex 1.782533e+001 3.000000e+000 1.491522e+001
         vertex 1.782533e+001 0.000000e+000 1.491522e+001
         vertex 1.758478e+001 0.000000e+000 1.467467e+001
      endloop
   endfacet
   facet normal 1.564334e-001 0.000000e+000 -9.876885e-001
      outer loop
         vertex 1.966028e+001 3.000000e+000 1.573220e+001
         vertex 1.966028e+001 0.000000e+000 1.573220e+001
         vertex 1.932429e+001 0.000000e+000 1.567898e+001
      endloop
   endfacet
   facet normal -4.539894e-001 0.000000e+000 -8.910071e-001
      outer loop
         vertex 2.162500e+001 3.000000e+000 1.531458e+001
         vertex 2.162500e+001 0.000000e+000 1.531458e+001
         vertex 2.132189e+001 0.000000e+000 1.546902e+001
      endloop
   endfacet
   facet normal -8.910071e-001 0.000000e+000 -4.539894e-001
      outer loop
         vertex 2.296902e+001 3.000000e+000 1.382189e+001
         vertex 2.296902e+001 0.000000e+000 1.382189e+001
         vertex 2.281458e+001 0.000000e+000 1.412500e+001
      endloop
   endfacet
   facet normal -9.335812e-001 0.000000e+000 -3.583658e-001
      outer loop
         vertex 2.309093e+001 0.000000e+000 1.350430e+001
         vertex 2.296902e+001 3.000000e+000 1.382189e+001
         vertex 2.309093e+001 3.000000e+000 1.350430e+001
      endloop
   endfacet
   facet normal -5.446414e-001 -0.000000e+000 -8.386690e-001
      outer loop
         vertex 2.162500e+001 0.000000e+000 1.531458e+001
         vertex 2.162500e+001 3.000000e+000 1.531458e+001
         vertex 2.191030e+001 3.000000e+000 1.512930e+001
      endloop
   endfacet
   facet normal 5.233680e-002 0.000000e+000 -9.986295e-001
      outer loop
         vertex 1.966028e+001 0.000000e+000 1.573220e+001
         vertex 1.966028e+001 3.000000e+000 1.573220e+001
         vertex 2.000000e+001 3.000000e+000 1.575000e+001
      endloop
   endfacet
   facet normal 6.293185e-001 0.000000e+000 -7.771475e-001
      outer loop
         vertex 1.782533e+001 0.000000e+000 1.491522e+001
         vertex 1.782533e+001 3.000000e+000 1.491522e+001
         vertex 1.808970e+001 3.000000e+000 1.512930e+001
      endloop
   endfacet
   facet normal 9.659251e-001 0.000000e+000 -2.588217e-001
      outer loop
         vertex 1.682102e+001 0.000000e+000 1.317571e+001
         vertex 1.682102e+001 3.000000e+000 1.317571e+001
         vertex 1.690907e+001 3.000000e+000 1.350430e+001
      endloop
   endfacet
   facet normal 4.539894e-001 0.000000e+000 -8.910071e-001
      outer loop
         vertex 1.837500e+001 3.000000e+000 1.531458e+001
         vertex 1.867811e+001 3.000000e+000 1.546902e+001
         vertex 1.837500e+001 0.000000e+000 1.531458e+001
      endloop
   endfacet
   facet normal -9.986296e-001 0.000000e+000 -5.233400e-002
      outer loop
         vertex 2.325000e+001 3.000000e+000 1.250000e+001
         vertex 2.323220e+001 0.000000e+000 1.283972e+001
         vertex 2.323220e+001 3.000000e+000 1.283972e+001
      endloop
   endfacet
   facet normal 5.446414e-001 0.000000e+000 -8.386690e-001
      outer loop
         vertex 1.837500e+001 0.000000e+000 1.531458e+001
         vertex 1.808970e+001 0.000000e+000 1.512930e+001
         vertex 1.837500e+001 3.000000e+000 1.531458e+001
      endloop
   endfacet
   facet normal 9.335812e-001 0.000000e+000 -3.583658e-001
      outer loop
         vertex 1.703098e+001 3.000000e+000 1.382189e+001
         vertex 1.703098e+001 0.000000e+000 1.382189e+001
         vertex 1.690907e+001 0.000000e+000 1.350430e+001
      endloop
   endfacet
   facet normal -6.293185e-001 0.000000e+000 -7.771475e-001
      outer loop
         vertex 2.217467e+001 3.000000e+000 1.491522e+001
         vertex 2.217467e+001 0.000000e+000 1.491522e+001
         vertex 2.191030e+001 0.000000e+000 1.512930e+001
      endloop
   endfacet
   facet normal -1.564334e-001 -0.000000e+000 -9.876885e-001
      outer loop
         vertex 2.033972e+001 0.000000e+000 1.573220e+001
         vertex 2.033972e+001 3.000000e+000 1.573220e+001
         vertex 2.067571e+001 3.000000e+000 1.567898e+001
      endloop
   endfacet
   facet normal 8.910071e-001 0.000000e+000 -4.539894e-001
      outer loop
         vertex 1.703098e+001 3.000000e+000 1.382189e+001
         vertex 1.718542e+001 3.000000e+000 1.412500e+001
         vertex 1.703098e+001 0.000000e+000 1.382189e+001
      endloop
   endfacet
   facet normal -7.071082e-001 0.000000e+000 -7.071054e-001
      outer loop
         vertex 2.241522e+001 3.000000e+000 1.467467e+001
         vertex 2.217467e+001 0.000000e+000 1.491522e+001
         vertex 2.217467e+001 3.000000e+000 1.491522e+001
      endloop
   endfacet
   facet normal -5.233680e-002 0.000000e+000 -9.986295e-001
      outer loop
         vertex 2.033972e+001 3.000000e+000 1.573220e+001
         vertex 2.033972e+001 0.000000e+000 1.573220e+001
         vertex 2.000000e+001 0.000000e+000 1.575000e+001
      endloop
   endfacet
   facet normal 1.000000e+000 0.000000e+000 0.000000e+000
      outer loop
         vertex 1.675000e+001 0.000000e+000 1.250000e+001
         vertex 1.675000e+001 0.000000e+000 0.000000e+000
         vertex 1.675000e+001 3.000000e+000 0.000000e+000
      endloop
   endfacet
   facet normal 1.000000e+000 0.000000e+000 -0.000000e+000
      outer loop
         vertex 1.675000e+001 0.000000e+000 1.250000e+001
         vertex 1.675000e+001 3.000000e+000 0.000000e+000
         vertex 1.675000e+001 3.000000e+000 1.250000e+001
      endloop
   endfacet
   facet normal 0.000000e+000 0.000000e+000 -1.000000e+000
      outer loop
         vertex 1.000000e+001 1.600000e+001 0.000000e+000
         vertex 2.525000e+001 8.000000e+000 0.000000e+000
         vertex 1.475000e+001 8.000000e+000 0.000000e+000
      endloop
   endfacet
   facet normal 0.000000e+000 0.000000e+000 -1.000000e+000
      outer loop
         vertex 2.325000e+001 0.000000e+000 0.000000e+000
         vertex 2.325000e+001 3.000000e+000 0.000000e+000
         vertex 2.525000e+001 3.000000e+000 0.000000e+000
      endloop
   endfacet
   facet normal -0.000000e+000 -0.000000e+000 -1.000000e+000
      outer loop
         vertex 3.000000e+001 1.100000e+001 0.000000e+000
         vertex 4.000000e+001 1.100000e+001 0.000000e+000
         vertex 4.000000e+001 0.000000e+000 0.000000e+000
      endloop
   endfacet
   facet normal 0.000000e+000 0.000000e+000 -1.000000e+000
      outer loop
         vertex 4.000000e+001 2.100000e+001 0.000000e+000
         vertex 4.000000e+001 1.600000e+001 0.000000e+000
         vertex 3.000000e+001 1.600000e+001 0.000000e+000
      endloop
   endfacet
   facet normal 0.000000e+000 0.000000e+000 -1.000000e+000
      outer loop
         vertex 1.000000e+001 1.600000e+001 0.000000e+000
         vertex 3.673940e-016 1.600000e+001 0.000000e+000
         vertex 6.735557e-016 2.100000e+001 0.000000e+000
      endloop
   endfacet
   facet normal 0.000000e+000 -0.000000e+000 -1.000000e+000
      outer loop
         vertex 0.000000e+000 0.000000e+000 0.000000e+000
         vertex 3.061617e-017 1.100000e+001 0.000000e+000
         vertex 1.000000e+001 1.100000e+001 0.000000e+000
      endloop
   endfacet
   facet normal -0.000000e+000 -0.000000e+000 -1.000000e+000
      outer loop
         vertex 1.475000e+001 3.000000e+000 0.000000e+000
         vertex 1.675000e+001 3.000000e+000 0.000000e+000
         vertex 1.675000e+001 0.000000e+000 0.000000e+000
      endloop
   endfacet
   facet normal 0.000000e+000 0.000000e+000 -1.000000e+000
      outer loop
         vertex 1.000000e+001 1.100000e+001 0.000000e+000
         vertex 1.000000e+001 1.600000e+001 0.000000e+000
         vertex 1.475000e+001 8.000000e+000 0.000000e+000
      endloop
   endfacet
   facet normal 0.000000e+000 -0.000000e+000 -1.000000e+000
      outer loop
         vertex 2.525000e+001 3.000000e+000 0.000000e+000
         vertex 3.000000e+001 1.100000e+001 0.000000e+000
         vertex 4.000000e+001 0.000000e+000 0.000000e+000
      endloop
   endfacet
   facet normal 0.000000e+000 0.000000e+000 -1.000000e+000
      outer loop
         vertex 3.000000e+001 1.600000e+001 0.000000e+000
         vertex 1.000000e+001 1.600000e+001 0.000000e+000
         vertex 6.735557e-016 2.100000e+001 0.000000e+000
      endloop
   endfacet
   facet normal 0.000000e+000 -0.000000e+000 -1.000000e+000
      outer loop
         vertex 0.000000e+000 0.000000e+000 0.000000e+000
         vertex 1.475000e+001 3.000000e+000 0.000000e+000
         vertex 1.675000e+001 0.000000e+000 0.000000e+000
      endloop
   endfacet
   facet normal 0.000000e+000 0.000000e+000 -1.000000e+000
      outer loop
         vertex 2.525000e+001 8.000000e+000 0.000000e+000
         vertex 3.000000e+001 1.100000e+001 0.000000e+000
         vertex 2.525000e+001 3.000000e+000 0.000000e+000
      endloop
   endfacet
   facet normal -0.000000e+000 0.000000e+000 -1.000000e+000
      outer loop
         vertex 1.000000e+001 1.100000e+001 0.000000e+000
         vertex 1.475000e+001 3.000000e+000 0.000000e+000
         vertex 0.000000e+000 0.000000e+000 0.000000e+000
      endloop
   endfacet
   facet normal 0.000000e+000 0.000000e+000 -1.000000e+000
      outer loop
         vertex 2.525000e+001 3.000000e+000 0.000000e+000
         vertex 4.000000e+001 0.000000e+000 0.000000e+000
         vertex 2.325000e+001 0.000000e+000 0.000000e+000
      endloop
   endfacet
   facet normal 0.000000e+000 0.000000e+000 -1.000000e+000
      outer loop
         vertex 3.000000e+001 1.600000e+001 0.000000e+000
         vertex 6.735557e-016 2.100000e+001 0.000000e+000
         vertex 4.000000e+001 2.100000e+001 0.000000e+000
      endloop
   endfacet
   facet normal 0.000000e+000 0.000000e+000 -1.000000e+000
      outer loop
         vertex 3.000000e+001 1.600000e+001 0.000000e+000
         vertex 2.525000e+001 8.000000e+000 0.000000e+000
         vertex 1.000000e+001 1.600000e+001 0.000000e+000
      endloop
   endfacet
   facet normal -0.000000e+000 0.000000e+000 -1.000000e+000
      outer loop
         vertex 3.000000e+001 1.600000e+001 0.000000e+000
         vertex 3.000000e+001 1.100000e+001 0.000000e+000
         vertex 2.525000e+001 8.000000e+000 0.000000e+000
      endloop
   endfacet
   facet normal -0.000000e+000 -0.000000e+000 -1.000000e+000
      outer loop
         vertex 1.000000e+001 1.100000e+001 0.000000e+000
         vertex 1.475000e+001 8.000000e+000 0.000000e+000
         vertex 1.475000e+001 3.000000e+000 0.000000e+000
      endloop
   endfacet
   facet normal 0.000000e+000 1.000000e+000 0.000000e+000
      outer loop
         vertex 1.475000e+001 3.000000e+000 0.000000e+000
         vertex 1.675000e+001 3.000000e+000 1.250000e+001
         vertex 1.675000e+001 3.000000e+000 0.000000e+000
      endloop
   endfacet
   facet normal 0.000000e+000 1.000000e+000 0.000000e+000
      outer loop
         vertex 1.475000e+001 3.000000e+000 1.553109e+001
         vertex 1.682102e+001 3.000000e+000 1.317571e+001
         vertex 1.676780e+001 3.000000e+000 1.283972e+001
      endloop
   endfacet
   facet normal 0.000000e+000 1.000000e+000 0.000000e+000
      outer loop
         vertex 1.475000e+001 3.000000e+000 1.553109e+001
         vertex 1.703098e+001 3.000000e+000 1.382189e+001
         vertex 1.690907e+001 3.000000e+000 1.350430e+001
      endloop
   endfacet
   facet normal 0.000000e+000 1.000000e+000 0.000000e+000
      outer loop
         vertex 1.475000e+001 3.000000e+000 1.553109e+001
         vertex 1.737070e+001 3.000000e+000 1.441030e+001
         vertex 1.718542e+001 3.000000e+000 1.412500e+001
      endloop
   endfacet
   facet normal 0.000000e+000 1.000000e+000 0.000000e+000
      outer loop
         vertex 1.475000e+001 3.000000e+000 1.553109e+001
         vertex 1.782533e+001 3.000000e+000 1.491522e+001
         vertex 1.758478e+001 3.000000e+000 1.467467e+001
      endloop
   endfacet
   facet normal 0.000000e+000 1.000000e+000 0.000000e+000
      outer loop
         vertex 1.475000e+001 3.000000e+000 1.553109e+001
         vertex 1.837500e+001 3.000000e+000 1.531458e+001
         vertex 1.808970e+001 3.000000e+000 1.512930e+001
      endloop
   endfacet
   facet normal 0.000000e+000 1.000000e+000 -0.000000e+000
      outer loop
         vertex 2.000000e+001 3.000000e+000 1.856218e+001
         vertex 1.899570e+001 3.000000e+000 1.559093e+001
         vertex 1.867811e+001 3.000000e+000 1.546902e+001
      endloop
   endfacet
   facet normal 0.000000e+000 1.000000e+000 -0.000000e+000
      outer loop
         vertex 2.000000e+001 3.000000e+000 1.856218e+001
         vertex 1.966028e+001 3.000000e+000 1.573220e+001
         vertex 1.932429e+001 3.000000e+000 1.567898e+001
      endloop
   endfacet
   facet normal 0.000000e+000 1.000000e+000 0.000000e+000
      outer loop
         vertex 2.000000e+001 3.000000e+000 1.856218e+001
         vertex 2.033972e+001 3.000000e+000 1.573220e+001
         vertex 2.000000e+001 3.000000e+000 1.575000e+001
      endloop
   endfacet
   facet normal 0.000000e+000 1.000000e+000 0.000000e+000
      outer loop
         vertex 2.000000e+001 3.000000e+000 1.856218e+001
         vertex 2.100430e+001 3.000000e+000 1.559093e+001
         vertex 2.067571e+001 3.000000e+000 1.567898e+001
      endloop
   endfacet
   facet normal 0.000000e+000 1.000000e+000 0.000000e+000
      outer loop
         vertex 2.000000e+001 3.000000e+000 1.856218e+001
         vertex 2.162500e+001 3.000000e+000 1.531458e+001
         vertex 2.132189e+001 3.000000e+000 1.546902e+001
      endloop
   endfacet
   facet normal 0.000000e+000 1.000000e+000 -0.000000e+000
      outer loop
         vertex 2.525000e+001 3.000000e+000 1.553109e+001
         vertex 2.217467e+001 3.000000e+000 1.491522e+001
         vertex 2.191030e+001 3.000000e+000 1.512930e+001
      endloop
   endfacet
   facet normal 0.000000e+000 1.000000e+000 -0.000000e+000
      outer loop
         vertex 2.525000e+001 3.000000e+000 1.553109e+001
         vertex 2.262930e+001 3.000000e+000 1.441030e+001
         vertex 2.241522e+001 3.000000e+000 1.467467e+001
      endloop
   endfacet
   facet normal 0.000000e+000 1.000000e+000 -0.000000e+000
      outer loop
         vertex 2.525000e+001 3.000000e+000 1.553109e+001
         vertex 2.296902e+001 3.000000e+000 1.382189e+001
         vertex 2.281458e+001 3.000000e+000 1.412500e+001
      endloop
   endfacet
   facet normal 0.000000e+000 1.000000e+000 -0.000000e+000
      outer loop
         vertex 2.525000e+001 3.000000e+000 1.553109e+001
         vertex 2.317898e+001 3.000000e+000 1.317571e+001
         vertex 2.309093e+001 3.000000e+000 1.350430e+001
      endloop
   endfacet
   facet normal 0.000000e+000 1.000000e+000 -0.000000e+000
      outer loop
         vertex 2.525000e+001 3.000000e+000 1.553109e+001
         vertex 2.325000e+001 3.000000e+000 1.250000e+001
         vertex 2.323220e+001 3.000000e+000 1.283972e+001
      endloop
   endfacet
   facet normal 0.000000e+000 1.000000e+000 0.000000e+000
      outer loop
         vertex 2.325000e+001 3.000000e+000 1.250000e+001
         vertex 2.525000e+001 3.000000e+000 0.000000e+000
         vertex 2.325000e+001 3.000000e+000 0.000000e+000
      endloop
   endfacet
   facet normal -0.000000e+000 1.000000e+000 0.000000e+000
      outer loop
         vertex 1.837500e+001 3.000000e+000 1.531458e+001
         vertex 1.475000e+001 3.000000e+000 1.553109e+001
         vertex 2.000000e+001 3.000000e+000 1.856218e+001
      endloop
   endfacet
   facet normal 0.000000e+000 1.000000e+000 0.000000e+000
      outer loop
         vertex 1.475000e+001 3.000000e+000 1.553109e+001
         vertex 1.675000e+001 3.000000e+000 1.250000e+001
         vertex 1.475000e+001 3.000000e+000 0.000000e+000
      endloop
   endfacet
   facet normal 0.000000e+000 1.000000e+000 0.000000e+000
      outer loop
         vertex 1.682102e+001 3.000000e+000 1.317571e+001
         vertex 1.475000e+001 3.000000e+000 1.553109e+001
         vertex 1.690907e+001 3.000000e+000 1.350430e+001
      endloop
   endfacet
   facet normal 0.000000e+000 1.000000e+000 0.000000e+000
      outer loop
         vertex 1.737070e+001 3.000000e+000 1.441030e+001
         vertex 1.475000e+001 3.000000e+000 1.553109e+001
         vertex 1.758478e+001 3.000000e+000 1.467467e+001
      endloop
   endfacet
   facet normal 0.000000e+000 1.000000e+000 0.000000e+000
      outer loop
         vertex 1.932429e+001 3.000000e+000 1.567898e+001
         vertex 1.899570e+001 3.000000e+000 1.559093e+001
         vertex 2.000000e+001 3.000000e+000 1.856218e+001
      endloop
   endfacet
   facet normal -0.000000e+000 1.000000e+000 -0.000000e+000
      outer loop
         vertex 2.067571e+001 3.000000e+000 1.567898e+001
         vertex 2.033972e+001 3.000000e+000 1.573220e+001
         vertex 2.000000e+001 3.000000e+000 1.856218e+001
      endloop
   endfacet
   facet normal 0.000000e+000 1.000000e+000 -0.000000e+000
      outer loop
         vertex 2.525000e+001 3.000000e+000 1.553109e+001
         vertex 2.162500e+001 3.000000e+000 1.531458e+001
         vertex 2.000000e+001 3.000000e+000 1.856218e+001
      endloop
   endfacet
   facet normal 0.000000e+000 1.000000e+000 0.000000e+000
      outer loop
         vertex 2.217467e+001 3.000000e+000 1.491522e+001
         vertex 2.525000e+001 3.000000e+000 1.553109e+001
         vertex 2.241522e+001 3.000000e+000 1.467467e+001
      endloop
   endfacet
   facet normal 0.000000e+000 1.000000e+000 0.000000e+000
      outer loop
         vertex 2.296902e+001 3.000000e+000 1.382189e+001
         vertex 2.525000e+001 3.000000e+000 1.553109e+001
         vertex 2.309093e+001 3.000000e+000 1.350430e+001
      endloop
   endfacet
   facet normal 0.000000e+000 1.000000e+000 -0.000000e+000
      outer loop
         vertex 2.525000e+001 3.000000e+000 1.553109e+001
         vertex 2.525000e+001 3.000000e+000 0.000000e+000
         vertex 2.325000e+001 3.000000e+000 1.250000e+001
      endloop
   endfacet
   facet normal 0.000000e+000 1.000000e+000 0.000000e+000
      outer loop
         vertex 1.475000e+001 3.000000e+000 1.553109e+001
         vertex 1.676780e+001 3.000000e+000 1.283972e+001
         vertex 1.675000e+001 3.000000e+000 1.250000e+001
      endloop
   endfacet
   facet normal 0.000000e+000 1.000000e+000 0.000000e+000
      outer loop
         vertex 1.475000e+001 3.000000e+000 1.553109e+001
         vertex 1.808970e+001 3.000000e+000 1.512930e+001
         vertex 1.782533e+001 3.000000e+000 1.491522e+001
      endloop
   endfacet
   facet normal 0.000000e+000 1.000000e+000 -0.000000e+000
      outer loop
         vertex 2.000000e+001 3.000000e+000 1.856218e+001
         vertex 2.000000e+001 3.000000e+000 1.575000e+001
         vertex 1.966028e+001 3.000000e+000 1.573220e+001
      endloop
   endfacet
   facet normal 0.000000e+000 1.000000e+000 -0.000000e+000
      outer loop
         vertex 2.525000e+001 3.000000e+000 1.553109e+001
         vertex 2.191030e+001 3.000000e+000 1.512930e+001
         vertex 2.162500e+001 3.000000e+000 1.531458e+001
      endloop
   endfacet
   facet normal 0.000000e+000 1.000000e+000 -0.000000e+000
      outer loop
         vertex 2.525000e+001 3.000000e+000 1.553109e+001
         vertex 2.323220e+001 3.000000e+000 1.283972e+001
         vertex 2.317898e+001 3.000000e+000 1.317571e+001
      endloop
   endfacet
   facet normal 0.000000e+000 1.000000e+000 0.000000e+000
      outer loop
         vertex 1.703098e+001 3.000000e+000 1.382189e+001
         vertex 1.475000e+001 3.000000e+000 1.553109e+001
         vertex 1.718542e+001 3.000000e+000 1.412500e+001
      endloop
   endfacet
   facet normal -0.000000e+000 1.000000e+000 0.000000e+000
      outer loop
         vertex 2.281458e+001 3.000000e+000 1.412500e+001
         vertex 2.262930e+001 3.000000e+000 1.441030e+001
         vertex 2.525000e+001 3.000000e+000 1.553109e+001
      endloop
   endfacet
   facet normal 0.000000e+000 1.000000e+000 -0.000000e+000
      outer loop
         vertex 2.000000e+001 3.000000e+000 1.856218e+001
         vertex 1.867811e+001 3.000000e+000 1.546902e+001
         vertex 1.837500e+001 3.000000e+000 1.531458e+001
      endloop
   endfacet
   facet normal -0.000000e+000 1.000000e+000 -0.000000e+000
      outer loop
         vertex 2.132189e+001 3.000000e+000 1.546902e+001
         vertex 2.100430e+001 3.000000e+000 1.559093e+001
         vertex 2.000000e+001 3.000000e+000 1.856218e+001
      endloop
   endfacet
   facet normal -1.000000e+000 -0.000000e+000 -0.000000e+000
      outer loop
         vertex 2.525000e+001 3.000000e+000 1.553109e+001
         vertex 2.525000e+001 8.000000e+000 1.553109e+001
         vertex 2.525000e+001 8.000000e+000 0.000000e+000
      endloop
   endfacet
   facet normal -1.000000e+000 0.000000e+000 0.000000e+000
      outer loop
         vertex 2.525000e+001 3.000000e+000 1.553109e+001
         vertex 2.525000e+001 8.000000e+000 0.000000e+000
         vertex 2.525000e+001 3.000000e+000 0.000000e+000
      endloop
   endfacet
   facet normal 1.000000e+000 -0.000000e+000 0.000000e+000
      outer loop
         vertex 1.475000e+001 8.000000e+000 1.553109e+001
         vertex 1.475000e+001 3.000000e+000 1.553109e+001
         vertex 1.475000e+001 3.000000e+000 0.000000e+000
      endloop
   endfacet
   facet normal 1.000000e+000 0.000000e+000 0.000000e+000
      outer loop
         vertex 1.475000e+001 8.000000e+000 1.553109e+001
         vertex 1.475000e+001 3.000000e+000 0.000000e+000
         vertex 1.475000e+001 8.000000e+000 0.000000e+000
      endloop
   endfacet
   facet normal -5.000000e-001 -0.000000e+000 -8.660254e-001
      outer loop
         vertex 2.000000e+001 3.000000e+000 1.856218e+001
         vertex 2.000000e+001 8.000000e+000 1.856218e+001
         vertex 2.525000e+001 8.000000e+000 1.553109e+001
      endloop
   endfacet
   facet normal -5.000000e-001 -0.000000e+000 -8.660254e-001
      outer loop
         vertex 2.000000e+001 3.000000e+000 1.856218e+001
         vertex 2.525000e+001 8.000000e+000 1.553109e+001
         vertex 2.525000e+001 3.000000e+000 1.553109e+001
      endloop
   endfacet
   facet normal 5.000000e-001 0.000000e+000 -8.660254e-001
      outer loop
         vertex 1.475000e+001 3.000000e+000 1.553109e+001
         vertex 1.475000e+001 8.000000e+000 1.553109e+001
         vertex 2.000000e+001 8.000000e+000 1.856218e+001
      endloop
   endfacet
   facet normal 5.000000e-001 0.000000e+000 -8.660254e-001
      outer loop
         vertex 1.475000e+001 3.000000e+000 1.553109e+001
         vertex 2.000000e+001 8.000000e+000 1.856218e+001
         vertex 2.000000e+001 3.000000e+000 1.856218e+001
      endloop
   endfacet
   facet normal 0.000000e+000 -1.000000e+000 0.000000e+000
      outer loop
         vertex 2.323220e+001 0.000000e+000 1.283972e+001
         vertex 2.325000e+001 0.000000e+000 1.250000e+001
         vertex 4.000000e+001 0.000000e+000 2.500000e+001
      endloop
   endfacet
   facet normal 0.000000e+000 -1.000000e+000 0.000000e+000
      outer loop
         vertex 2.325000e+001 0.000000e+000 0.000000e+000
         vertex 4.000000e+001 0.000000e+000 0.000000e+000
         vertex 2.325000e+001 0.000000e+000 1.250000e+001
      endloop
   endfacet
   facet normal 0.000000e+000 -1.000000e+000 0.000000e+000
      outer loop
         vertex 0.000000e+000 0.000000e+000 2.500000e+001
         vertex 0.000000e+000 0.000000e+000 0.000000e+000
         vertex 1.675000e+001 0.000000e+000 1.250000e+001
      endloop
   endfacet
   facet normal 0.000000e+000 -1.000000e+000 -0.000000e+000
      outer loop
         vertex 1.675000e+001 0.000000e+000 0.000000e+000
         vertex 1.675000e+001 0.000000e+000 1.250000e+001
         vertex 0.000000e+000 0.000000e+000 0.000000e+000
      endloop
   endfacet
   facet normal -0.000000e+000 -1.000000e+000 0.000000e+000
      outer loop
         vertex 1.682102e+001 0.000000e+000 1.317571e+001
         vertex 1.690907e+001 0.000000e+000 1.350430e+001
         vertex 0.000000e+000 0.000000e+000 2.500000e+001
      endloop
   endfacet
   facet normal -0.000000e+000 -1.000000e+000 0.000000e+000
      outer loop
         vertex 1.703098e+001 0.000000e+000 1.382189e+001
         vertex 1.718542e+001 0.000000e+000 1.412500e+001
         vertex 0.000000e+000 0.000000e+000 2.500000e+001
      endloop
   endfacet
   facet normal -0.000000e+000 -1.000000e+000 0.000000e+000
      outer loop
         vertex 1.737070e+001 0.000000e+000 1.441030e+001
         vertex 1.758478e+001 0.000000e+000 1.467467e+001
         vertex 0.000000e+000 0.000000e+000 2.500000e+001
      endloop
   endfacet
   facet normal -0.000000e+000 -1.000000e+000 0.000000e+000
      outer loop
         vertex 1.782533e+001 0.000000e+000 1.491522e+001
         vertex 1.808970e+001 0.000000e+000 1.512930e+001
         vertex 0.000000e+000 0.000000e+000 2.500000e+001
      endloop
   endfacet
   facet normal -0.000000e+000 -1.000000e+000 0.000000e+000
      outer loop
         vertex 1.837500e+001 0.000000e+000 1.531458e+001
         vertex 1.867811e+001 0.000000e+000 1.546902e+001
         vertex 0.000000e+000 0.000000e+000 2.500000e+001
      endloop
   endfacet
   facet normal -0.000000e+000 -1.000000e+000 0.000000e+000
      outer loop
         vertex 1.899570e+001 0.000000e+000 1.559093e+001
         vertex 1.932429e+001 0.000000e+000 1.567898e+001
         vertex 0.000000e+000 0.000000e+000 2.500000e+001
      endloop
   endfacet
   facet normal -0.000000e+000 -1.000000e+000 0.000000e+000
      outer loop
         vertex 1.966028e+001 0.000000e+000 1.573220e+001
         vertex 2.000000e+001 0.000000e+000 1.575000e+001
         vertex 0.000000e+000 0.000000e+000 2.500000e+001
      endloop
   endfacet
   facet normal 0.000000e+000 -1.000000e+000 0.000000e+000
      outer loop
         vertex 2.033972e+001 0.000000e+000 1.573220e+001
         vertex 2.067571e+001 0.000000e+000 1.567898e+001
         vertex 4.000000e+001 0.000000e+000 2.500000e+001
      endloop
   endfacet
   facet normal 0.000000e+000 -1.000000e+000 0.000000e+000
      outer loop
         vertex 2.100430e+001 0.000000e+000 1.559093e+001
         vertex 2.132189e+001 0.000000e+000 1.546902e+001
         vertex 4.000000e+001 0.000000e+000 2.500000e+001
      endloop
   endfacet
   facet normal 0.000000e+000 -1.000000e+000 0.000000e+000
      outer loop
         vertex 2.162500e+001 0.000000e+000 1.531458e+001
         vertex 2.191030e+001 0.000000e+000 1.512930e+001
         vertex 4.000000e+001 0.000000e+000 2.500000e+001
      endloop
   endfacet
   facet normal 0.000000e+000 -1.000000e+000 0.000000e+000
      outer loop
         vertex 2.217467e+001 0.000000e+000 1.491522e+001
         vertex 2.241522e+001 0.000000e+000 1.467467e+001
         vertex 4.000000e+001 0.000000e+000 2.500000e+001
      endloop
   endfacet
   facet normal 0.000000e+000 -1.000000e+000 0.000000e+000
      outer loop
         vertex 2.262930e+001 0.000000e+000 1.441030e+001
         vertex 2.281458e+001 0.000000e+000 1.412500e+001
         vertex 4.000000e+001 0.000000e+000 2.500000e+001
      endloop
   endfacet
   facet normal 0.000000e+000 -1.000000e+000 0.000000e+000
      outer loop
         vertex 2.296902e+001 0.000000e+000 1.382189e+001
         vertex 2.309093e+001 0.000000e+000 1.350430e+001
         vertex 4.000000e+001 0.000000e+000 2.500000e+001
      endloop
   endfacet
   facet normal 0.000000e+000 -1.000000e+000 0.000000e+000
      outer loop
         vertex 2.317898e+001 0.000000e+000 1.317571e+001
         vertex 2.323220e+001 0.000000e+000 1.283972e+001
         vertex 4.000000e+001 0.000000e+000 2.500000e+001
      endloop
   endfacet
   facet normal 0.000000e+000 -1.000000e+000 0.000000e+000
      outer loop
         vertex 2.325000e+001 0.000000e+000 1.250000e+001
         vertex 4.000000e+001 0.000000e+000 0.000000e+000
         vertex 4.000000e+001 0.000000e+000 2.500000e+001
      endloop
   endfacet
   facet normal 0.000000e+000 -1.000000e+000 0.000000e+000
      outer loop
         vertex 1.703098e+001 0.000000e+000 1.382189e+001
         vertex 0.000000e+000 0.000000e+000 2.500000e+001
         vertex 1.690907e+001 0.000000e+000 1.350430e+001
      endloop
   endfacet
   facet normal 0.000000e+000 -1.000000e+000 0.000000e+000
      outer loop
         vertex 1.782533e+001 0.000000e+000 1.491522e+001
         vertex 0.000000e+000 0.000000e+000 2.500000e+001
         vertex 1.758478e+001 0.000000e+000 1.467467e+001
      endloop
   endfacet
   facet normal 0.000000e+000 -1.000000e+000 0.000000e+000
      outer loop
         vertex 1.899570e+001 0.000000e+000 1.559093e+001
         vertex 0.000000e+000 0.000000e+000 2.500000e+001
         vertex 1.867811e+001 0.000000e+000 1.546902e+001
      endloop
   endfacet
   facet normal 0.000000e+000 -1.000000e+000 0.000000e+000
      outer loop
         vertex 2.033972e+001 0.000000e+000 1.573220e+001
         vertex 4.000000e+001 0.000000e+000 2.500000e+001
         vertex 2.000000e+001 0.000000e+000 1.575000e+001
      endloop
   endfacet
   facet normal 0.000000e+000 -1.000000e+000 0.000000e+000
      outer loop
         vertex 4.000000e+001 0.000000e+000 2.500000e+001
         vertex 2.132189e+001 0.000000e+000 1.546902e+001
         vertex 2.162500e+001 0.000000e+000 1.531458e+001
      endloop
   endfacet
   facet normal 0.000000e+000 -1.000000e+000 0.000000e+000
      outer loop
         vertex 4.000000e+001 0.000000e+000 2.500000e+001
         vertex 2.241522e+001 0.000000e+000 1.467467e+001
         vertex 2.262930e+001 0.000000e+000 1.441030e+001
      endloop
   endfacet
   facet normal 0.000000e+000 -1.000000e+000 0.000000e+000
      outer loop
         vertex 4.000000e+001 0.000000e+000 2.500000e+001
         vertex 2.309093e+001 0.000000e+000 1.350430e+001
         vertex 2.317898e+001 0.000000e+000 1.317571e+001
      endloop
   endfacet
   facet normal 0.000000e+000 -1.000000e+000 0.000000e+000
      outer loop
         vertex 4.000000e+001 0.000000e+000 2.500000e+001
         vertex 0.000000e+000 0.000000e+000 2.500000e+001
         vertex 2.000000e+001 0.000000e+000 1.575000e+001
      endloop
   endfacet
   facet normal -0.000000e+000 -1.000000e+000 0.000000e+000
      outer loop
         vertex 1.676780e+001 0.000000e+000 1.283972e+001
         vertex 1.682102e+001 0.000000e+000 1.317571e+001
         vertex 0.000000e+000 0.000000e+000 2.500000e+001
      endloop
   endfacet
   facet normal -0.000000e+000 -1.000000e+000 0.000000e+000
      outer loop
         vertex 1.808970e+001 0.000000e+000 1.512930e+001
         vertex 1.837500e+001 0.000000e+000 1.531458e+001
         vertex 0.000000e+000 0.000000e+000 2.500000e+001
      endloop
   endfacet
   facet normal 0.000000e+000 -1.000000e+000 0.000000e+000
      outer loop
         vertex 2.067571e+001 0.000000e+000 1.567898e+001
         vertex 2.100430e+001 0.000000e+000 1.559093e+001
         vertex 4.000000e+001 0.000000e+000 2.500000e+001
      endloop
   endfacet
   facet normal 0.000000e+000 -1.000000e+000 0.000000e+000
      outer loop
         vertex 2.281458e+001 0.000000e+000 1.412500e+001
         vertex 2.296902e+001 0.000000e+000 1.382189e+001
         vertex 4.000000e+001 0.000000e+000 2.500000e+001
      endloop
   endfacet
   facet normal 0.000000e+000 -1.000000e+000 0.000000e+000
      outer loop
         vertex 0.000000e+000 0.000000e+000 2.500000e+001
         vertex 1.718542e+001 0.000000e+000 1.412500e+001
         vertex 1.737070e+001 0.000000e+000 1.441030e+001
      endloop
   endfacet
   facet normal 0.000000e+000 -1.000000e+000 0.000000e+000
      outer loop
         vertex 4.000000e+001 0.000000e+000 2.500000e+001
         vertex 2.191030e+001 0.000000e+000 1.512930e+001
         vertex 2.217467e+001 0.000000e+000 1.491522e+001
      endloop
   endfacet
   facet normal -0.000000e+000 -1.000000e+000 0.000000e+000
      outer loop
         vertex 1.675000e+001 0.000000e+000 1.250000e+001
         vertex 1.676780e+001 0.000000e+000 1.283972e+001
         vertex 0.000000e+000 0.000000e+000 2.500000e+001
      endloop
   endfacet
   facet normal 0.000000e+000 -1.000000e+000 0.000000e+000
      outer loop
         vertex 0.000000e+000 0.000000e+000 2.500000e+001
         vertex 1.932429e+001 0.000000e+000 1.567898e+001
         vertex 1.966028e+001 0.000000e+000 1.573220e+001
      endloop
   endfacet
   facet normal -1.000000e+000 2.783288e-018 0.000000e+000
      outer loop
         vertex 3.061617e-017 1.100000e+001 2.500000e+001
         vertex 3.061617e-017 1.100000e+001 0.000000e+000
         vertex 0.000000e+000 0.000000e+000 0.000000e+000
      endloop
   endfacet
   facet normal -1.000000e+000 2.783288e-018 0.000000e+000
      outer loop
         vertex 0.000000e+000 0.000000e+000 2.500000e+001
         vertex 3.061617e-017 1.100000e+001 2.500000e+001
         vertex 0.000000e+000 0.000000e+000 0.000000e+000
      endloop
   endfacet
   facet normal 0.000000e+000 1.000000e+000 -0.000000e+000
      outer loop
         vertex 1.000000e+001 1.100000e+001 2.500000e+001
         vertex 1.000000e+001 1.100000e+001 0.000000e+000
         vertex 3.061617e-017 1.100000e+001 0.000000e+000
      endloop
   endfacet
   facet normal 0.000000e+000 1.000000e+000 0.000000e+000
      outer loop
         vertex 3.061617e-017 1.100000e+001 2.500000e+001
         vertex 1.000000e+001 1.100000e+001 2.500000e+001
         vertex 3.061617e-017 1.100000e+001 0.000000e+000
      endloop
   endfacet
   facet normal -1.000000e+000 0.000000e+000 0.000000e+000
      outer loop
         vertex 1.000000e+001 1.600000e+001 2.500000e+001
         vertex 1.000000e+001 1.600000e+001 0.000000e+000
         vertex 1.000000e+001 1.100000e+001 0.000000e+000
      endloop
   endfacet
   facet normal -1.000000e+000 -0.000000e+000 0.000000e+000
      outer loop
         vertex 1.000000e+001 1.100000e+001 2.500000e+001
         vertex 1.000000e+001 1.600000e+001 2.500000e+001
         vertex 1.000000e+001 1.100000e+001 0.000000e+000
      endloop
   endfacet
   facet normal 0.000000e+000 -1.000000e+000 0.000000e+000
      outer loop
         vertex 3.673940e-016 1.600000e+001 2.500000e+001
         vertex 3.673940e-016 1.600000e+001 0.000000e+000
         vertex 1.000000e+001 1.600000e+001 0.000000e+000
      endloop
   endfacet
   facet normal 0.000000e+000 -1.000000e+000 0.000000e+000
      outer loop
         vertex 1.000000e+001 1.600000e+001 2.500000e+001
         vertex 3.673940e-016 1.600000e+001 2.500000e+001
         vertex 1.000000e+001 1.600000e+001 0.000000e+000
      endloop
   endfacet
   facet normal -1.000000e+000 6.123234e-017 0.000000e+000
      outer loop
         vertex 6.735557e-016 2.100000e+001 2.500000e+001
         vertex 6.735557e-016 2.100000e+001 0.000000e+000
         vertex 3.673940e-016 1.600000e+001 0.000000e+000
      endloop
   endfacet
   facet normal -1.000000e+000 6.123234e-017 0.000000e+000
      outer loop
         vertex 3.673940e-016 1.600000e+001 2.500000e+001
         vertex 6.735557e-016 2.100000e+001 2.500000e+001
         vertex 3.673940e-016 1.600000e+001 0.000000e+000
      endloop
   endfacet
   facet normal 0.000000e+000 1.000000e+000 -0.000000e+000
      outer loop
         vertex 4.000000e+001 2.100000e+001 2.500000e+001
         vertex 4.000000e+001 2.100000e+001 0.000000e+000
         vertex 6.735557e-016 2.100000e+001 0.000000e+000
      endloop
   endfacet
   facet normal 0.000000e+000 1.000000e+000 0.000000e+000
      outer loop
         vertex 6.735557e-016 2.100000e+001 2.500000e+001
         vertex 4.000000e+001 2.100000e+001 2.500000e+001
         vertex 6.735557e-016 2.100000e+001 0.000000e+000
      endloop
   endfacet
   facet normal 1.000000e+000 0.000000e+000 0.000000e+000
      outer loop
         vertex 4.000000e+001 1.600000e+001 2.500000e+001
         vertex 4.000000e+001 1.600000e+001 0.000000e+000
         vertex 4.000000e+001 2.100000e+001 0.000000e+000
      endloop
   endfacet
   facet normal 1.000000e+000 -0.000000e+000 0.000000e+000
      outer loop
         vertex 4.000000e+001 2.100000e+001 2.500000e+001
         vertex 4.000000e+001 1.600000e+001 2.500000e+001
         vertex 4.000000e+001 2.100000e+001 0.000000e+000
      endloop
   endfacet
   facet normal 0.000000e+000 -1.000000e+000 0.000000e+000
      outer loop
         vertex 3.000000e+001 1.600000e+001 2.500000e+001
         vertex 3.000000e+001 1.600000e+001 0.000000e+000
         vertex 4.000000e+001 1.600000e+001 0.000000e+000
      endloop
   endfacet
   facet normal 0.000000e+000 -1.000000e+000 0.000000e+000
      outer loop
         vertex 4.000000e+001 1.600000e+001 2.500000e+001
         vertex 3.000000e+001 1.600000e+001 2.500000e+001
         vertex 4.000000e+001 1.600000e+001 0.000000e+000
      endloop
   endfacet
   facet normal 1.000000e+000 0.000000e+000 0.000000e+000
      outer loop
         vertex 3.000000e+001 1.100000e+001 2.500000e+001
         vertex 3.000000e+001 1.100000e+001 0.000000e+000
         vertex 3.000000e+001 1.600000e+001 0.000000e+000
      endloop
   endfacet
   facet normal 1.000000e+000 -0.000000e+000 0.000000e+000
      outer loop
         vertex 3.000000e+001 1.600000e+001 2.500000e+001
         vertex 3.000000e+001 1.100000e+001 2.500000e+001
         vertex 3.000000e+001 1.600000e+001 0.000000e+000
      endloop
   endfacet
   facet normal 0.000000e+000 1.000000e+000 -0.000000e+000
      outer loop
         vertex 4.000000e+001 1.100000e+001 2.500000e+001
         vertex 4.000000e+001 1.100000e+001 0.000000e+000
         vertex 3.000000e+001 1.100000e+001 0.000000e+000
      endloop
   endfacet
   facet normal 0.000000e+000 1.000000e+000 0.000000e+000
      outer loop
         vertex 3.000000e+001 1.100000e+001 2.500000e+001
         vertex 4.000000e+001 1.100000e+001 2.500000e+001
         vertex 3.000000e+001 1.100000e+001 0.000000e+000
      endloop
   endfacet
   facet normal 1.000000e+000 0.000000e+000 0.000000e+000
      outer loop
         vertex 4.000000e+001 0.000000e+000 2.500000e+001
         vertex 4.000000e+001 0.000000e+000 0.000000e+000
         vertex 4.000000e+001 1.100000e+001 0.000000e+000
      endloop
   endfacet
   facet normal 1.000000e+000 -0.000000e+000 0.000000e+000
      outer loop
         vertex 4.000000e+001 1.100000e+001 2.500000e+001
         vertex 4.000000e+001 0.000000e+000 2.500000e+001
         vertex 4.000000e+001 1.100000e+001 0.000000e+000
      endloop
   endfacet
   facet normal 0.000000e+000 0.000000e+000 1.000000e+000
      outer loop
         vertex 6.735557e-016 2.100000e+001 2.500000e+001
         vertex 3.673940e-016 1.600000e+001 2.500000e+001
         vertex 1.000000e+001 1.600000e+001 2.500000e+001
      endloop
   endfacet
   facet normal -0.000000e+000 0.000000e+000 1.000000e+000
      outer loop
         vertex 1.000000e+001 1.100000e+001 2.500000e+001
         vertex 3.061617e-017 1.100000e+001 2.500000e+001
         vertex 0.000000e+000 0.000000e+000 2.500000e+001
      endloop
   endfacet
   facet normal 0.000000e+000 0.000000e+000 1.000000e+000
      outer loop
         vertex 4.000000e+001 0.000000e+000 2.500000e+001
         vertex 4.000000e+001 1.100000e+001 2.500000e+001
         vertex 3.000000e+001 1.100000e+001 2.500000e+001
      endloop
   endfacet
   facet normal 0.000000e+000 -0.000000e+000 1.000000e+000
      outer loop
         vertex 3.000000e+001 1.600000e+001 2.500000e+001
         vertex 4.000000e+001 1.600000e+001 2.500000e+001
         vertex 4.000000e+001 2.100000e+001 2.500000e+001
      endloop
   endfacet
   facet normal 0.000000e+000 -0.000000e+000 1.000000e+000
      outer loop
         vertex 6.735557e-016 2.100000e+001 2.500000e+001
         vertex 1.000000e+001 1.600000e+001 2.500000e+001
         vertex 3.000000e+001 1.600000e+001 2.500000e+001
      endloop
   endfacet
   facet normal 0.000000e+000 0.000000e+000 1.000000e+000
      outer loop
         vertex 4.000000e+001 0.000000e+000 2.500000e+001
         vertex 3.000000e+001 1.100000e+001 2.500000e+001
         vertex 1.000000e+001 1.100000e+001 2.500000e+001
      endloop
   endfacet
   facet normal 0.000000e+000 -0.000000e+000 1.000000e+000
      outer loop
         vertex 6.735557e-016 2.100000e+001 2.500000e+001
         vertex 3.000000e+001 1.600000e+001 2.500000e+001
         vertex 4.000000e+001 2.100000e+001 2.500000e+001
      endloop
   endfacet
   facet normal 0.000000e+000 0.000000e+000 1.000000e+000
      outer loop
         vertex 1.000000e+001 1.600000e+001 2.500000e+001
         vertex 1.000000e+001 1.100000e+001 2.500000e+001
         vertex 3.000000e+001 1.100000e+001 2.500000e+001
      endloop
   endfacet
   facet normal 0.000000e+000 0.000000e+000 1.000000e+000
      outer loop
         vertex 3.000000e+001 1.100000e+001 2.500000e+001
         vertex 3.000000e+001 1.600000e+001 2.500000e+001
         vertex 1.000000e+001 1.600000e+001 2.500000e+001
      endloop
   endfacet
   facet normal 0.000000e+000 0.000000e+000 1.000000e+000
      outer loop
         vertex 4.000000e+001 0.000000e+000 2.500000e+001
         vertex 1.000000e+001 1.100000e+001 2.500000e+001
         vertex 0.000000e+000 0.000000e+000 2.500000e+001
      endloop
   endfacet
endsolid
