solid 
   facet normal -1.000000e+000 1.006107e-016 0.000000e+000
      outer loop
         vertex -7.042751e-016 -1.000000e+001 2.000000e+000
         vertex -7.042751e-016 -1.000000e+001 1.800000e+001
         vertex 0.000000e+000 -3.000000e+000 7.000000e+000
      endloop
   endfacet
   facet normal -1.000000e+000 9.342023e-017 -6.280414e-017
      outer loop
         vertex -7.420473e-016 -9.732051e+000 1.900000e+001
         vertex -7.196347e-016 -9.000000e+000 1.973205e+001
         vertex -7.042751e-016 -1.000000e+001 1.800000e+001
      endloop
   endfacet
   facet normal -1.000000e+000 -3.928498e-016 1.181873e-015
      outer loop
         vertex -6.120349e-015 8.000000e+000 2.000000e+001
         vertex -6.829882e-015 9.000000e+000 1.973205e+001
         vertex -9.269796e-015 1.000000e+001 1.800000e+001
      endloop
   endfacet
   facet normal -1.000000e+000 3.405417e-015 3.374805e-015
      outer loop
         vertex -6.807469e-015 9.732051e+000 1.900000e+001
         vertex -9.269796e-015 1.000000e+001 1.800000e+001
         vertex -6.829882e-015 9.000000e+000 1.973205e+001
      endloop
   endfacet
   facet normal -1.000000e+000 1.700251e-016 -1.394085e-016
      outer loop
         vertex -6.807469e-015 9.732051e+000 1.000000e+000
         vertex -6.829882e-015 9.000000e+000 2.679492e-001
         vertex -6.901320e-015 1.000000e+001 2.000000e+000
      endloop
   endfacet
   facet normal -1.000000e+000 2.328286e-016 2.022124e-016
      outer loop
         vertex -5.409888e-016 -8.000000e+000 0.000000e+000
         vertex -7.196347e-016 -9.000000e+000 2.679492e-001
         vertex -7.420473e-016 -9.732051e+000 1.000000e+000
      endloop
   endfacet
   facet normal -1.000000e+000 0.000000e+000 7.728412e-017
      outer loop
         vertex 0.000000e+000 -3.000000e+000 7.000000e+000
         vertex 0.000000e+000 3.000000e+000 7.000000e+000
         vertex -5.409888e-016 -8.000000e+000 0.000000e+000
      endloop
   endfacet
   facet normal -1.000000e+000 0.000000e+000 -7.728412e-017
      outer loop
         vertex 0.000000e+000 3.000000e+000 1.300000e+001
         vertex 0.000000e+000 -3.000000e+000 1.300000e+001
         vertex -5.409888e-016 -8.000000e+000 2.000000e+001
      endloop
   endfacet
   facet normal -1.000000e+000 9.270756e-017 1.106443e-017
      outer loop
         vertex -7.042751e-016 -1.000000e+001 2.000000e+000
         vertex 0.000000e+000 -3.000000e+000 7.000000e+000
         vertex -5.409888e-016 -8.000000e+000 0.000000e+000
      endloop
   endfacet
   facet normal -1.000000e+000 2.141516e-016 -1.325084e-016
      outer loop
         vertex -7.042751e-016 -1.000000e+001 1.800000e+001
         vertex -7.196347e-016 -9.000000e+000 1.973205e+001
         vertex -5.409888e-016 -8.000000e+000 2.000000e+001
      endloop
   endfacet
   facet normal -1.000000e+000 1.631244e-016 8.148132e-017
      outer loop
         vertex -5.409888e-016 -8.000000e+000 0.000000e+000
         vertex -7.420473e-016 -9.732051e+000 1.000000e+000
         vertex -7.042751e-016 -1.000000e+001 2.000000e+000
      endloop
   endfacet
   facet normal -1.000000e+000 9.270756e-017 -1.106443e-017
      outer loop
         vertex -5.409888e-016 -8.000000e+000 2.000000e+001
         vertex 0.000000e+000 -3.000000e+000 1.300000e+001
         vertex -7.042751e-016 -1.000000e+001 1.800000e+001
      endloop
   endfacet
   facet normal -1.000000e+000 -3.487100e-016 -6.252570e-016
      outer loop
         vertex -5.409888e-016 -8.000000e+000 2.000000e+001
         vertex -6.120349e-015 8.000000e+000 2.000000e+001
         vertex 0.000000e+000 3.000000e+000 1.300000e+001
      endloop
   endfacet
   facet normal -1.000000e+000 -8.263124e-016 4.358272e-016
      outer loop
         vertex -6.829882e-015 9.000000e+000 2.679492e-001
         vertex -6.120349e-015 8.000000e+000 8.511710e-016
         vertex -6.901320e-015 1.000000e+001 2.000000e+000
      endloop
   endfacet
   facet normal -1.000000e+000 -1.324257e-015 -0.000000e+000
      outer loop
         vertex 0.000000e+000 3.000000e+000 7.000000e+000
         vertex 0.000000e+000 3.000000e+000 1.300000e+001
         vertex -9.269796e-015 1.000000e+001 1.800000e+001
      endloop
   endfacet
   facet normal -1.000000e+000 1.006107e-016 0.000000e+000
      outer loop
         vertex 0.000000e+000 -3.000000e+000 7.000000e+000
         vertex -7.042751e-016 -1.000000e+001 1.800000e+001
         vertex 0.000000e+000 -3.000000e+000 1.300000e+001
      endloop
   endfacet
   facet normal -1.000000e+000 -1.428618e-015 1.461056e-016
      outer loop
         vertex 0.000000e+000 3.000000e+000 1.300000e+001
         vertex -6.120349e-015 8.000000e+000 2.000000e+001
         vertex -9.269796e-015 1.000000e+001 1.800000e+001
      endloop
   endfacet
   facet normal -1.000000e+000 -1.091638e-015 -1.480298e-016
      outer loop
         vertex -9.269796e-015 1.000000e+001 1.800000e+001
         vertex -6.901320e-015 1.000000e+001 2.000000e+000
         vertex 0.000000e+000 3.000000e+000 7.000000e+000
      endloop
   endfacet
   facet normal -1.000000e+000 -3.487100e-016 6.252570e-016
      outer loop
         vertex -5.409888e-016 -8.000000e+000 0.000000e+000
         vertex 0.000000e+000 3.000000e+000 7.000000e+000
         vertex -6.120349e-015 8.000000e+000 8.511710e-016
      endloop
   endfacet
   facet normal -1.000000e+000 -7.378121e-016 3.473270e-016
      outer loop
         vertex -6.120349e-015 8.000000e+000 8.511710e-016
         vertex 0.000000e+000 3.000000e+000 7.000000e+000
         vertex -6.901320e-015 1.000000e+001 2.000000e+000
      endloop
   endfacet
   facet normal 0.000000e+000 0.000000e+000 -1.000000e+000
      outer loop
         vertex 2.100000e+001 3.000000e+000 1.300000e+001
         vertex 2.100000e+001 -3.000000e+000 1.300000e+001
         vertex 0.000000e+000 -3.000000e+000 1.300000e+001
      endloop
   endfacet
   facet normal 0.000000e+000 0.000000e+000 -1.000000e+000
      outer loop
         vertex 2.100000e+001 3.000000e+000 1.300000e+001
         vertex 0.000000e+000 -3.000000e+000 1.300000e+001
         vertex 0.000000e+000 3.000000e+000 1.300000e+001
      endloop
   endfacet
   facet normal 0.000000e+000 1.000000e+000 -0.000000e+000
      outer loop
         vertex 2.100000e+001 -3.000000e+000 1.300000e+001
         vertex 2.100000e+001 -3.000000e+000 7.000000e+000
         vertex 0.000000e+000 -3.000000e+000 7.000000e+000
      endloop
   endfacet
   facet normal 0.000000e+000 1.000000e+000 0.000000e+000
      outer loop
         vertex 2.100000e+001 -3.000000e+000 1.300000e+001
         vertex 0.000000e+000 -3.000000e+000 7.000000e+000
         vertex 0.000000e+000 -3.000000e+000 1.300000e+001
      endloop
   endfacet
   facet normal 0.000000e+000 0.000000e+000 1.000000e+000
      outer loop
         vertex 0.000000e+000 -3.000000e+000 7.000000e+000
         vertex 2.100000e+001 3.000000e+000 7.000000e+000
         vertex 0.000000e+000 3.000000e+000 7.000000e+000
      endloop
   endfacet
   facet normal 0.000000e+000 0.000000e+000 1.000000e+000
      outer loop
         vertex 2.100000e+001 3.000000e+000 7.000000e+000
         vertex 0.000000e+000 -3.000000e+000 7.000000e+000
         vertex 2.100000e+001 -3.000000e+000 7.000000e+000
      endloop
   endfacet
   facet normal -0.000000e+000 -1.000000e+000 -0.000000e+000
      outer loop
         vertex 2.100000e+001 3.000000e+000 7.000000e+000
         vertex 2.100000e+001 3.000000e+000 1.300000e+001
         vertex 0.000000e+000 3.000000e+000 1.300000e+001
      endloop
   endfacet
   facet normal 0.000000e+000 -1.000000e+000 0.000000e+000
      outer loop
         vertex 2.100000e+001 3.000000e+000 7.000000e+000
         vertex 0.000000e+000 3.000000e+000 1.300000e+001
         vertex 0.000000e+000 3.000000e+000 7.000000e+000
      endloop
   endfacet
   facet normal 0.000000e+000 0.000000e+000 -1.000000e+000
      outer loop
         vertex -4.898587e-016 -6.000000e+000 0.000000e+000
         vertex 6.900000e+001 -8.000000e+000 0.000000e+000
         vertex -5.409888e-016 -8.000000e+000 0.000000e+000
      endloop
   endfacet
   facet normal 0.000000e+000 0.000000e+000 -1.000000e+000
      outer loop
         vertex 6.900000e+001 -6.000000e+000 0.000000e+000
         vertex 6.900000e+001 -8.000000e+000 0.000000e+000
         vertex -4.898587e-016 -6.000000e+000 0.000000e+000
      endloop
   endfacet
   facet normal 0.000000e+000 0.000000e+000 -1.000000e+000
      outer loop
         vertex -4.898587e-016 6.000000e+000 0.000000e+000
         vertex 6.900000e+001 -6.000000e+000 0.000000e+000
         vertex -4.898587e-016 -6.000000e+000 0.000000e+000
      endloop
   endfacet
   facet normal 0.000000e+000 0.000000e+000 -1.000000e+000
      outer loop
         vertex 6.900000e+001 6.000000e+000 0.000000e+000
         vertex 6.900000e+001 -6.000000e+000 0.000000e+000
         vertex -4.898587e-016 6.000000e+000 0.000000e+000
      endloop
   endfacet
   facet normal 0.000000e+000 4.255855e-016 -1.000000e+000
      outer loop
         vertex -6.120349e-015 8.000000e+000 8.511710e-016
         vertex 6.900000e+001 6.000000e+000 0.000000e+000
         vertex -4.898587e-016 6.000000e+000 0.000000e+000
      endloop
   endfacet
   facet normal -1.233581e-017 0.000000e+000 -1.000000e+000
      outer loop
         vertex 6.900000e+001 8.000000e+000 0.000000e+000
         vertex 6.900000e+001 6.000000e+000 0.000000e+000
         vertex -6.120349e-015 8.000000e+000 8.511710e-016
      endloop
   endfacet
   facet normal 0.000000e+000 0.000000e+000 -1.000000e+000
      outer loop
         vertex 7.138419e+001 -4.788104e+000 0.000000e+000
         vertex 6.900000e+001 -8.000000e+000 0.000000e+000
         vertex 6.900000e+001 -6.000000e+000 0.000000e+000
      endloop
   endfacet
   facet normal -0.000000e+000 0.000000e+000 -1.000000e+000
      outer loop
         vertex 7.555361e+001 -5.974405e+000 0.000000e+000
         vertex 7.747214e+001 -7.608452e+000 0.000000e+000
         vertex 7.500000e+001 -8.000000e+000 0.000000e+000
      endloop
   endfacet
   facet normal -0.000000e+000 0.000000e+000 -1.000000e+000
      outer loop
         vertex 7.943405e+001 -4.042174e+000 0.000000e+000
         vertex 8.147214e+001 -4.702282e+000 0.000000e+000
         vertex 7.970229e+001 -6.472136e+000 0.000000e+000
      endloop
   endfacet
   facet normal -0.000000e+000 0.000000e+000 -1.000000e+000
      outer loop
         vertex 8.100000e+001 0.000000e+000 0.000000e+000
         vertex 8.300000e+001 -4.754476e-015 0.000000e+000
         vertex 8.260845e+001 -2.472136e+000 0.000000e+000
      endloop
   endfacet
   facet normal 0.000000e+000 -0.000000e+000 -1.000000e+000
      outer loop
         vertex 8.059483e+001 2.167450e+000 0.000000e+000
         vertex 8.147214e+001 4.702282e+000 0.000000e+000
         vertex 8.260845e+001 2.472136e+000 0.000000e+000
      endloop
   endfacet
   facet normal 0.000000e+000 0.000000e+000 -1.000000e+000
      outer loop
         vertex 7.767443e+001 5.370980e+000 0.000000e+000
         vertex 7.747214e+001 7.608452e+000 0.000000e+000
         vertex 7.970229e+001 6.472136e+000 0.000000e+000
      endloop
   endfacet
   facet normal 0.000000e+000 0.000000e+000 -1.000000e+000
      outer loop
         vertex 7.335802e+001 5.770954e+000 0.000000e+000
         vertex 6.900000e+001 8.000000e+000 0.000000e+000
         vertex 7.500000e+001 8.000000e+000 0.000000e+000
      endloop
   endfacet
   facet normal 0.000000e+000 0.000000e+000 -1.000000e+000
      outer loop
         vertex 6.910216e+001 -1.102497e+000 0.000000e+000
         vertex 6.900000e+001 -6.000000e+000 0.000000e+000
         vertex 6.900000e+001 6.000000e+000 0.000000e+000
      endloop
   endfacet
   facet normal 0.000000e+000 0.000000e+000 -1.000000e+000
      outer loop
         vertex 8.147214e+001 -4.702282e+000 0.000000e+000
         vertex 7.943405e+001 -4.042174e+000 0.000000e+000
         vertex 8.059483e+001 -2.167450e+000 0.000000e+000
      endloop
   endfacet
   facet normal 0.000000e+000 0.000000e+000 -1.000000e+000
      outer loop
         vertex 7.747214e+001 -7.608452e+000 0.000000e+000
         vertex 7.555361e+001 -5.974405e+000 0.000000e+000
         vertex 7.767443e+001 -5.370980e+000 0.000000e+000
      endloop
   endfacet
   facet normal 0.000000e+000 -0.000000e+000 -1.000000e+000
      outer loop
         vertex 6.900000e+001 -8.000000e+000 0.000000e+000
         vertex 7.138419e+001 -4.788104e+000 0.000000e+000
         vertex 7.335802e+001 -5.770954e+000 0.000000e+000
      endloop
   endfacet
   facet normal 0.000000e+000 -0.000000e+000 -1.000000e+000
      outer loop
         vertex 6.900000e+001 -6.000000e+000 0.000000e+000
         vertex 6.910216e+001 -1.102497e+000 0.000000e+000
         vertex 6.989870e+001 -3.158593e+000 0.000000e+000
      endloop
   endfacet
   facet normal -0.000000e+000 0.000000e+000 -1.000000e+000
      outer loop
         vertex 6.900000e+001 6.000000e+000 0.000000e+000
         vertex 6.989870e+001 3.158593e+000 0.000000e+000
         vertex 6.910216e+001 1.102497e+000 0.000000e+000
      endloop
   endfacet
   facet normal -0.000000e+000 0.000000e+000 -1.000000e+000
      outer loop
         vertex 6.900000e+001 8.000000e+000 0.000000e+000
         vertex 7.335802e+001 5.770954e+000 0.000000e+000
         vertex 7.138419e+001 4.788104e+000 0.000000e+000
      endloop
   endfacet
   facet normal 0.000000e+000 0.000000e+000 -1.000000e+000
      outer loop
         vertex 7.747214e+001 7.608452e+000 0.000000e+000
         vertex 7.767443e+001 5.370980e+000 0.000000e+000
         vertex 7.555361e+001 5.974405e+000 0.000000e+000
      endloop
   endfacet
   facet normal 0.000000e+000 0.000000e+000 -1.000000e+000
      outer loop
         vertex 8.147214e+001 4.702282e+000 0.000000e+000
         vertex 8.059483e+001 2.167450e+000 0.000000e+000
         vertex 7.943405e+001 4.042174e+000 0.000000e+000
      endloop
   endfacet
   facet normal -0.000000e+000 0.000000e+000 -1.000000e+000
      outer loop
         vertex 6.989870e+001 -3.158593e+000 0.000000e+000
         vertex 7.138419e+001 -4.788104e+000 0.000000e+000
         vertex 6.900000e+001 -6.000000e+000 0.000000e+000
      endloop
   endfacet
   facet normal 0.000000e+000 -0.000000e+000 -1.000000e+000
      outer loop
         vertex 8.059483e+001 -2.167450e+000 0.000000e+000
         vertex 8.100000e+001 0.000000e+000 0.000000e+000
         vertex 8.260845e+001 -2.472136e+000 0.000000e+000
      endloop
   endfacet
   facet normal 0.000000e+000 0.000000e+000 -1.000000e+000
      outer loop
         vertex 7.943405e+001 4.042174e+000 0.000000e+000
         vertex 7.767443e+001 5.370980e+000 0.000000e+000
         vertex 7.970229e+001 6.472136e+000 0.000000e+000
      endloop
   endfacet
   facet normal 0.000000e+000 0.000000e+000 -1.000000e+000
      outer loop
         vertex 8.260845e+001 -2.472136e+000 0.000000e+000
         vertex 8.147214e+001 -4.702282e+000 0.000000e+000
         vertex 8.059483e+001 -2.167450e+000 0.000000e+000
      endloop
   endfacet
   facet normal 0.000000e+000 0.000000e+000 -1.000000e+000
      outer loop
         vertex 6.910216e+001 -1.102497e+000 0.000000e+000
         vertex 6.900000e+001 6.000000e+000 0.000000e+000
         vertex 6.910216e+001 1.102497e+000 0.000000e+000
      endloop
   endfacet
   facet normal -0.000000e+000 0.000000e+000 -1.000000e+000
      outer loop
         vertex 7.970229e+001 6.472136e+000 0.000000e+000
         vertex 8.147214e+001 4.702282e+000 0.000000e+000
         vertex 7.943405e+001 4.042174e+000 0.000000e+000
      endloop
   endfacet
   facet normal 0.000000e+000 0.000000e+000 -1.000000e+000
      outer loop
         vertex 7.335802e+001 -5.770954e+000 0.000000e+000
         vertex 7.500000e+001 -8.000000e+000 0.000000e+000
         vertex 6.900000e+001 -8.000000e+000 0.000000e+000
      endloop
   endfacet
   facet normal 0.000000e+000 -0.000000e+000 -1.000000e+000
      outer loop
         vertex 8.100000e+001 0.000000e+000 0.000000e+000
         vertex 8.260845e+001 2.472136e+000 0.000000e+000
         vertex 8.300000e+001 -4.754476e-015 0.000000e+000
      endloop
   endfacet
   facet normal 0.000000e+000 0.000000e+000 -1.000000e+000
      outer loop
         vertex 7.138419e+001 4.788104e+000 0.000000e+000
         vertex 6.900000e+001 6.000000e+000 0.000000e+000
         vertex 6.900000e+001 8.000000e+000 0.000000e+000
      endloop
   endfacet
   facet normal 0.000000e+000 0.000000e+000 -1.000000e+000
      outer loop
         vertex 7.500000e+001 -8.000000e+000 0.000000e+000
         vertex 7.335802e+001 -5.770954e+000 0.000000e+000
         vertex 7.555361e+001 -5.974405e+000 0.000000e+000
      endloop
   endfacet
   facet normal -0.000000e+000 0.000000e+000 -1.000000e+000
      outer loop
         vertex 7.500000e+001 8.000000e+000 0.000000e+000
         vertex 7.555361e+001 5.974405e+000 0.000000e+000
         vertex 7.335802e+001 5.770954e+000 0.000000e+000
      endloop
   endfacet
   facet normal 0.000000e+000 -0.000000e+000 -1.000000e+000
      outer loop
         vertex 7.767443e+001 -5.370980e+000 0.000000e+000
         vertex 7.943405e+001 -4.042174e+000 0.000000e+000
         vertex 7.970229e+001 -6.472136e+000 0.000000e+000
      endloop
   endfacet
   facet normal 0.000000e+000 0.000000e+000 -1.000000e+000
      outer loop
         vertex 7.138419e+001 4.788104e+000 0.000000e+000
         vertex 6.989870e+001 3.158593e+000 0.000000e+000
         vertex 6.900000e+001 6.000000e+000 0.000000e+000
      endloop
   endfacet
   facet normal 0.000000e+000 0.000000e+000 -1.000000e+000
      outer loop
         vertex 7.747214e+001 7.608452e+000 0.000000e+000
         vertex 7.555361e+001 5.974405e+000 0.000000e+000
         vertex 7.500000e+001 8.000000e+000 0.000000e+000
      endloop
   endfacet
   facet normal -0.000000e+000 0.000000e+000 -1.000000e+000
      outer loop
         vertex 7.767443e+001 -5.370980e+000 0.000000e+000
         vertex 7.970229e+001 -6.472136e+000 0.000000e+000
         vertex 7.747214e+001 -7.608452e+000 0.000000e+000
      endloop
   endfacet
   facet normal 0.000000e+000 0.000000e+000 -1.000000e+000
      outer loop
         vertex 8.100000e+001 0.000000e+000 0.000000e+000
         vertex 8.059483e+001 2.167450e+000 0.000000e+000
         vertex 8.260845e+001 2.472136e+000 0.000000e+000
      endloop
   endfacet
   facet normal -0.000000e+000 -1.000000e+000 -0.000000e+000
      outer loop
         vertex 7.500000e+001 -1.000000e+001 2.000000e+000
         vertex 7.500000e+001 -1.000000e+001 1.800000e+001
         vertex -7.042751e-016 -1.000000e+001 1.800000e+001
      endloop
   endfacet
   facet normal 0.000000e+000 -1.000000e+000 0.000000e+000
      outer loop
         vertex -7.042751e-016 -1.000000e+001 2.000000e+000
         vertex 7.500000e+001 -1.000000e+001 2.000000e+000
         vertex -7.042751e-016 -1.000000e+001 1.800000e+001
      endloop
   endfacet
   facet normal 0.000000e+000 0.000000e+000 1.000000e+000
      outer loop
         vertex -5.409888e-016 -8.000000e+000 2.000000e+001
         vertex 6.900000e+001 -8.000000e+000 2.000000e+001
         vertex 0.000000e+000 -6.000000e+000 2.000000e+001
      endloop
   endfacet
   facet normal 0.000000e+000 -0.000000e+000 1.000000e+000
      outer loop
         vertex 0.000000e+000 -6.000000e+000 2.000000e+001
         vertex 6.900000e+001 -8.000000e+000 2.000000e+001
         vertex 6.900000e+001 -6.000000e+000 2.000000e+001
      endloop
   endfacet
   facet normal 0.000000e+000 0.000000e+000 1.000000e+000
      outer loop
         vertex 0.000000e+000 -6.000000e+000 2.000000e+001
         vertex 6.900000e+001 -6.000000e+000 2.000000e+001
         vertex 0.000000e+000 6.000000e+000 2.000000e+001
      endloop
   endfacet
   facet normal 0.000000e+000 -0.000000e+000 1.000000e+000
      outer loop
         vertex 0.000000e+000 6.000000e+000 2.000000e+001
         vertex 6.900000e+001 -6.000000e+000 2.000000e+001
         vertex 6.900000e+001 6.000000e+000 2.000000e+001
      endloop
   endfacet
   facet normal 0.000000e+000 0.000000e+000 1.000000e+000
      outer loop
         vertex 0.000000e+000 6.000000e+000 2.000000e+001
         vertex 6.900000e+001 6.000000e+000 2.000000e+001
         vertex -6.120349e-015 8.000000e+000 2.000000e+001
      endloop
   endfacet
   facet normal 0.000000e+000 -0.000000e+000 1.000000e+000
      outer loop
         vertex -6.120349e-015 8.000000e+000 2.000000e+001
         vertex 6.900000e+001 6.000000e+000 2.000000e+001
         vertex 6.900000e+001 8.000000e+000 2.000000e+001
      endloop
   endfacet
   facet normal 0.000000e+000 0.000000e+000 1.000000e+000
      outer loop
         vertex 6.900000e+001 -6.000000e+000 2.000000e+001
         vertex 6.900000e+001 -8.000000e+000 2.000000e+001
         vertex 7.138419e+001 -4.788104e+000 2.000000e+001
      endloop
   endfacet
   facet normal 0.000000e+000 0.000000e+000 1.000000e+000
      outer loop
         vertex 7.500000e+001 -8.000000e+000 2.000000e+001
         vertex 7.747214e+001 -7.608452e+000 2.000000e+001
         vertex 7.555361e+001 -5.974405e+000 2.000000e+001
      endloop
   endfacet
   facet normal 0.000000e+000 0.000000e+000 1.000000e+000
      outer loop
         vertex 7.970229e+001 -6.472136e+000 2.000000e+001
         vertex 8.147214e+001 -4.702282e+000 2.000000e+001
         vertex 7.943405e+001 -4.042174e+000 2.000000e+001
      endloop
   endfacet
   facet normal 0.000000e+000 0.000000e+000 1.000000e+000
      outer loop
         vertex 8.260845e+001 -2.472136e+000 2.000000e+001
         vertex 8.300000e+001 -4.754476e-015 2.000000e+001
         vertex 8.100000e+001 0.000000e+000 2.000000e+001
      endloop
   endfacet
   facet normal 0.000000e+000 0.000000e+000 1.000000e+000
      outer loop
         vertex 8.260845e+001 2.472136e+000 2.000000e+001
         vertex 8.147214e+001 4.702282e+000 2.000000e+001
         vertex 8.059483e+001 2.167450e+000 2.000000e+001
      endloop
   endfacet
   facet normal 0.000000e+000 0.000000e+000 1.000000e+000
      outer loop
         vertex 7.970229e+001 6.472136e+000 2.000000e+001
         vertex 7.747214e+001 7.608452e+000 2.000000e+001
         vertex 7.767443e+001 5.370980e+000 2.000000e+001
      endloop
   endfacet
   facet normal -0.000000e+000 0.000000e+000 1.000000e+000
      outer loop
         vertex 7.500000e+001 8.000000e+000 2.000000e+001
         vertex 6.900000e+001 8.000000e+000 2.000000e+001
         vertex 7.335802e+001 5.770954e+000 2.000000e+001
      endloop
   endfacet
   facet normal 0.000000e+000 0.000000e+000 1.000000e+000
      outer loop
         vertex 6.900000e+001 6.000000e+000 2.000000e+001
         vertex 6.900000e+001 -6.000000e+000 2.000000e+001
         vertex 6.910216e+001 -1.102497e+000 2.000000e+001
      endloop
   endfacet
   facet normal -0.000000e+000 0.000000e+000 1.000000e+000
      outer loop
         vertex 8.100000e+001 0.000000e+000 2.000000e+001
         vertex 8.059483e+001 -2.167450e+000 2.000000e+001
         vertex 8.260845e+001 -2.472136e+000 2.000000e+001
      endloop
   endfacet
   facet normal -0.000000e+000 0.000000e+000 1.000000e+000
      outer loop
         vertex 7.943405e+001 -4.042174e+000 2.000000e+001
         vertex 7.767443e+001 -5.370980e+000 2.000000e+001
         vertex 7.970229e+001 -6.472136e+000 2.000000e+001
      endloop
   endfacet
   facet normal 0.000000e+000 0.000000e+000 1.000000e+000
      outer loop
         vertex 7.555361e+001 -5.974405e+000 2.000000e+001
         vertex 7.335802e+001 -5.770954e+000 2.000000e+001
         vertex 7.500000e+001 -8.000000e+000 2.000000e+001
      endloop
   endfacet
   facet normal 0.000000e+000 0.000000e+000 1.000000e+000
      outer loop
         vertex 7.138419e+001 -4.788104e+000 2.000000e+001
         vertex 6.989870e+001 -3.158593e+000 2.000000e+001
         vertex 6.900000e+001 -6.000000e+000 2.000000e+001
      endloop
   endfacet
   facet normal 0.000000e+000 0.000000e+000 1.000000e+000
      outer loop
         vertex 6.910216e+001 -1.102497e+000 2.000000e+001
         vertex 6.910216e+001 1.102497e+000 2.000000e+001
         vertex 6.900000e+001 6.000000e+000 2.000000e+001
      endloop
   endfacet
   facet normal 0.000000e+000 0.000000e+000 1.000000e+000
      outer loop
         vertex 6.989870e+001 3.158593e+000 2.000000e+001
         vertex 7.138419e+001 4.788104e+000 2.000000e+001
         vertex 6.900000e+001 6.000000e+000 2.000000e+001
      endloop
   endfacet
   facet normal 0.000000e+000 0.000000e+000 1.000000e+000
      outer loop
         vertex 7.335802e+001 5.770954e+000 2.000000e+001
         vertex 7.555361e+001 5.974405e+000 2.000000e+001
         vertex 7.500000e+001 8.000000e+000 2.000000e+001
      endloop
   endfacet
   facet normal 0.000000e+000 -0.000000e+000 1.000000e+000
      outer loop
         vertex 7.767443e+001 5.370980e+000 2.000000e+001
         vertex 7.943405e+001 4.042174e+000 2.000000e+001
         vertex 7.970229e+001 6.472136e+000 2.000000e+001
      endloop
   endfacet
   facet normal 0.000000e+000 0.000000e+000 1.000000e+000
      outer loop
         vertex 7.138419e+001 -4.788104e+000 2.000000e+001
         vertex 6.900000e+001 -8.000000e+000 2.000000e+001
         vertex 7.335802e+001 -5.770954e+000 2.000000e+001
      endloop
   endfacet
   facet normal 0.000000e+000 0.000000e+000 1.000000e+000
      outer loop
         vertex 8.100000e+001 0.000000e+000 2.000000e+001
         vertex 8.300000e+001 -4.754476e-015 2.000000e+001
         vertex 8.260845e+001 2.472136e+000 2.000000e+001
      endloop
   endfacet
   facet normal 0.000000e+000 0.000000e+000 1.000000e+000
      outer loop
         vertex 7.767443e+001 5.370980e+000 2.000000e+001
         vertex 7.747214e+001 7.608452e+000 2.000000e+001
         vertex 7.555361e+001 5.974405e+000 2.000000e+001
      endloop
   endfacet
   facet normal 0.000000e+000 0.000000e+000 1.000000e+000
      outer loop
         vertex 8.260845e+001 -2.472136e+000 2.000000e+001
         vertex 8.059483e+001 -2.167450e+000 2.000000e+001
         vertex 8.147214e+001 -4.702282e+000 2.000000e+001
      endloop
   endfacet
   facet normal 0.000000e+000 0.000000e+000 1.000000e+000
      outer loop
         vertex 6.900000e+001 -6.000000e+000 2.000000e+001
         vertex 6.989870e+001 -3.158593e+000 2.000000e+001
         vertex 6.910216e+001 -1.102497e+000 2.000000e+001
      endloop
   endfacet
   facet normal 0.000000e+000 -0.000000e+000 1.000000e+000
      outer loop
         vertex 7.500000e+001 8.000000e+000 2.000000e+001
         vertex 7.555361e+001 5.974405e+000 2.000000e+001
         vertex 7.747214e+001 7.608452e+000 2.000000e+001
      endloop
   endfacet
   facet normal 0.000000e+000 0.000000e+000 1.000000e+000
      outer loop
         vertex 8.100000e+001 0.000000e+000 2.000000e+001
         vertex 8.260845e+001 2.472136e+000 2.000000e+001
         vertex 8.059483e+001 2.167450e+000 2.000000e+001
      endloop
   endfacet
   facet normal 0.000000e+000 0.000000e+000 1.000000e+000
      outer loop
         vertex 6.900000e+001 -8.000000e+000 2.000000e+001
         vertex 7.500000e+001 -8.000000e+000 2.000000e+001
         vertex 7.335802e+001 -5.770954e+000 2.000000e+001
      endloop
   endfacet
   facet normal 0.000000e+000 0.000000e+000 1.000000e+000
      outer loop
         vertex 8.147214e+001 4.702282e+000 2.000000e+001
         vertex 7.970229e+001 6.472136e+000 2.000000e+001
         vertex 7.943405e+001 4.042174e+000 2.000000e+001
      endloop
   endfacet
   facet normal -0.000000e+000 0.000000e+000 1.000000e+000
      outer loop
         vertex 8.059483e+001 -2.167450e+000 2.000000e+001
         vertex 7.943405e+001 -4.042174e+000 2.000000e+001
         vertex 8.147214e+001 -4.702282e+000 2.000000e+001
      endloop
   endfacet
   facet normal 0.000000e+000 0.000000e+000 1.000000e+000
      outer loop
         vertex 6.910216e+001 1.102497e+000 2.000000e+001
         vertex 6.989870e+001 3.158593e+000 2.000000e+001
         vertex 6.900000e+001 6.000000e+000 2.000000e+001
      endloop
   endfacet
   facet normal 0.000000e+000 -0.000000e+000 1.000000e+000
      outer loop
         vertex 7.943405e+001 4.042174e+000 2.000000e+001
         vertex 8.059483e+001 2.167450e+000 2.000000e+001
         vertex 8.147214e+001 4.702282e+000 2.000000e+001
      endloop
   endfacet
   facet normal 0.000000e+000 0.000000e+000 1.000000e+000
      outer loop
         vertex 7.335802e+001 5.770954e+000 2.000000e+001
         vertex 6.900000e+001 8.000000e+000 2.000000e+001
         vertex 7.138419e+001 4.788104e+000 2.000000e+001
      endloop
   endfacet
   facet normal 0.000000e+000 0.000000e+000 1.000000e+000
      outer loop
         vertex 7.138419e+001 4.788104e+000 2.000000e+001
         vertex 6.900000e+001 8.000000e+000 2.000000e+001
         vertex 6.900000e+001 6.000000e+000 2.000000e+001
      endloop
   endfacet
   facet normal 0.000000e+000 0.000000e+000 1.000000e+000
      outer loop
         vertex 7.747214e+001 -7.608452e+000 2.000000e+001
         vertex 7.970229e+001 -6.472136e+000 2.000000e+001
         vertex 7.767443e+001 -5.370980e+000 2.000000e+001
      endloop
   endfacet
   facet normal 0.000000e+000 -0.000000e+000 1.000000e+000
      outer loop
         vertex 7.555361e+001 -5.974405e+000 2.000000e+001
         vertex 7.747214e+001 -7.608452e+000 2.000000e+001
         vertex 7.767443e+001 -5.370980e+000 2.000000e+001
      endloop
   endfacet
   facet normal -0.000000e+000 1.000000e+000 0.000000e+000
      outer loop
         vertex -6.901320e-015 1.000000e+001 2.000000e+000
         vertex -9.269796e-015 1.000000e+001 1.800000e+001
         vertex 7.500000e+001 1.000000e+001 1.800000e+001
      endloop
   endfacet
   facet normal 0.000000e+000 1.000000e+000 0.000000e+000
      outer loop
         vertex 7.500000e+001 1.000000e+001 2.000000e+000
         vertex -6.901320e-015 1.000000e+001 2.000000e+000
         vertex 7.500000e+001 1.000000e+001 1.800000e+001
      endloop
   endfacet
   facet normal -1.000000e+000 -0.000000e+000 -0.000000e+000
      outer loop
         vertex 2.100000e+001 -3.000000e+000 1.300000e+001
         vertex 2.100000e+001 3.000000e+000 1.300000e+001
         vertex 2.100000e+001 3.000000e+000 7.000000e+000
      endloop
   endfacet
   facet normal -1.000000e+000 0.000000e+000 0.000000e+000
      outer loop
         vertex 2.100000e+001 -3.000000e+000 7.000000e+000
         vertex 2.100000e+001 -3.000000e+000 1.300000e+001
         vertex 2.100000e+001 3.000000e+000 7.000000e+000
      endloop
   endfacet
   facet normal 1.423150e-001 9.898214e-001 0.000000e+000
      outer loop
         vertex 7.500000e+001 1.000000e+001 2.000000e+000
         vertex 7.500000e+001 1.000000e+001 1.800000e+001
         vertex 7.781732e+001 9.594930e+000 1.800000e+001
      endloop
   endfacet
   facet normal 6.548613e-001 7.557491e-001 0.000000e+000
      outer loop
         vertex 8.040641e+001 8.412536e+000 1.800000e+001
         vertex 8.255750e+001 6.548607e+000 1.800000e+001
         vertex 8.255750e+001 6.548607e+000 2.000000e+000
      endloop
   endfacet
   facet normal 9.594929e-001 2.817328e-001 0.000000e+000
      outer loop
         vertex 8.409632e+001 4.154150e+000 1.800000e+001
         vertex 8.489822e+001 1.423148e+000 1.800000e+001
         vertex 8.489822e+001 1.423148e+000 2.000000e+000
      endloop
   endfacet
   facet normal 9.594929e-001 -2.817328e-001 0.000000e+000
      outer loop
         vertex 8.489822e+001 -1.423148e+000 1.800000e+001
         vertex 8.409632e+001 -4.154150e+000 1.800000e+001
         vertex 8.409632e+001 -4.154150e+000 2.000000e+000
      endloop
   endfacet
   facet normal 6.548613e-001 -7.557491e-001 0.000000e+000
      outer loop
         vertex 8.255750e+001 -6.548607e+000 1.800000e+001
         vertex 8.040641e+001 -8.412536e+000 1.800000e+001
         vertex 8.040641e+001 -8.412536e+000 2.000000e+000
      endloop
   endfacet
   facet normal 1.423150e-001 -9.898214e-001 0.000000e+000
      outer loop
         vertex 7.781732e+001 -9.594930e+000 1.800000e+001
         vertex 7.500000e+001 -1.000000e+001 1.800000e+001
         vertex 7.781732e+001 -9.594930e+000 2.000000e+000
      endloop
   endfacet
   facet normal 1.423150e-001 -9.898214e-001 0.000000e+000
      outer loop
         vertex 7.500000e+001 -1.000000e+001 2.000000e+000
         vertex 7.781732e+001 -9.594930e+000 2.000000e+000
         vertex 7.500000e+001 -1.000000e+001 1.800000e+001
      endloop
   endfacet
   facet normal 8.412533e-001 -5.406412e-001 0.000000e+000
      outer loop
         vertex 8.255750e+001 -6.548607e+000 2.000000e+000
         vertex 8.409632e+001 -4.154150e+000 2.000000e+000
         vertex 8.409632e+001 -4.154150e+000 1.800000e+001
      endloop
   endfacet
   facet normal 1.000000e+000 0.000000e+000 -0.000000e+000
      outer loop
         vertex 8.489822e+001 -1.423148e+000 2.000000e+000
         vertex 8.489822e+001 1.423148e+000 2.000000e+000
         vertex 8.489822e+001 1.423148e+000 1.800000e+001
      endloop
   endfacet
   facet normal 8.412533e-001 5.406412e-001 -0.000000e+000
      outer loop
         vertex 8.409632e+001 4.154150e+000 2.000000e+000
         vertex 8.255750e+001 6.548607e+000 2.000000e+000
         vertex 8.255750e+001 6.548607e+000 1.800000e+001
      endloop
   endfacet
   facet normal 4.154141e-001 9.096324e-001 -0.000000e+000
      outer loop
         vertex 8.040641e+001 8.412536e+000 2.000000e+000
         vertex 7.781732e+001 9.594930e+000 2.000000e+000
         vertex 7.781732e+001 9.594930e+000 1.800000e+001
      endloop
   endfacet
   facet normal 1.423150e-001 9.898214e-001 0.000000e+000
      outer loop
         vertex 7.500000e+001 1.000000e+001 2.000000e+000
         vertex 7.781732e+001 9.594930e+000 1.800000e+001
         vertex 7.781732e+001 9.594930e+000 2.000000e+000
      endloop
   endfacet
   facet normal 9.594929e-001 -2.817328e-001 0.000000e+000
      outer loop
         vertex 8.489822e+001 -1.423148e+000 1.800000e+001
         vertex 8.409632e+001 -4.154150e+000 2.000000e+000
         vertex 8.489822e+001 -1.423148e+000 2.000000e+000
      endloop
   endfacet
   facet normal 4.154141e-001 -9.096324e-001 0.000000e+000
      outer loop
         vertex 7.781732e+001 -9.594930e+000 1.800000e+001
         vertex 7.781732e+001 -9.594930e+000 2.000000e+000
         vertex 8.040641e+001 -8.412536e+000 1.800000e+001
      endloop
   endfacet
   facet normal 8.412533e-001 5.406412e-001 0.000000e+000
      outer loop
         vertex 8.409632e+001 4.154150e+000 2.000000e+000
         vertex 8.255750e+001 6.548607e+000 1.800000e+001
         vertex 8.409632e+001 4.154150e+000 1.800000e+001
      endloop
   endfacet
   facet normal 4.154141e-001 -9.096324e-001 0.000000e+000
      outer loop
         vertex 8.040641e+001 -8.412536e+000 1.800000e+001
         vertex 7.781732e+001 -9.594930e+000 2.000000e+000
         vertex 8.040641e+001 -8.412536e+000 2.000000e+000
      endloop
   endfacet
   facet normal 4.154141e-001 9.096324e-001 0.000000e+000
      outer loop
         vertex 7.781732e+001 9.594930e+000 1.800000e+001
         vertex 8.040641e+001 8.412536e+000 1.800000e+001
         vertex 8.040641e+001 8.412536e+000 2.000000e+000
      endloop
   endfacet
   facet normal 8.412533e-001 -5.406412e-001 0.000000e+000
      outer loop
         vertex 8.409632e+001 -4.154150e+000 1.800000e+001
         vertex 8.255750e+001 -6.548607e+000 1.800000e+001
         vertex 8.255750e+001 -6.548607e+000 2.000000e+000
      endloop
   endfacet
   facet normal 9.594929e-001 2.817328e-001 -0.000000e+000
      outer loop
         vertex 8.489822e+001 1.423148e+000 2.000000e+000
         vertex 8.409632e+001 4.154150e+000 2.000000e+000
         vertex 8.409632e+001 4.154150e+000 1.800000e+001
      endloop
   endfacet
   facet normal 6.548613e-001 7.557491e-001 0.000000e+000
      outer loop
         vertex 8.040641e+001 8.412536e+000 1.800000e+001
         vertex 8.255750e+001 6.548607e+000 2.000000e+000
         vertex 8.040641e+001 8.412536e+000 2.000000e+000
      endloop
   endfacet
   facet normal 1.000000e+000 0.000000e+000 0.000000e+000
      outer loop
         vertex 8.489822e+001 -1.423148e+000 1.800000e+001
         vertex 8.489822e+001 -1.423148e+000 2.000000e+000
         vertex 8.489822e+001 1.423148e+000 1.800000e+001
      endloop
   endfacet
   facet normal 6.548613e-001 -7.557491e-001 0.000000e+000
      outer loop
         vertex 8.040641e+001 -8.412536e+000 2.000000e+000
         vertex 8.255750e+001 -6.548607e+000 2.000000e+000
         vertex 8.255750e+001 -6.548607e+000 1.800000e+001
      endloop
   endfacet
   facet normal -9.829731e-001 -1.837495e-001 0.000000e+000
      outer loop
         vertex 8.059483e+001 2.167450e+000 0.000000e+000
         vertex 8.100000e+001 0.000000e+000 0.000000e+000
         vertex 8.100000e+001 0.000000e+000 2.000000e+001
      endloop
   endfacet
   facet normal -6.026352e-001 -7.980168e-001 0.000000e+000
      outer loop
         vertex 7.767443e+001 5.370980e+000 2.000000e+001
         vertex 7.767443e+001 5.370980e+000 0.000000e+000
         vertex 7.943405e+001 4.042174e+000 0.000000e+000
      endloop
   endfacet
   facet normal 9.226859e-002 -9.957342e-001 0.000000e+000
      outer loop
         vertex 7.335802e+001 5.770954e+000 2.000000e+001
         vertex 7.335802e+001 5.770954e+000 0.000000e+000
         vertex 7.555361e+001 5.974405e+000 0.000000e+000
      endloop
   endfacet
   facet normal 7.390086e-001 -6.736960e-001 0.000000e+000
      outer loop
         vertex 6.989870e+001 3.158593e+000 2.000000e+001
         vertex 6.989870e+001 3.158593e+000 0.000000e+000
         vertex 7.138419e+001 4.788104e+000 0.000000e+000
      endloop
   endfacet
   facet normal 1.000000e+000 0.000000e+000 0.000000e+000
      outer loop
         vertex 6.910216e+001 -1.102497e+000 2.000000e+001
         vertex 6.910216e+001 -1.102497e+000 0.000000e+000
         vertex 6.910216e+001 1.102497e+000 0.000000e+000
      endloop
   endfacet
   facet normal 7.390086e-001 6.736960e-001 -0.000000e+000
      outer loop
         vertex 7.138419e+001 -4.788104e+000 2.000000e+001
         vertex 7.138419e+001 -4.788104e+000 0.000000e+000
         vertex 6.989870e+001 -3.158593e+000 0.000000e+000
      endloop
   endfacet
   facet normal 9.226859e-002 9.957342e-001 -0.000000e+000
      outer loop
         vertex 7.555361e+001 -5.974405e+000 2.000000e+001
         vertex 7.555361e+001 -5.974405e+000 0.000000e+000
         vertex 7.335802e+001 -5.770954e+000 0.000000e+000
      endloop
   endfacet
   facet normal -6.026352e-001 7.980168e-001 0.000000e+000
      outer loop
         vertex 7.943405e+001 -4.042174e+000 2.000000e+001
         vertex 7.943405e+001 -4.042174e+000 0.000000e+000
         vertex 7.767443e+001 -5.370980e+000 0.000000e+000
      endloop
   endfacet
   facet normal -9.829731e-001 1.837495e-001 0.000000e+000
      outer loop
         vertex 8.100000e+001 0.000000e+000 2.000000e+001
         vertex 8.100000e+001 0.000000e+000 0.000000e+000
         vertex 8.059483e+001 -2.167450e+000 0.000000e+000
      endloop
   endfacet
   facet normal -8.502167e-001 5.264328e-001 0.000000e+000
      outer loop
         vertex 7.943405e+001 -4.042174e+000 0.000000e+000
         vertex 7.943405e+001 -4.042174e+000 2.000000e+001
         vertex 8.059483e+001 -2.167450e+000 2.000000e+001
      endloop
   endfacet
   facet normal -2.736632e-001 9.618256e-001 0.000000e+000
      outer loop
         vertex 7.555361e+001 -5.974405e+000 0.000000e+000
         vertex 7.555361e+001 -5.974405e+000 2.000000e+001
         vertex 7.767443e+001 -5.370980e+000 2.000000e+001
      endloop
   endfacet
   facet normal 4.457380e-001 8.951635e-001 0.000000e+000
      outer loop
         vertex 7.138419e+001 -4.788104e+000 0.000000e+000
         vertex 7.138419e+001 -4.788104e+000 2.000000e+001
         vertex 7.335802e+001 -5.770954e+000 2.000000e+001
      endloop
   endfacet
   facet normal 9.324717e-001 3.612431e-001 0.000000e+000
      outer loop
         vertex 6.910216e+001 -1.102497e+000 0.000000e+000
         vertex 6.910216e+001 -1.102497e+000 2.000000e+001
         vertex 6.989870e+001 -3.158593e+000 2.000000e+001
      endloop
   endfacet
   facet normal 9.324717e-001 -3.612431e-001 0.000000e+000
      outer loop
         vertex 6.989870e+001 3.158593e+000 0.000000e+000
         vertex 6.989870e+001 3.158593e+000 2.000000e+001
         vertex 6.910216e+001 1.102497e+000 2.000000e+001
      endloop
   endfacet
   facet normal 4.457380e-001 -8.951635e-001 0.000000e+000
      outer loop
         vertex 7.335802e+001 5.770954e+000 0.000000e+000
         vertex 7.335802e+001 5.770954e+000 2.000000e+001
         vertex 7.138419e+001 4.788104e+000 2.000000e+001
      endloop
   endfacet
   facet normal -2.736632e-001 -9.618256e-001 -0.000000e+000
      outer loop
         vertex 7.767443e+001 5.370980e+000 0.000000e+000
         vertex 7.767443e+001 5.370980e+000 2.000000e+001
         vertex 7.555361e+001 5.974405e+000 2.000000e+001
      endloop
   endfacet
   facet normal -8.502167e-001 -5.264328e-001 -0.000000e+000
      outer loop
         vertex 8.059483e+001 2.167450e+000 0.000000e+000
         vertex 8.059483e+001 2.167450e+000 2.000000e+001
         vertex 7.943405e+001 4.042174e+000 2.000000e+001
      endloop
   endfacet
   facet normal -9.829731e-001 -1.837495e-001 0.000000e+000
      outer loop
         vertex 8.059483e+001 2.167450e+000 2.000000e+001
         vertex 8.059483e+001 2.167450e+000 0.000000e+000
         vertex 8.100000e+001 0.000000e+000 2.000000e+001
      endloop
   endfacet
   facet normal 7.390086e-001 -6.736960e-001 0.000000e+000
      outer loop
         vertex 7.138419e+001 4.788104e+000 2.000000e+001
         vertex 6.989870e+001 3.158593e+000 2.000000e+001
         vertex 7.138419e+001 4.788104e+000 0.000000e+000
      endloop
   endfacet
   facet normal 9.226859e-002 9.957342e-001 0.000000e+000
      outer loop
         vertex 7.335802e+001 -5.770954e+000 2.000000e+001
         vertex 7.555361e+001 -5.974405e+000 2.000000e+001
         vertex 7.335802e+001 -5.770954e+000 0.000000e+000
      endloop
   endfacet
   facet normal -8.502167e-001 5.264328e-001 0.000000e+000
      outer loop
         vertex 8.059483e+001 -2.167450e+000 0.000000e+000
         vertex 7.943405e+001 -4.042174e+000 0.000000e+000
         vertex 8.059483e+001 -2.167450e+000 2.000000e+001
      endloop
   endfacet
   facet normal 9.324717e-001 3.612431e-001 0.000000e+000
      outer loop
         vertex 6.989870e+001 -3.158593e+000 0.000000e+000
         vertex 6.910216e+001 -1.102497e+000 0.000000e+000
         vertex 6.989870e+001 -3.158593e+000 2.000000e+001
      endloop
   endfacet
   facet normal -2.736632e-001 -9.618256e-001 0.000000e+000
      outer loop
         vertex 7.555361e+001 5.974405e+000 0.000000e+000
         vertex 7.767443e+001 5.370980e+000 0.000000e+000
         vertex 7.555361e+001 5.974405e+000 2.000000e+001
      endloop
   endfacet
   facet normal 4.457380e-001 8.951635e-001 0.000000e+000
      outer loop
         vertex 7.138419e+001 -4.788104e+000 0.000000e+000
         vertex 7.335802e+001 -5.770954e+000 2.000000e+001
         vertex 7.335802e+001 -5.770954e+000 0.000000e+000
      endloop
   endfacet
   facet normal -8.502167e-001 -5.264328e-001 0.000000e+000
      outer loop
         vertex 7.943405e+001 4.042174e+000 2.000000e+001
         vertex 7.943405e+001 4.042174e+000 0.000000e+000
         vertex 8.059483e+001 2.167450e+000 0.000000e+000
      endloop
   endfacet
   facet normal 9.324717e-001 -3.612431e-001 0.000000e+000
      outer loop
         vertex 6.910216e+001 1.102497e+000 2.000000e+001
         vertex 6.910216e+001 1.102497e+000 0.000000e+000
         vertex 6.989870e+001 3.158593e+000 0.000000e+000
      endloop
   endfacet
   facet normal -9.829731e-001 1.837495e-001 0.000000e+000
      outer loop
         vertex 8.059483e+001 -2.167450e+000 0.000000e+000
         vertex 8.059483e+001 -2.167450e+000 2.000000e+001
         vertex 8.100000e+001 0.000000e+000 2.000000e+001
      endloop
   endfacet
   facet normal 7.390086e-001 6.736960e-001 0.000000e+000
      outer loop
         vertex 6.989870e+001 -3.158593e+000 0.000000e+000
         vertex 6.989870e+001 -3.158593e+000 2.000000e+001
         vertex 7.138419e+001 -4.788104e+000 2.000000e+001
      endloop
   endfacet
   facet normal 9.226859e-002 -9.957342e-001 0.000000e+000
      outer loop
         vertex 7.555361e+001 5.974405e+000 0.000000e+000
         vertex 7.555361e+001 5.974405e+000 2.000000e+001
         vertex 7.335802e+001 5.770954e+000 2.000000e+001
      endloop
   endfacet
   facet normal -6.026352e-001 -7.980168e-001 0.000000e+000
      outer loop
         vertex 7.943405e+001 4.042174e+000 2.000000e+001
         vertex 7.767443e+001 5.370980e+000 2.000000e+001
         vertex 7.943405e+001 4.042174e+000 0.000000e+000
      endloop
   endfacet
   facet normal -2.736632e-001 9.618256e-001 0.000000e+000
      outer loop
         vertex 7.767443e+001 -5.370980e+000 0.000000e+000
         vertex 7.555361e+001 -5.974405e+000 0.000000e+000
         vertex 7.767443e+001 -5.370980e+000 2.000000e+001
      endloop
   endfacet
   facet normal 1.000000e+000 0.000000e+000 -0.000000e+000
      outer loop
         vertex 6.910216e+001 -1.102497e+000 2.000000e+001
         vertex 6.910216e+001 1.102497e+000 0.000000e+000
         vertex 6.910216e+001 1.102497e+000 2.000000e+001
      endloop
   endfacet
   facet normal 4.457380e-001 -8.951635e-001 0.000000e+000
      outer loop
         vertex 7.138419e+001 4.788104e+000 2.000000e+001
         vertex 7.138419e+001 4.788104e+000 0.000000e+000
         vertex 7.335802e+001 5.770954e+000 0.000000e+000
      endloop
   endfacet
   facet normal -6.026352e-001 7.980168e-001 0.000000e+000
      outer loop
         vertex 7.767443e+001 -5.370980e+000 2.000000e+001
         vertex 7.943405e+001 -4.042174e+000 2.000000e+001
         vertex 7.767443e+001 -5.370980e+000 0.000000e+000
      endloop
   endfacet
   facet normal 0.000000e+000 -9.659258e-001 -2.588190e-001
      outer loop
         vertex -7.042751e-016 -1.000000e+001 2.000000e+000
         vertex 7.500000e+001 -9.732051e+000 1.000000e+000
         vertex 7.500000e+001 -1.000000e+001 2.000000e+000
      endloop
   endfacet
   facet normal 0.000000e+000 -2.588190e-001 -9.659258e-001
      outer loop
         vertex -7.196347e-016 -9.000000e+000 2.679492e-001
         vertex 7.500000e+001 -8.000000e+000 0.000000e+000
         vertex 7.500000e+001 -9.000000e+000 2.679492e-001
      endloop
   endfacet
   facet normal 0.000000e+000 -2.588190e-001 -9.659258e-001
      outer loop
         vertex 7.500000e+001 -8.000000e+000 0.000000e+000
         vertex -7.196347e-016 -9.000000e+000 2.679492e-001
         vertex -5.409888e-016 -8.000000e+000 0.000000e+000
      endloop
   endfacet
   facet normal -0.000000e+000 -9.659258e-001 -2.588190e-001
      outer loop
         vertex -7.420473e-016 -9.732051e+000 1.000000e+000
         vertex 7.500000e+001 -9.732051e+000 1.000000e+000
         vertex -7.042751e-016 -1.000000e+001 2.000000e+000
      endloop
   endfacet
   facet normal 0.000000e+000 -7.071067e-001 -7.071068e-001
      outer loop
         vertex -7.420473e-016 -9.732051e+000 1.000000e+000
         vertex 7.500000e+001 -9.000000e+000 2.679492e-001
         vertex 7.500000e+001 -9.732051e+000 1.000000e+000
      endloop
   endfacet
   facet normal 0.000000e+000 -7.071067e-001 -7.071068e-001
      outer loop
         vertex -7.420473e-016 -9.732051e+000 1.000000e+000
         vertex -7.196347e-016 -9.000000e+000 2.679492e-001
         vertex 7.500000e+001 -9.000000e+000 2.679492e-001
      endloop
   endfacet
   facet normal 2.952417e-001 -6.464889e-001 -7.034802e-001
      outer loop
         vertex 7.986577e+001 -7.571282e+000 2.679492e-001
         vertex 8.026154e+001 -8.187122e+000 1.000000e+000
         vertex 7.774184e+001 -9.337834e+000 1.000000e+000
      endloop
   endfacet
   facet normal 2.952410e-001 -6.464884e-001 -7.034810e-001
      outer loop
         vertex 7.753559e+001 -8.635437e+000 2.679492e-001
         vertex 7.986577e+001 -7.571282e+000 2.679492e-001
         vertex 7.774184e+001 -9.337834e+000 1.000000e+000
      endloop
   endfacet
   facet normal 4.654174e-001 -5.371210e-001 -7.034825e-001
      outer loop
         vertex 8.180174e+001 -5.893746e+000 2.679492e-001
         vertex 8.235500e+001 -6.373138e+000 1.000000e+000
         vertex 8.026154e+001 -8.187122e+000 1.000000e+000
      endloop
   endfacet
   facet normal 4.654201e-001 -5.371220e-001 -7.034799e-001
      outer loop
         vertex 7.986577e+001 -7.571282e+000 2.679492e-001
         vertex 8.180174e+001 -5.893746e+000 2.679492e-001
         vertex 8.026154e+001 -8.187122e+000 1.000000e+000
      endloop
   endfacet
   facet normal 5.978925e-001 -3.842416e-001 -7.034792e-001
      outer loop
         vertex 8.318669e+001 -3.738735e+000 2.679492e-001
         vertex 8.385258e+001 -4.042840e+000 1.000000e+000
         vertex 8.235500e+001 -6.373138e+000 1.000000e+000
      endloop
   endfacet
   facet normal 5.978880e-001 -3.842413e-001 -7.034832e-001
      outer loop
         vertex 8.180174e+001 -5.893746e+000 2.679492e-001
         vertex 8.318669e+001 -3.738735e+000 2.679492e-001
         vertex 8.235500e+001 -6.373138e+000 1.000000e+000
      endloop
   endfacet
   facet normal 6.819245e-001 -2.002319e-001 -7.034815e-001
      outer loop
         vertex 8.390839e+001 -1.280834e+000 2.679492e-001
         vertex 8.463300e+001 -1.385015e+000 1.000000e+000
         vertex 8.385258e+001 -4.042840e+000 1.000000e+000
      endloop
   endfacet
   facet normal 6.819273e-001 -2.002312e-001 -7.034789e-001
      outer loop
         vertex 8.318669e+001 -3.738735e+000 2.679492e-001
         vertex 8.390839e+001 -1.280834e+000 2.679492e-001
         vertex 8.385258e+001 -4.042840e+000 1.000000e+000
      endloop
   endfacet
   facet normal 7.107135e-001 0.000000e+000 -7.034816e-001
      outer loop
         vertex 8.390839e+001 1.280834e+000 2.679492e-001
         vertex 8.463300e+001 1.385015e+000 1.000000e+000
         vertex 8.463300e+001 -1.385015e+000 1.000000e+000
      endloop
   endfacet
   facet normal 7.107135e-001 0.000000e+000 -7.034816e-001
      outer loop
         vertex 8.390839e+001 -1.280834e+000 2.679492e-001
         vertex 8.390839e+001 1.280834e+000 2.679492e-001
         vertex 8.463300e+001 -1.385015e+000 1.000000e+000
      endloop
   endfacet
   facet normal 6.819268e-001 2.002326e-001 -7.034790e-001
      outer loop
         vertex 8.318669e+001 3.738735e+000 2.679492e-001
         vertex 8.385258e+001 4.042840e+000 1.000000e+000
         vertex 8.463300e+001 1.385015e+000 1.000000e+000
      endloop
   endfacet
   facet normal 6.819248e-001 2.002305e-001 -7.034816e-001
      outer loop
         vertex 8.390839e+001 1.280834e+000 2.679492e-001
         vertex 8.318669e+001 3.738735e+000 2.679492e-001
         vertex 8.463300e+001 1.385015e+000 1.000000e+000
      endloop
   endfacet
   facet normal 5.978893e-001 3.842395e-001 -7.034830e-001
      outer loop
         vertex 8.180174e+001 5.893746e+000 2.679492e-001
         vertex 8.235500e+001 6.373138e+000 1.000000e+000
         vertex 8.385258e+001 4.042840e+000 1.000000e+000
      endloop
   endfacet
   facet normal 5.978915e-001 3.842435e-001 -7.034790e-001
      outer loop
         vertex 8.318669e+001 3.738735e+000 2.679492e-001
         vertex 8.180174e+001 5.893746e+000 2.679492e-001
         vertex 8.385258e+001 4.042840e+000 1.000000e+000
      endloop
   endfacet
   facet normal 4.654190e-001 5.371229e-001 -7.034800e-001
      outer loop
         vertex 7.986577e+001 7.571282e+000 2.679492e-001
         vertex 8.026154e+001 8.187122e+000 1.000000e+000
         vertex 8.235500e+001 6.373138e+000 1.000000e+000
      endloop
   endfacet
   facet normal 4.654184e-001 5.371200e-001 -7.034826e-001
      outer loop
         vertex 8.180174e+001 5.893746e+000 2.679492e-001
         vertex 7.986577e+001 7.571282e+000 2.679492e-001
         vertex 8.235500e+001 6.373138e+000 1.000000e+000
      endloop
   endfacet
   facet normal 2.952414e-001 6.464882e-001 -7.034810e-001
      outer loop
         vertex 7.753559e+001 8.635437e+000 2.679492e-001
         vertex 7.774184e+001 9.337834e+000 1.000000e+000
         vertex 8.026154e+001 8.187122e+000 1.000000e+000
      endloop
   endfacet
   facet normal 2.952413e-001 6.464891e-001 -7.034802e-001
      outer loop
         vertex 7.986577e+001 7.571282e+000 2.679492e-001
         vertex 7.753559e+001 8.635437e+000 2.679492e-001
         vertex 8.026154e+001 8.187122e+000 1.000000e+000
      endloop
   endfacet
   facet normal 1.375591e-001 9.567433e-001 -2.563585e-001
      outer loop
         vertex 7.781732e+001 9.594930e+000 2.000000e+000
         vertex 7.500000e+001 9.732051e+000 1.000000e+000
         vertex 7.500000e+001 1.000000e+001 2.000000e+000
      endloop
   endfacet
   facet normal 3.718682e-002 2.586400e-001 -9.652577e-001
      outer loop
         vertex 7.753559e+001 8.635437e+000 2.679492e-001
         vertex 7.500000e+001 8.000000e+000 0.000000e+000
         vertex 7.500000e+001 9.000000e+000 2.679492e-001
      endloop
   endfacet
   facet normal 1.118993e-001 2.196149e-001 -9.691480e-001
      outer loop
         vertex 7.986577e+001 7.571282e+000 2.679492e-001
         vertex 7.970229e+001 6.472136e+000 0.000000e+000
         vertex 7.747214e+001 7.608452e+000 0.000000e+000
      endloop
   endfacet
   facet normal 2.126554e-001 1.083532e-001 -9.711011e-001
      outer loop
         vertex 8.318669e+001 3.738735e+000 2.679492e-001
         vertex 8.260845e+001 2.472136e+000 0.000000e+000
         vertex 8.147214e+001 4.702282e+000 0.000000e+000
      endloop
   endfacet
   facet normal 2.342431e-001 -3.710049e-002 -9.714699e-001
      outer loop
         vertex 8.390839e+001 -1.280834e+000 2.679492e-001
         vertex 8.260845e+001 -2.472136e+000 0.000000e+000
         vertex 8.300000e+001 -4.754476e-015 0.000000e+000
      endloop
   endfacet
   facet normal 1.709340e-001 -1.709338e-001 -9.703418e-001
      outer loop
         vertex 8.180174e+001 -5.893746e+000 2.679492e-001
         vertex 7.970229e+001 -6.472136e+000 0.000000e+000
         vertex 8.147214e+001 -4.702282e+000 0.000000e+000
      endloop
   endfacet
   facet normal 3.959106e-002 -2.499684e-001 -9.674442e-001
      outer loop
         vertex 7.753559e+001 -8.635437e+000 2.679492e-001
         vertex 7.500000e+001 -8.000000e+000 0.000000e+000
         vertex 7.747214e+001 -7.608452e+000 0.000000e+000
      endloop
   endfacet
   facet normal 1.011452e-001 -7.034805e-001 -7.034805e-001
      outer loop
         vertex 7.753559e+001 -8.635437e+000 2.679492e-001
         vertex 7.500000e+001 -9.732051e+000 1.000000e+000
         vertex 7.500000e+001 -9.000000e+000 2.679492e-001
      endloop
   endfacet
   facet normal 1.375591e-001 -9.567435e-001 -2.563580e-001
      outer loop
         vertex 7.774184e+001 -9.337834e+000 1.000000e+000
         vertex 7.781732e+001 -9.594930e+000 2.000000e+000
         vertex 7.500000e+001 -1.000000e+001 2.000000e+000
      endloop
   endfacet
   facet normal 6.329767e-001 -7.304930e-001 -2.563602e-001
      outer loop
         vertex 8.026154e+001 -8.187122e+000 1.000000e+000
         vertex 8.255750e+001 -6.548607e+000 2.000000e+000
         vertex 8.040641e+001 -8.412536e+000 2.000000e+000
      endloop
   endfacet
   facet normal 9.274281e-001 -2.723177e-001 -2.563595e-001
      outer loop
         vertex 8.385258e+001 -4.042840e+000 1.000000e+000
         vertex 8.489822e+001 -1.423148e+000 2.000000e+000
         vertex 8.409632e+001 -4.154150e+000 2.000000e+000
      endloop
   endfacet
   facet normal 9.274286e-001 2.723178e-001 -2.563575e-001
      outer loop
         vertex 8.463300e+001 1.385015e+000 1.000000e+000
         vertex 8.409632e+001 4.154150e+000 2.000000e+000
         vertex 8.489822e+001 1.423148e+000 2.000000e+000
      endloop
   endfacet
   facet normal 6.329767e-001 7.304930e-001 -2.563602e-001
      outer loop
         vertex 8.026154e+001 8.187122e+000 1.000000e+000
         vertex 8.040641e+001 8.412536e+000 2.000000e+000
         vertex 8.255750e+001 6.548607e+000 2.000000e+000
      endloop
   endfacet
   facet normal 4.015329e-001 -8.792341e-001 -2.563568e-001
      outer loop
         vertex 7.781732e+001 -9.594930e+000 2.000000e+000
         vertex 7.774184e+001 -9.337834e+000 1.000000e+000
         vertex 8.026154e+001 -8.187122e+000 1.000000e+000
      endloop
   endfacet
   facet normal 8.131405e-001 -5.225728e-001 -2.563594e-001
      outer loop
         vertex 8.409632e+001 -4.154150e+000 2.000000e+000
         vertex 8.235500e+001 -6.373138e+000 1.000000e+000
         vertex 8.385258e+001 -4.042840e+000 1.000000e+000
      endloop
   endfacet
   facet normal 9.665820e-001 0.000000e+000 -2.563575e-001
      outer loop
         vertex 8.489822e+001 1.423148e+000 2.000000e+000
         vertex 8.463300e+001 -1.385015e+000 1.000000e+000
         vertex 8.463300e+001 1.385015e+000 1.000000e+000
      endloop
   endfacet
   facet normal 8.131405e-001 5.225728e-001 -2.563594e-001
      outer loop
         vertex 8.409632e+001 4.154150e+000 2.000000e+000
         vertex 8.385258e+001 4.042840e+000 1.000000e+000
         vertex 8.235500e+001 6.373138e+000 1.000000e+000
      endloop
   endfacet
   facet normal 1.116213e-001 -2.444169e-001 -9.632243e-001
      outer loop
         vertex 7.747214e+001 -7.608452e+000 0.000000e+000
         vertex 7.986577e+001 -7.571282e+000 2.679492e-001
         vertex 7.753559e+001 -8.635437e+000 2.679492e-001
      endloop
   endfacet
   facet normal 2.349014e-001 -1.509627e-001 -9.602248e-001
      outer loop
         vertex 8.147214e+001 -4.702282e+000 0.000000e+000
         vertex 8.318669e+001 -3.738735e+000 2.679492e-001
         vertex 8.180174e+001 -5.893746e+000 2.679492e-001
      endloop
   endfacet
   facet normal 2.829189e-001 0.000000e+000 -9.591438e-001
      outer loop
         vertex 8.300000e+001 -4.754476e-015 0.000000e+000
         vertex 8.390839e+001 1.280834e+000 2.679492e-001
         vertex 8.390839e+001 -1.280834e+000 2.679492e-001
      endloop
   endfacet
   facet normal 2.349014e-001 1.509627e-001 -9.602248e-001
      outer loop
         vertex 8.147214e+001 4.702282e+000 0.000000e+000
         vertex 8.180174e+001 5.893746e+000 2.679492e-001
         vertex 8.318669e+001 3.738735e+000 2.679492e-001
      endloop
   endfacet
   facet normal 4.015326e-001 8.792333e-001 -2.563597e-001
      outer loop
         vertex 8.040641e+001 8.412536e+000 2.000000e+000
         vertex 8.026154e+001 8.187122e+000 1.000000e+000
         vertex 7.774184e+001 9.337834e+000 1.000000e+000
      endloop
   endfacet
   facet normal 1.799195e-001 2.076377e-001 -9.615173e-001
      outer loop
         vertex 7.970229e+001 6.472136e+000 0.000000e+000
         vertex 7.986577e+001 7.571282e+000 2.679492e-001
         vertex 8.180174e+001 5.893746e+000 2.679492e-001
      endloop
   endfacet
   facet normal 1.375589e-001 9.567435e-001 -2.563580e-001
      outer loop
         vertex 7.774184e+001 9.337834e+000 1.000000e+000
         vertex 7.500000e+001 9.732051e+000 1.000000e+000
         vertex 7.781732e+001 9.594930e+000 2.000000e+000
      endloop
   endfacet
   facet normal 3.959106e-002 2.499684e-001 -9.674442e-001
      outer loop
         vertex 7.747214e+001 7.608452e+000 0.000000e+000
         vertex 7.500000e+001 8.000000e+000 0.000000e+000
         vertex 7.753559e+001 8.635437e+000 2.679492e-001
      endloop
   endfacet
   facet normal 2.705643e-001 -7.944457e-002 -9.594183e-001
      outer loop
         vertex 8.318669e+001 -3.738735e+000 2.679492e-001
         vertex 8.260845e+001 -2.472136e+000 0.000000e+000
         vertex 8.390839e+001 -1.280834e+000 2.679492e-001
      endloop
   endfacet
   facet normal 3.718682e-002 -2.586400e-001 -9.652577e-001
      outer loop
         vertex 7.500000e+001 -8.000000e+000 0.000000e+000
         vertex 7.753559e+001 -8.635437e+000 2.679492e-001
         vertex 7.500000e+001 -9.000000e+000 2.679492e-001
      endloop
   endfacet
   facet normal 6.329763e-001 -7.304945e-001 -2.563567e-001
      outer loop
         vertex 8.235500e+001 -6.373138e+000 1.000000e+000
         vertex 8.255750e+001 -6.548607e+000 2.000000e+000
         vertex 8.026154e+001 -8.187122e+000 1.000000e+000
      endloop
   endfacet
   facet normal 6.329763e-001 7.304945e-001 -2.563567e-001
      outer loop
         vertex 8.235500e+001 6.373138e+000 1.000000e+000
         vertex 8.026154e+001 8.187122e+000 1.000000e+000
         vertex 8.255750e+001 6.548607e+000 2.000000e+000
      endloop
   endfacet
   facet normal 9.665820e-001 0.000000e+000 -2.563575e-001
      outer loop
         vertex 8.489822e+001 -1.423148e+000 2.000000e+000
         vertex 8.463300e+001 -1.385015e+000 1.000000e+000
         vertex 8.489822e+001 1.423148e+000 2.000000e+000
      endloop
   endfacet
   facet normal 1.118993e-001 -2.196149e-001 -9.691480e-001
      outer loop
         vertex 7.970229e+001 -6.472136e+000 0.000000e+000
         vertex 7.986577e+001 -7.571282e+000 2.679492e-001
         vertex 7.747214e+001 -7.608452e+000 0.000000e+000
      endloop
   endfacet
   facet normal 1.709340e-001 1.709338e-001 -9.703418e-001
      outer loop
         vertex 7.970229e+001 6.472136e+000 0.000000e+000
         vertex 8.180174e+001 5.893746e+000 2.679492e-001
         vertex 8.147214e+001 4.702282e+000 0.000000e+000
      endloop
   endfacet
   facet normal 1.011452e-001 7.034805e-001 -7.034805e-001
      outer loop
         vertex 7.500000e+001 9.000000e+000 2.679492e-001
         vertex 7.500000e+001 9.732051e+000 1.000000e+000
         vertex 7.774184e+001 9.337834e+000 1.000000e+000
      endloop
   endfacet
   facet normal 8.131406e-001 -5.225743e-001 -2.563563e-001
      outer loop
         vertex 8.409632e+001 -4.154150e+000 2.000000e+000
         vertex 8.255750e+001 -6.548607e+000 2.000000e+000
         vertex 8.235500e+001 -6.373138e+000 1.000000e+000
      endloop
   endfacet
   facet normal 1.011452e-001 7.034804e-001 -7.034806e-001
      outer loop
         vertex 7.753559e+001 8.635437e+000 2.679492e-001
         vertex 7.500000e+001 9.000000e+000 2.679492e-001
         vertex 7.774184e+001 9.337834e+000 1.000000e+000
      endloop
   endfacet
   facet normal 2.342431e-001 3.710049e-002 -9.714699e-001
      outer loop
         vertex 8.390839e+001 1.280834e+000 2.679492e-001
         vertex 8.300000e+001 -4.754476e-015 0.000000e+000
         vertex 8.260845e+001 2.472136e+000 0.000000e+000
      endloop
   endfacet
   facet normal 1.375589e-001 -9.567434e-001 -2.563585e-001
      outer loop
         vertex 7.774184e+001 -9.337834e+000 1.000000e+000
         vertex 7.500000e+001 -1.000000e+001 2.000000e+000
         vertex 7.500000e+001 -9.732051e+000 1.000000e+000
      endloop
   endfacet
   facet normal 8.131406e-001 5.225743e-001 -2.563563e-001
      outer loop
         vertex 8.235500e+001 6.373138e+000 1.000000e+000
         vertex 8.255750e+001 6.548607e+000 2.000000e+000
         vertex 8.409632e+001 4.154150e+000 2.000000e+000
      endloop
   endfacet
   facet normal 9.274284e-001 -2.723186e-001 -2.563575e-001
      outer loop
         vertex 8.489822e+001 -1.423148e+000 2.000000e+000
         vertex 8.385258e+001 -4.042840e+000 1.000000e+000
         vertex 8.463300e+001 -1.385015e+000 1.000000e+000
      endloop
   endfacet
   facet normal 1.011452e-001 -7.034804e-001 -7.034806e-001
      outer loop
         vertex 7.500000e+001 -9.732051e+000 1.000000e+000
         vertex 7.753559e+001 -8.635437e+000 2.679492e-001
         vertex 7.774184e+001 -9.337834e+000 1.000000e+000
      endloop
   endfacet
   facet normal 2.705643e-001 7.944457e-002 -9.594183e-001
      outer loop
         vertex 8.260845e+001 2.472136e+000 0.000000e+000
         vertex 8.318669e+001 3.738735e+000 2.679492e-001
         vertex 8.390839e+001 1.280834e+000 2.679492e-001
      endloop
   endfacet
   facet normal 1.116213e-001 2.444169e-001 -9.632243e-001
      outer loop
         vertex 7.753559e+001 8.635437e+000 2.679492e-001
         vertex 7.986577e+001 7.571282e+000 2.679492e-001
         vertex 7.747214e+001 7.608452e+000 0.000000e+000
      endloop
   endfacet
   facet normal 9.274279e-001 2.723184e-001 -2.563596e-001
      outer loop
         vertex 8.385258e+001 4.042840e+000 1.000000e+000
         vertex 8.409632e+001 4.154150e+000 2.000000e+000
         vertex 8.463300e+001 1.385015e+000 1.000000e+000
      endloop
   endfacet
   facet normal 4.015319e-001 8.792345e-001 -2.563568e-001
      outer loop
         vertex 7.781732e+001 9.594930e+000 2.000000e+000
         vertex 8.040641e+001 8.412536e+000 2.000000e+000
         vertex 7.774184e+001 9.337834e+000 1.000000e+000
      endloop
   endfacet
   facet normal 2.126554e-001 -1.083532e-001 -9.711011e-001
      outer loop
         vertex 8.318669e+001 -3.738735e+000 2.679492e-001
         vertex 8.147214e+001 -4.702282e+000 0.000000e+000
         vertex 8.260845e+001 -2.472136e+000 0.000000e+000
      endloop
   endfacet
   facet normal 1.799195e-001 -2.076377e-001 -9.615173e-001
      outer loop
         vertex 7.970229e+001 -6.472136e+000 0.000000e+000
         vertex 8.180174e+001 -5.893746e+000 2.679492e-001
         vertex 7.986577e+001 -7.571282e+000 2.679492e-001
      endloop
   endfacet
   facet normal 4.015316e-001 -8.792338e-001 -2.563597e-001
      outer loop
         vertex 8.040641e+001 -8.412536e+000 2.000000e+000
         vertex 7.781732e+001 -9.594930e+000 2.000000e+000
         vertex 8.026154e+001 -8.187122e+000 1.000000e+000
      endloop
   endfacet
   facet normal 0.000000e+000 9.659258e-001 -2.588190e-001
      outer loop
         vertex 7.500000e+001 9.732051e+000 1.000000e+000
         vertex -6.807469e-015 9.732051e+000 1.000000e+000
         vertex -6.901320e-015 1.000000e+001 2.000000e+000
      endloop
   endfacet
   facet normal -1.096224e-017 2.588190e-001 -9.659258e-001
      outer loop
         vertex 7.500000e+001 8.000000e+000 0.000000e+000
         vertex -6.120349e-015 8.000000e+000 8.511710e-016
         vertex -6.829882e-015 9.000000e+000 2.679492e-001
      endloop
   endfacet
   facet normal 0.000000e+000 7.071067e-001 -7.071068e-001
      outer loop
         vertex -6.807469e-015 9.732051e+000 1.000000e+000
         vertex 7.500000e+001 9.732051e+000 1.000000e+000
         vertex 7.500000e+001 9.000000e+000 2.679492e-001
      endloop
   endfacet
   facet normal 0.000000e+000 9.659258e-001 -2.588190e-001
      outer loop
         vertex 7.500000e+001 9.732051e+000 1.000000e+000
         vertex -6.901320e-015 1.000000e+001 2.000000e+000
         vertex 7.500000e+001 1.000000e+001 2.000000e+000
      endloop
   endfacet
   facet normal 0.000000e+000 7.071067e-001 -7.071068e-001
      outer loop
         vertex 7.500000e+001 9.000000e+000 2.679492e-001
         vertex -6.829882e-015 9.000000e+000 2.679492e-001
         vertex -6.807469e-015 9.732051e+000 1.000000e+000
      endloop
   endfacet
   facet normal 0.000000e+000 2.588190e-001 -9.659258e-001
      outer loop
         vertex 7.500000e+001 9.000000e+000 2.679492e-001
         vertex 7.500000e+001 8.000000e+000 0.000000e+000
         vertex -6.829882e-015 9.000000e+000 2.679492e-001
      endloop
   endfacet
   facet normal 0.000000e+000 -9.659258e-001 2.588190e-001
      outer loop
         vertex -7.420473e-016 -9.732051e+000 1.900000e+001
         vertex -7.042751e-016 -1.000000e+001 1.800000e+001
         vertex 7.500000e+001 -9.732051e+000 1.900000e+001
      endloop
   endfacet
   facet normal 0.000000e+000 -9.659258e-001 2.588190e-001
      outer loop
         vertex 7.500000e+001 -1.000000e+001 1.800000e+001
         vertex 7.500000e+001 -9.732051e+000 1.900000e+001
         vertex -7.042751e-016 -1.000000e+001 1.800000e+001
      endloop
   endfacet
   facet normal 0.000000e+000 -2.588198e-001 9.659256e-001
      outer loop
         vertex 7.500000e+001 -8.000000e+000 2.000000e+001
         vertex -5.409888e-016 -8.000000e+000 2.000000e+001
         vertex 7.500000e+001 -9.000000e+000 1.973205e+001
      endloop
   endfacet
   facet normal 0.000000e+000 -7.071063e-001 7.071072e-001
      outer loop
         vertex -7.420473e-016 -9.732051e+000 1.900000e+001
         vertex 7.500000e+001 -9.732051e+000 1.900000e+001
         vertex 7.500000e+001 -9.000000e+000 1.973205e+001
      endloop
   endfacet
   facet normal 0.000000e+000 -2.588198e-001 9.659256e-001
      outer loop
         vertex -5.409888e-016 -8.000000e+000 2.000000e+001
         vertex -7.196347e-016 -9.000000e+000 1.973205e+001
         vertex 7.500000e+001 -9.000000e+000 1.973205e+001
      endloop
   endfacet
   facet normal 0.000000e+000 -7.071063e-001 7.071072e-001
      outer loop
         vertex -7.420473e-016 -9.732051e+000 1.900000e+001
         vertex 7.500000e+001 -9.000000e+000 1.973205e+001
         vertex -7.196347e-016 -9.000000e+000 1.973205e+001
      endloop
   endfacet
   facet normal 2.952416e-001 -6.464885e-001 7.034806e-001
      outer loop
         vertex 7.774184e+001 -9.337834e+000 1.900000e+001
         vertex 8.026154e+001 -8.187122e+000 1.900000e+001
         vertex 7.986577e+001 -7.571282e+000 1.973205e+001
      endloop
   endfacet
   facet normal 2.952408e-001 -6.464880e-001 7.034814e-001
      outer loop
         vertex 7.774184e+001 -9.337834e+000 1.900000e+001
         vertex 7.986577e+001 -7.571282e+000 1.973205e+001
         vertex 7.753559e+001 -8.635437e+000 1.973205e+001
      endloop
   endfacet
   facet normal 4.654171e-001 -5.371207e-001 7.034829e-001
      outer loop
         vertex 8.026154e+001 -8.187122e+000 1.900000e+001
         vertex 8.235500e+001 -6.373138e+000 1.900000e+001
         vertex 8.180174e+001 -5.893746e+000 1.973205e+001
      endloop
   endfacet
   facet normal 4.654199e-001 -5.371217e-001 7.034804e-001
      outer loop
         vertex 8.026154e+001 -8.187122e+000 1.900000e+001
         vertex 8.180174e+001 -5.893746e+000 1.973205e+001
         vertex 7.986577e+001 -7.571282e+000 1.973205e+001
      endloop
   endfacet
   facet normal 5.978922e-001 -3.842413e-001 7.034796e-001
      outer loop
         vertex 8.235500e+001 -6.373138e+000 1.900000e+001
         vertex 8.385258e+001 -4.042840e+000 1.900000e+001
         vertex 8.318669e+001 -3.738735e+000 1.973205e+001
      endloop
   endfacet
   facet normal 5.978876e-001 -3.842410e-001 7.034836e-001
      outer loop
         vertex 8.235500e+001 -6.373138e+000 1.900000e+001
         vertex 8.318669e+001 -3.738735e+000 1.973205e+001
         vertex 8.180174e+001 -5.893746e+000 1.973205e+001
      endloop
   endfacet
   facet normal 6.819241e-001 -2.002318e-001 7.034819e-001
      outer loop
         vertex 8.385258e+001 -4.042840e+000 1.900000e+001
         vertex 8.463300e+001 -1.385015e+000 1.900000e+001
         vertex 8.390839e+001 -1.280834e+000 1.973205e+001
      endloop
   endfacet
   facet normal 6.819269e-001 -2.002311e-001 7.034793e-001
      outer loop
         vertex 8.385258e+001 -4.042840e+000 1.900000e+001
         vertex 8.390839e+001 -1.280834e+000 1.973205e+001
         vertex 8.318669e+001 -3.738735e+000 1.973205e+001
      endloop
   endfacet
   facet normal 7.107131e-001 0.000000e+000 7.034820e-001
      outer loop
         vertex 8.463300e+001 -1.385015e+000 1.900000e+001
         vertex 8.463300e+001 1.385015e+000 1.900000e+001
         vertex 8.390839e+001 1.280834e+000 1.973205e+001
      endloop
   endfacet
   facet normal 7.107131e-001 0.000000e+000 7.034820e-001
      outer loop
         vertex 8.463300e+001 -1.385015e+000 1.900000e+001
         vertex 8.390839e+001 1.280834e+000 1.973205e+001
         vertex 8.390839e+001 -1.280834e+000 1.973205e+001
      endloop
   endfacet
   facet normal 6.819264e-001 2.002324e-001 7.034794e-001
      outer loop
         vertex 8.463300e+001 1.385015e+000 1.900000e+001
         vertex 8.385258e+001 4.042840e+000 1.900000e+001
         vertex 8.318669e+001 3.738735e+000 1.973205e+001
      endloop
   endfacet
   facet normal 6.819244e-001 2.002304e-001 7.034820e-001
      outer loop
         vertex 8.463300e+001 1.385015e+000 1.900000e+001
         vertex 8.318669e+001 3.738735e+000 1.973205e+001
         vertex 8.390839e+001 1.280834e+000 1.973205e+001
      endloop
   endfacet
   facet normal 5.978890e-001 3.842393e-001 7.034835e-001
      outer loop
         vertex 8.385258e+001 4.042840e+000 1.900000e+001
         vertex 8.235500e+001 6.373138e+000 1.900000e+001
         vertex 8.180174e+001 5.893746e+000 1.973205e+001
      endloop
   endfacet
   facet normal 5.978911e-001 3.842433e-001 7.034794e-001
      outer loop
         vertex 8.385258e+001 4.042840e+000 1.900000e+001
         vertex 8.180174e+001 5.893746e+000 1.973205e+001
         vertex 8.318669e+001 3.738735e+000 1.973205e+001
      endloop
   endfacet
   facet normal 4.654187e-001 5.371226e-001 7.034805e-001
      outer loop
         vertex 8.235500e+001 6.373138e+000 1.900000e+001
         vertex 8.026154e+001 8.187122e+000 1.900000e+001
         vertex 7.986577e+001 7.571282e+000 1.973205e+001
      endloop
   endfacet
   facet normal 4.654181e-001 5.371197e-001 7.034830e-001
      outer loop
         vertex 8.235500e+001 6.373138e+000 1.900000e+001
         vertex 7.986577e+001 7.571282e+000 1.973205e+001
         vertex 8.180174e+001 5.893746e+000 1.973205e+001
      endloop
   endfacet
   facet normal 2.952412e-001 6.464879e-001 7.034814e-001
      outer loop
         vertex 8.026154e+001 8.187122e+000 1.900000e+001
         vertex 7.774184e+001 9.337834e+000 1.900000e+001
         vertex 7.753559e+001 8.635437e+000 1.973205e+001
      endloop
   endfacet
   facet normal 2.952412e-001 6.464887e-001 7.034806e-001
      outer loop
         vertex 8.026154e+001 8.187122e+000 1.900000e+001
         vertex 7.753559e+001 8.635437e+000 1.973205e+001
         vertex 7.986577e+001 7.571282e+000 1.973205e+001
      endloop
   endfacet
   facet normal 1.375591e-001 -9.567433e-001 2.563585e-001
      outer loop
         vertex 7.500000e+001 -9.732051e+000 1.900000e+001
         vertex 7.500000e+001 -1.000000e+001 1.800000e+001
         vertex 7.781732e+001 -9.594930e+000 1.800000e+001
      endloop
   endfacet
   facet normal 6.329767e-001 -7.304930e-001 2.563602e-001
      outer loop
         vertex 8.040641e+001 -8.412536e+000 1.800000e+001
         vertex 8.255750e+001 -6.548607e+000 1.800000e+001
         vertex 8.026154e+001 -8.187122e+000 1.900000e+001
      endloop
   endfacet
   facet normal 9.274281e-001 -2.723177e-001 2.563595e-001
      outer loop
         vertex 8.409632e+001 -4.154150e+000 1.800000e+001
         vertex 8.489822e+001 -1.423148e+000 1.800000e+001
         vertex 8.385258e+001 -4.042840e+000 1.900000e+001
      endloop
   endfacet
   facet normal 9.274286e-001 2.723178e-001 2.563575e-001
      outer loop
         vertex 8.489822e+001 1.423148e+000 1.800000e+001
         vertex 8.409632e+001 4.154150e+000 1.800000e+001
         vertex 8.463300e+001 1.385015e+000 1.900000e+001
      endloop
   endfacet
   facet normal 6.329767e-001 7.304930e-001 2.563602e-001
      outer loop
         vertex 8.255750e+001 6.548607e+000 1.800000e+001
         vertex 8.040641e+001 8.412536e+000 1.800000e+001
         vertex 8.026154e+001 8.187122e+000 1.900000e+001
      endloop
   endfacet
   facet normal 1.375591e-001 9.567433e-001 2.563585e-001
      outer loop
         vertex 7.781732e+001 9.594930e+000 1.800000e+001
         vertex 7.500000e+001 1.000000e+001 1.800000e+001
         vertex 7.500000e+001 9.732051e+000 1.900000e+001
      endloop
   endfacet
   facet normal 3.718694e-002 2.586408e-001 9.652575e-001
      outer loop
         vertex 7.500000e+001 9.000000e+000 1.973205e+001
         vertex 7.500000e+001 8.000000e+000 2.000000e+001
         vertex 7.753559e+001 8.635437e+000 1.973205e+001
      endloop
   endfacet
   facet normal 1.118996e-001 2.196156e-001 9.691478e-001
      outer loop
         vertex 7.747214e+001 7.608452e+000 2.000000e+001
         vertex 7.970229e+001 6.472136e+000 2.000000e+001
         vertex 7.986577e+001 7.571282e+000 1.973205e+001
      endloop
   endfacet
   facet normal 2.126560e-001 1.083535e-001 9.711009e-001
      outer loop
         vertex 8.147214e+001 4.702282e+000 2.000000e+001
         vertex 8.260845e+001 2.472136e+000 2.000000e+001
         vertex 8.318669e+001 3.738735e+000 1.973205e+001
      endloop
   endfacet
   facet normal 2.342438e-001 -3.710060e-002 9.714697e-001
      outer loop
         vertex 8.300000e+001 -4.754476e-015 2.000000e+001
         vertex 8.260845e+001 -2.472136e+000 2.000000e+001
         vertex 8.390839e+001 -1.280834e+000 1.973205e+001
      endloop
   endfacet
   facet normal 1.709346e-001 -1.709343e-001 9.703416e-001
      outer loop
         vertex 8.147214e+001 -4.702282e+000 2.000000e+001
         vertex 7.970229e+001 -6.472136e+000 2.000000e+001
         vertex 8.180174e+001 -5.893746e+000 1.973205e+001
      endloop
   endfacet
   facet normal 3.959118e-002 -2.499691e-001 9.674440e-001
      outer loop
         vertex 7.747214e+001 -7.608452e+000 2.000000e+001
         vertex 7.500000e+001 -8.000000e+000 2.000000e+001
         vertex 7.753559e+001 -8.635437e+000 1.973205e+001
      endloop
   endfacet
   facet normal 1.011452e-001 -7.034801e-001 7.034810e-001
      outer loop
         vertex 7.500000e+001 -9.000000e+000 1.973205e+001
         vertex 7.500000e+001 -9.732051e+000 1.900000e+001
         vertex 7.774184e+001 -9.337834e+000 1.900000e+001
      endloop
   endfacet
   facet normal 6.329763e-001 -7.304945e-001 2.563567e-001
      outer loop
         vertex 8.235500e+001 -6.373138e+000 1.900000e+001
         vertex 8.026154e+001 -8.187122e+000 1.900000e+001
         vertex 8.255750e+001 -6.548607e+000 1.800000e+001
      endloop
   endfacet
   facet normal 9.274284e-001 -2.723186e-001 2.563575e-001
      outer loop
         vertex 8.463300e+001 -1.385015e+000 1.900000e+001
         vertex 8.385258e+001 -4.042840e+000 1.900000e+001
         vertex 8.489822e+001 -1.423148e+000 1.800000e+001
      endloop
   endfacet
   facet normal 9.274279e-001 2.723184e-001 2.563596e-001
      outer loop
         vertex 8.385258e+001 4.042840e+000 1.900000e+001
         vertex 8.463300e+001 1.385015e+000 1.900000e+001
         vertex 8.409632e+001 4.154150e+000 1.800000e+001
      endloop
   endfacet
   facet normal 1.011452e-001 -7.034800e-001 7.034810e-001
      outer loop
         vertex 7.774184e+001 -9.337834e+000 1.900000e+001
         vertex 7.753559e+001 -8.635437e+000 1.973205e+001
         vertex 7.500000e+001 -9.000000e+000 1.973205e+001
      endloop
   endfacet
   facet normal 1.799201e-001 -2.076383e-001 9.615171e-001
      outer loop
         vertex 7.986577e+001 -7.571282e+000 1.973205e+001
         vertex 8.180174e+001 -5.893746e+000 1.973205e+001
         vertex 7.970229e+001 -6.472136e+000 2.000000e+001
      endloop
   endfacet
   facet normal 2.705651e-001 -7.944481e-002 9.594181e-001
      outer loop
         vertex 8.318669e+001 -3.738735e+000 1.973205e+001
         vertex 8.390839e+001 -1.280834e+000 1.973205e+001
         vertex 8.260845e+001 -2.472136e+000 2.000000e+001
      endloop
   endfacet
   facet normal 2.705651e-001 7.944481e-002 9.594181e-001
      outer loop
         vertex 8.390839e+001 1.280834e+000 1.973205e+001
         vertex 8.318669e+001 3.738735e+000 1.973205e+001
         vertex 8.260845e+001 2.472136e+000 2.000000e+001
      endloop
   endfacet
   facet normal 6.329763e-001 7.304945e-001 2.563567e-001
      outer loop
         vertex 8.026154e+001 8.187122e+000 1.900000e+001
         vertex 8.235500e+001 6.373138e+000 1.900000e+001
         vertex 8.255750e+001 6.548607e+000 1.800000e+001
      endloop
   endfacet
   facet normal 1.011452e-001 7.034800e-001 7.034810e-001
      outer loop
         vertex 7.753559e+001 8.635437e+000 1.973205e+001
         vertex 7.774184e+001 9.337834e+000 1.900000e+001
         vertex 7.500000e+001 9.000000e+000 1.973205e+001
      endloop
   endfacet
   facet normal 1.116217e-001 2.444176e-001 9.632241e-001
      outer loop
         vertex 7.986577e+001 7.571282e+000 1.973205e+001
         vertex 7.753559e+001 8.635437e+000 1.973205e+001
         vertex 7.747214e+001 7.608452e+000 2.000000e+001
      endloop
   endfacet
   facet normal 4.015316e-001 -8.792338e-001 2.563597e-001
      outer loop
         vertex 8.040641e+001 -8.412536e+000 1.800000e+001
         vertex 8.026154e+001 -8.187122e+000 1.900000e+001
         vertex 7.781732e+001 -9.594930e+000 1.800000e+001
      endloop
   endfacet
   facet normal 4.015326e-001 8.792333e-001 2.563597e-001
      outer loop
         vertex 8.026154e+001 8.187122e+000 1.900000e+001
         vertex 8.040641e+001 8.412536e+000 1.800000e+001
         vertex 7.774184e+001 9.337834e+000 1.900000e+001
      endloop
   endfacet
   facet normal 1.799201e-001 2.076383e-001 9.615171e-001
      outer loop
         vertex 7.986577e+001 7.571282e+000 1.973205e+001
         vertex 7.970229e+001 6.472136e+000 2.000000e+001
         vertex 8.180174e+001 5.893746e+000 1.973205e+001
      endloop
   endfacet
   facet normal 2.349021e-001 -1.509632e-001 9.602245e-001
      outer loop
         vertex 8.147214e+001 -4.702282e+000 2.000000e+001
         vertex 8.180174e+001 -5.893746e+000 1.973205e+001
         vertex 8.318669e+001 -3.738735e+000 1.973205e+001
      endloop
   endfacet
   facet normal 1.375589e-001 -9.567435e-001 2.563580e-001
      outer loop
         vertex 7.774184e+001 -9.337834e+000 1.900000e+001
         vertex 7.500000e+001 -9.732051e+000 1.900000e+001
         vertex 7.781732e+001 -9.594930e+000 1.800000e+001
      endloop
   endfacet
   facet normal 8.131399e-001 5.225738e-001 2.563594e-001
      outer loop
         vertex 8.385258e+001 4.042840e+000 1.900000e+001
         vertex 8.409632e+001 4.154150e+000 1.800000e+001
         vertex 8.255750e+001 6.548607e+000 1.800000e+001
      endloop
   endfacet
   facet normal 2.126560e-001 -1.083535e-001 9.711009e-001
      outer loop
         vertex 8.318669e+001 -3.738735e+000 1.973205e+001
         vertex 8.260845e+001 -2.472136e+000 2.000000e+001
         vertex 8.147214e+001 -4.702282e+000 2.000000e+001
      endloop
   endfacet
   facet normal 1.011452e-001 7.034801e-001 7.034810e-001
      outer loop
         vertex 7.500000e+001 9.000000e+000 1.973205e+001
         vertex 7.774184e+001 9.337834e+000 1.900000e+001
         vertex 7.500000e+001 9.732051e+000 1.900000e+001
      endloop
   endfacet
   facet normal 4.015319e-001 8.792345e-001 2.563568e-001
      outer loop
         vertex 7.774184e+001 9.337834e+000 1.900000e+001
         vertex 8.040641e+001 8.412536e+000 1.800000e+001
         vertex 7.781732e+001 9.594930e+000 1.800000e+001
      endloop
   endfacet
   facet normal 8.131412e-001 5.225733e-001 2.563562e-001
      outer loop
         vertex 8.385258e+001 4.042840e+000 1.900000e+001
         vertex 8.255750e+001 6.548607e+000 1.800000e+001
         vertex 8.235500e+001 6.373138e+000 1.900000e+001
      endloop
   endfacet
   facet normal 8.131406e-001 -5.225743e-001 2.563563e-001
      outer loop
         vertex 8.255750e+001 -6.548607e+000 1.800000e+001
         vertex 8.409632e+001 -4.154150e+000 1.800000e+001
         vertex 8.235500e+001 -6.373138e+000 1.900000e+001
      endloop
   endfacet
   facet normal 3.959118e-002 2.499691e-001 9.674440e-001
      outer loop
         vertex 7.500000e+001 8.000000e+000 2.000000e+001
         vertex 7.747214e+001 7.608452e+000 2.000000e+001
         vertex 7.753559e+001 8.635437e+000 1.973205e+001
      endloop
   endfacet
   facet normal 2.342438e-001 3.710060e-002 9.714697e-001
      outer loop
         vertex 8.260845e+001 2.472136e+000 2.000000e+001
         vertex 8.300000e+001 -4.754476e-015 2.000000e+001
         vertex 8.390839e+001 1.280834e+000 1.973205e+001
      endloop
   endfacet
   facet normal 3.718694e-002 -2.586408e-001 9.652575e-001
      outer loop
         vertex 7.500000e+001 -8.000000e+000 2.000000e+001
         vertex 7.500000e+001 -9.000000e+000 1.973205e+001
         vertex 7.753559e+001 -8.635437e+000 1.973205e+001
      endloop
   endfacet
   facet normal 8.131405e-001 -5.225728e-001 2.563594e-001
      outer loop
         vertex 8.385258e+001 -4.042840e+000 1.900000e+001
         vertex 8.235500e+001 -6.373138e+000 1.900000e+001
         vertex 8.409632e+001 -4.154150e+000 1.800000e+001
      endloop
   endfacet
   facet normal 1.116217e-001 -2.444176e-001 9.632241e-001
      outer loop
         vertex 7.753559e+001 -8.635437e+000 1.973205e+001
         vertex 7.986577e+001 -7.571282e+000 1.973205e+001
         vertex 7.747214e+001 -7.608452e+000 2.000000e+001
      endloop
   endfacet
   facet normal 2.349021e-001 1.509632e-001 9.602245e-001
      outer loop
         vertex 8.318669e+001 3.738735e+000 1.973205e+001
         vertex 8.180174e+001 5.893746e+000 1.973205e+001
         vertex 8.147214e+001 4.702282e+000 2.000000e+001
      endloop
   endfacet
   facet normal 1.375589e-001 9.567435e-001 2.563580e-001
      outer loop
         vertex 7.781732e+001 9.594930e+000 1.800000e+001
         vertex 7.500000e+001 9.732051e+000 1.900000e+001
         vertex 7.774184e+001 9.337834e+000 1.900000e+001
      endloop
   endfacet
   facet normal 9.665820e-001 -0.000000e+000 2.563575e-001
      outer loop
         vertex 8.463300e+001 -1.385015e+000 1.900000e+001
         vertex 8.489822e+001 -1.423148e+000 1.800000e+001
         vertex 8.489822e+001 1.423148e+000 1.800000e+001
      endloop
   endfacet
   facet normal 1.709346e-001 1.709343e-001 9.703416e-001
      outer loop
         vertex 8.180174e+001 5.893746e+000 1.973205e+001
         vertex 7.970229e+001 6.472136e+000 2.000000e+001
         vertex 8.147214e+001 4.702282e+000 2.000000e+001
      endloop
   endfacet
   facet normal 1.118996e-001 -2.196156e-001 9.691478e-001
      outer loop
         vertex 7.747214e+001 -7.608452e+000 2.000000e+001
         vertex 7.986577e+001 -7.571282e+000 1.973205e+001
         vertex 7.970229e+001 -6.472136e+000 2.000000e+001
      endloop
   endfacet
   facet normal 4.015329e-001 -8.792341e-001 2.563568e-001
      outer loop
         vertex 8.026154e+001 -8.187122e+000 1.900000e+001
         vertex 7.774184e+001 -9.337834e+000 1.900000e+001
         vertex 7.781732e+001 -9.594930e+000 1.800000e+001
      endloop
   endfacet
   facet normal 2.829198e-001 0.000000e+000 9.591436e-001
      outer loop
         vertex 8.390839e+001 -1.280834e+000 1.973205e+001
         vertex 8.390839e+001 1.280834e+000 1.973205e+001
         vertex 8.300000e+001 -4.754476e-015 2.000000e+001
      endloop
   endfacet
   facet normal 9.665820e-001 0.000000e+000 2.563575e-001
      outer loop
         vertex 8.463300e+001 -1.385015e+000 1.900000e+001
         vertex 8.489822e+001 1.423148e+000 1.800000e+001
         vertex 8.463300e+001 1.385015e+000 1.900000e+001
      endloop
   endfacet
   facet normal 0.000000e+000 9.659258e-001 2.588190e-001
      outer loop
         vertex 7.500000e+001 9.732051e+000 1.900000e+001
         vertex 7.500000e+001 1.000000e+001 1.800000e+001
         vertex -6.807469e-015 9.732051e+000 1.900000e+001
      endloop
   endfacet
   facet normal 0.000000e+000 9.659258e-001 2.588190e-001
      outer loop
         vertex -9.269796e-015 1.000000e+001 1.800000e+001
         vertex -6.807469e-015 9.732051e+000 1.900000e+001
         vertex 7.500000e+001 1.000000e+001 1.800000e+001
      endloop
   endfacet
   facet normal 0.000000e+000 2.588198e-001 9.659256e-001
      outer loop
         vertex -6.120349e-015 8.000000e+000 2.000000e+001
         vertex 7.500000e+001 8.000000e+000 2.000000e+001
         vertex -6.829882e-015 9.000000e+000 1.973205e+001
      endloop
   endfacet
   facet normal -0.000000e+000 7.071063e-001 7.071072e-001
      outer loop
         vertex 7.500000e+001 9.732051e+000 1.900000e+001
         vertex -6.807469e-015 9.732051e+000 1.900000e+001
         vertex -6.829882e-015 9.000000e+000 1.973205e+001
      endloop
   endfacet
   facet normal 0.000000e+000 2.588198e-001 9.659256e-001
      outer loop
         vertex 7.500000e+001 8.000000e+000 2.000000e+001
         vertex 7.500000e+001 9.000000e+000 1.973205e+001
         vertex -6.829882e-015 9.000000e+000 1.973205e+001
      endloop
   endfacet
   facet normal -0.000000e+000 7.071063e-001 7.071072e-001
      outer loop
         vertex 7.500000e+001 9.732051e+000 1.900000e+001
         vertex -6.829882e-015 9.000000e+000 1.973205e+001
         vertex 7.500000e+001 9.000000e+000 1.973205e+001
      endloop
   endfacet
endsolid
