solid 
   facet normal 1.000000e+000 -0.000000e+000 0.000000e+000
      outer loop
         vertex 5.000000e+000 1.000000e+001 4.000000e+000
         vertex 5.000000e+000 2.000000e+000 4.000000e+000
         vertex 5.000000e+000 2.000000e+000 -1.480297e-016
      endloop
   endfacet
   facet normal 1.000000e+000 0.000000e+000 0.000000e+000
      outer loop
         vertex 5.000000e+000 2.300000e+001 1.480297e-016
         vertex 5.000000e+000 2.300000e+001 4.000000e+000
         vertex 5.000000e+000 1.500000e+001 4.000000e+000
      endloop
   endfacet
   facet normal 1.000000e+000 -0.000000e+000 0.000000e+000
      outer loop
         vertex 5.000000e+000 1.500000e+001 2.500000e+001
         vertex 5.000000e+000 1.000000e+001 2.500000e+001
         vertex 5.000000e+000 1.000000e+001 4.000000e+000
      endloop
   endfacet
   facet normal 1.000000e+000 0.000000e+000 0.000000e+000
      outer loop
         vertex 5.000000e+000 2.300000e+001 1.480297e-016
         vertex 5.000000e+000 1.500000e+001 4.000000e+000
         vertex 5.000000e+000 1.000000e+001 4.000000e+000
      endloop
   endfacet
   facet normal 1.000000e+000 0.000000e+000 0.000000e+000
      outer loop
         vertex 5.000000e+000 2.300000e+001 1.480297e-016
         vertex 5.000000e+000 1.000000e+001 4.000000e+000
         vertex 5.000000e+000 2.000000e+000 -1.480297e-016
      endloop
   endfacet
   facet normal 1.000000e+000 0.000000e+000 0.000000e+000
      outer loop
         vertex 5.000000e+000 1.500000e+001 4.000000e+000
         vertex 5.000000e+000 1.500000e+001 2.500000e+001
         vertex 5.000000e+000 1.000000e+001 4.000000e+000
      endloop
   endfacet
   facet normal -1.000000e+000 7.184135e-017 5.139741e-018
      outer loop
         vertex 1.574812e-015 2.300000e+001 -2.960595e-016
         vertex 6.614331e-017 2.000000e+000 1.480297e-016
         vertex 6.614330e-016 1.000000e+001 4.000000e+000
      endloop
   endfacet
   facet normal -1.000000e+000 6.978529e-017 9.251858e-018
      outer loop
         vertex 1.031507e-016 2.000000e+000 4.000000e+000
         vertex 6.614330e-016 1.000000e+001 4.000000e+000
         vertex 6.614331e-017 2.000000e+000 1.480297e-016
      endloop
   endfacet
   facet normal -1.000000e+000 5.574619e-017 2.475504e-018
      outer loop
         vertex 9.921496e-016 1.500000e+001 2.500000e+001
         vertex 9.401640e-016 1.500000e+001 4.000000e+000
         vertex 6.614330e-016 1.000000e+001 4.000000e+000
      endloop
   endfacet
   facet normal -1.000000e+000 8.858281e-017 1.850373e-017
      outer loop
         vertex 1.648827e-015 2.300000e+001 4.000000e+000
         vertex 1.574812e-015 2.300000e+001 -2.960595e-016
         vertex 9.401640e-016 1.500000e+001 4.000000e+000
      endloop
   endfacet
   facet normal -1.000000e+000 5.574619e-017 -4.716951e-017
      outer loop
         vertex 6.614330e-016 1.000000e+001 4.000000e+000
         vertex 9.401640e-016 1.500000e+001 4.000000e+000
         vertex 1.574812e-015 2.300000e+001 -2.960595e-016
      endloop
   endfacet
   facet normal -1.000000e+000 6.614331e-017 0.000000e+000
      outer loop
         vertex 6.614330e-016 1.000000e+001 4.000000e+000
         vertex 6.614330e-016 1.000000e+001 2.500000e+001
         vertex 9.921496e-016 1.500000e+001 2.500000e+001
      endloop
   endfacet
   facet normal 0.000000e+000 0.000000e+000 1.000000e+000
      outer loop
         vertex 1.648827e-015 2.300000e+001 4.000000e+000
         vertex 9.401640e-016 1.500000e+001 4.000000e+000
         vertex 5.000000e+000 1.500000e+001 4.000000e+000
      endloop
   endfacet
   facet normal 0.000000e+000 0.000000e+000 1.000000e+000
      outer loop
         vertex 5.000000e+000 2.300000e+001 4.000000e+000
         vertex 4.732051e+000 2.400000e+001 4.000000e+000
         vertex 4.000000e+000 2.473205e+001 4.000000e+000
      endloop
   endfacet
   facet normal -0.000000e+000 0.000000e+000 1.000000e+000
      outer loop
         vertex 3.000000e+000 2.500000e+001 4.000000e+000
         vertex 2.000000e+000 2.500000e+001 4.000000e+000
         vertex 5.000000e+000 2.300000e+001 4.000000e+000
      endloop
   endfacet
   facet normal 0.000000e+000 0.000000e+000 1.000000e+000
      outer loop
         vertex 5.857865e-001 2.441421e+001 4.000000e+000
         vertex 1.648827e-015 2.300000e+001 4.000000e+000
         vertex 2.000000e+000 2.500000e+001 4.000000e+000
      endloop
   endfacet
   facet normal 0.000000e+000 0.000000e+000 1.000000e+000
      outer loop
         vertex 3.000000e+000 2.500000e+001 4.000000e+000
         vertex 5.000000e+000 2.300000e+001 4.000000e+000
         vertex 4.000000e+000 2.473205e+001 4.000000e+000
      endloop
   endfacet
   facet normal 0.000000e+000 0.000000e+000 1.000000e+000
      outer loop
         vertex 5.000000e+000 1.500000e+001 4.000000e+000
         vertex 5.000000e+000 2.300000e+001 4.000000e+000
         vertex 1.648827e-015 2.300000e+001 4.000000e+000
      endloop
   endfacet
   facet normal 0.000000e+000 0.000000e+000 1.000000e+000
      outer loop
         vertex 2.000000e+000 2.500000e+001 4.000000e+000
         vertex 1.648827e-015 2.300000e+001 4.000000e+000
         vertex 5.000000e+000 2.300000e+001 4.000000e+000
      endloop
   endfacet
   facet normal 0.000000e+000 0.000000e+000 1.000000e+000
      outer loop
         vertex 5.000000e+000 2.000000e+000 4.000000e+000
         vertex 5.000000e+000 1.000000e+001 4.000000e+000
         vertex 1.031507e-016 2.000000e+000 4.000000e+000
      endloop
   endfacet
   facet normal 0.000000e+000 0.000000e+000 1.000000e+000
      outer loop
         vertex 6.614330e-016 1.000000e+001 4.000000e+000
         vertex 1.031507e-016 2.000000e+000 4.000000e+000
         vertex 5.000000e+000 1.000000e+001 4.000000e+000
      endloop
   endfacet
   facet normal 0.000000e+000 0.000000e+000 1.000000e+000
      outer loop
         vertex 2.000000e+000 3.700744e-017 4.000000e+000
         vertex 3.000000e+000 -7.401487e-017 4.000000e+000
         vertex 1.031507e-016 2.000000e+000 4.000000e+000
      endloop
   endfacet
   facet normal 0.000000e+000 -0.000000e+000 1.000000e+000
      outer loop
         vertex 4.000000e+000 2.679492e-001 4.000000e+000
         vertex 4.732051e+000 1.000000e+000 4.000000e+000
         vertex 5.000000e+000 2.000000e+000 4.000000e+000
      endloop
   endfacet
   facet normal 0.000000e+000 0.000000e+000 1.000000e+000
      outer loop
         vertex 2.000000e+000 3.700744e-017 4.000000e+000
         vertex 1.031507e-016 2.000000e+000 4.000000e+000
         vertex 5.857865e-001 5.857865e-001 4.000000e+000
      endloop
   endfacet
   facet normal 0.000000e+000 -0.000000e+000 1.000000e+000
      outer loop
         vertex 3.000000e+000 -7.401487e-017 4.000000e+000
         vertex 4.000000e+000 2.679492e-001 4.000000e+000
         vertex 5.000000e+000 2.000000e+000 4.000000e+000
      endloop
   endfacet
   facet normal 0.000000e+000 -0.000000e+000 1.000000e+000
      outer loop
         vertex 1.031507e-016 2.000000e+000 4.000000e+000
         vertex 3.000000e+000 -7.401487e-017 4.000000e+000
         vertex 5.000000e+000 2.000000e+000 4.000000e+000
      endloop
   endfacet
   facet normal 0.000000e+000 -1.000000e+000 0.000000e+000
      outer loop
         vertex 6.614330e-016 1.000000e+001 2.500000e+001
         vertex 6.614330e-016 1.000000e+001 4.000000e+000
         vertex 5.000000e+000 1.000000e+001 4.000000e+000
      endloop
   endfacet
   facet normal 0.000000e+000 -1.000000e+000 0.000000e+000
      outer loop
         vertex 5.000000e+000 1.000000e+001 2.500000e+001
         vertex 6.614330e-016 1.000000e+001 2.500000e+001
         vertex 5.000000e+000 1.000000e+001 4.000000e+000
      endloop
   endfacet
   facet normal 0.000000e+000 1.000000e+000 -0.000000e+000
      outer loop
         vertex 5.000000e+000 1.500000e+001 2.500000e+001
         vertex 5.000000e+000 1.500000e+001 4.000000e+000
         vertex 9.401640e-016 1.500000e+001 4.000000e+000
      endloop
   endfacet
   facet normal 0.000000e+000 1.000000e+000 0.000000e+000
      outer loop
         vertex 9.921496e-016 1.500000e+001 2.500000e+001
         vertex 5.000000e+000 1.500000e+001 2.500000e+001
         vertex 9.401640e-016 1.500000e+001 4.000000e+000
      endloop
   endfacet
   facet normal 2.588190e-001 -9.659258e-001 1.340491e-017
      outer loop
         vertex 3.000000e+000 -1.110223e-016 -1.480297e-016
         vertex 4.000000e+000 2.679492e-001 4.000000e+000
         vertex 3.000000e+000 -7.401487e-017 4.000000e+000
      endloop
   endfacet
   facet normal 9.659258e-001 -2.588190e-001 0.000000e+000
      outer loop
         vertex 4.732051e+000 1.000000e+000 0.000000e+000
         vertex 5.000000e+000 2.000000e+000 4.000000e+000
         vertex 4.732051e+000 1.000000e+000 4.000000e+000
      endloop
   endfacet
   facet normal 9.659258e-001 -2.588190e-001 0.000000e+000
      outer loop
         vertex 5.000000e+000 2.000000e+000 4.000000e+000
         vertex 4.732051e+000 1.000000e+000 0.000000e+000
         vertex 5.000000e+000 2.000000e+000 -1.480297e-016
      endloop
   endfacet
   facet normal 2.588190e-001 -9.659258e-001 0.000000e+000
      outer loop
         vertex 4.000000e+000 2.679492e-001 0.000000e+000
         vertex 4.000000e+000 2.679492e-001 4.000000e+000
         vertex 3.000000e+000 -1.110223e-016 -1.480297e-016
      endloop
   endfacet
   facet normal 7.071067e-001 -7.071068e-001 0.000000e+000
      outer loop
         vertex 4.000000e+000 2.679492e-001 0.000000e+000
         vertex 4.732051e+000 1.000000e+000 4.000000e+000
         vertex 4.000000e+000 2.679492e-001 4.000000e+000
      endloop
   endfacet
   facet normal 7.071067e-001 -7.071068e-001 0.000000e+000
      outer loop
         vertex 4.000000e+000 2.679492e-001 0.000000e+000
         vertex 4.732051e+000 1.000000e+000 0.000000e+000
         vertex 4.732051e+000 1.000000e+000 4.000000e+000
      endloop
   endfacet
   facet normal -2.960595e-016 2.960595e-016 -1.000000e+000
      outer loop
         vertex 5.000000e+000 2.000000e+000 -1.480297e-016
         vertex 3.000000e+000 -1.110223e-016 -1.480297e-016
         vertex 2.000000e+000 0.000000e+000 1.480297e-016
      endloop
   endfacet
   facet normal 2.022124e-016 -2.022124e-016 -1.000000e+000
      outer loop
         vertex 3.000000e+000 -1.110223e-016 -1.480297e-016
         vertex 4.732051e+000 1.000000e+000 0.000000e+000
         vertex 4.000000e+000 2.679492e-001 0.000000e+000
      endloop
   endfacet
   facet normal -2.022124e-016 -2.022124e-016 -1.000000e+000
      outer loop
         vertex 3.000000e+000 2.500000e+001 1.480297e-016
         vertex 4.732051e+000 2.400000e+001 0.000000e+000
         vertex 5.000000e+000 2.300000e+001 1.480297e-016
      endloop
   endfacet
   facet normal -2.022127e-016 -2.022130e-016 -1.000000e+000
      outer loop
         vertex 4.732051e+000 2.400000e+001 0.000000e+000
         vertex 3.000000e+000 2.500000e+001 1.480297e-016
         vertex 4.000000e+000 2.473205e+001 0.000000e+000
      endloop
   endfacet
   facet normal -2.310243e-016 3.050391e-016 -1.000000e+000
      outer loop
         vertex 2.000000e+000 2.500000e+001 -1.480297e-016
         vertex 1.574812e-015 2.300000e+001 -2.960595e-016
         vertex 5.857865e-001 2.441421e+001 0.000000e+000
      endloop
   endfacet
   facet normal 1.786877e-016 1.786877e-016 -1.000000e+000
      outer loop
         vertex 6.614331e-017 2.000000e+000 1.480297e-016
         vertex 2.000000e+000 0.000000e+000 1.480297e-016
         vertex 5.857865e-001 5.857865e-001 0.000000e+000
      endloop
   endfacet
   facet normal 2.022124e-016 -2.022124e-016 -1.000000e+000
      outer loop
         vertex 5.000000e+000 2.000000e+000 -1.480297e-016
         vertex 4.732051e+000 1.000000e+000 0.000000e+000
         vertex 3.000000e+000 -1.110223e-016 -1.480297e-016
      endloop
   endfacet
   facet normal 8.881784e-017 1.409807e-017 -1.000000e+000
      outer loop
         vertex 1.574812e-015 2.300000e+001 -2.960595e-016
         vertex 5.000000e+000 2.300000e+001 1.480297e-016
         vertex 5.000000e+000 2.000000e+000 -1.480297e-016
      endloop
   endfacet
   facet normal -5.921190e-017 -2.114711e-017 -1.000000e+000
      outer loop
         vertex 5.000000e+000 2.000000e+000 -1.480297e-016
         vertex 6.614331e-017 2.000000e+000 1.480297e-016
         vertex 1.574812e-015 2.300000e+001 -2.960595e-016
      endloop
   endfacet
   facet normal 2.960595e-016 2.960595e-016 -1.000000e+000
      outer loop
         vertex 2.000000e+000 2.500000e+001 -1.480297e-016
         vertex 3.000000e+000 2.500000e+001 1.480297e-016
         vertex 5.000000e+000 2.300000e+001 1.480297e-016
      endloop
   endfacet
   facet normal 8.881784e-017 -1.480297e-017 -1.000000e+000
      outer loop
         vertex 2.000000e+000 2.500000e+001 -1.480297e-016
         vertex 5.000000e+000 2.300000e+001 1.480297e-016
         vertex 1.574812e-015 2.300000e+001 -2.960595e-016
      endloop
   endfacet
   facet normal -5.921190e-017 -5.921190e-017 -1.000000e+000
      outer loop
         vertex 6.614331e-017 2.000000e+000 1.480297e-016
         vertex 5.000000e+000 2.000000e+000 -1.480297e-016
         vertex 2.000000e+000 0.000000e+000 1.480297e-016
      endloop
   endfacet
   facet normal 9.659258e-001 2.588190e-001 0.000000e+000
      outer loop
         vertex 5.000000e+000 2.300000e+001 1.480297e-016
         vertex 4.732051e+000 2.400000e+001 4.000000e+000
         vertex 5.000000e+000 2.300000e+001 4.000000e+000
      endloop
   endfacet
   facet normal 2.588198e-001 9.659256e-001 0.000000e+000
      outer loop
         vertex 4.000000e+000 2.473205e+001 0.000000e+000
         vertex 3.000000e+000 2.500000e+001 4.000000e+000
         vertex 4.000000e+000 2.473205e+001 4.000000e+000
      endloop
   endfacet
   facet normal 2.588198e-001 9.659256e-001 0.000000e+000
      outer loop
         vertex 3.000000e+000 2.500000e+001 4.000000e+000
         vertex 4.000000e+000 2.473205e+001 0.000000e+000
         vertex 3.000000e+000 2.500000e+001 1.480297e-016
      endloop
   endfacet
   facet normal 9.659258e-001 2.588190e-001 0.000000e+000
      outer loop
         vertex 4.732051e+000 2.400000e+001 0.000000e+000
         vertex 4.732051e+000 2.400000e+001 4.000000e+000
         vertex 5.000000e+000 2.300000e+001 1.480297e-016
      endloop
   endfacet
   facet normal 7.071063e-001 7.071072e-001 0.000000e+000
      outer loop
         vertex 4.732051e+000 2.400000e+001 0.000000e+000
         vertex 4.000000e+000 2.473205e+001 4.000000e+000
         vertex 4.732051e+000 2.400000e+001 4.000000e+000
      endloop
   endfacet
   facet normal 7.071063e-001 7.071072e-001 -0.000000e+000
      outer loop
         vertex 4.732051e+000 2.400000e+001 0.000000e+000
         vertex 4.000000e+000 2.473205e+001 0.000000e+000
         vertex 4.000000e+000 2.473205e+001 4.000000e+000
      endloop
   endfacet
   facet normal 0.000000e+000 -0.000000e+000 1.000000e+000
      outer loop
         vertex 6.614330e-016 1.000000e+001 2.500000e+001
         vertex 5.000000e+000 1.000000e+001 2.500000e+001
         vertex 5.000000e+000 1.500000e+001 2.500000e+001
      endloop
   endfacet
   facet normal 0.000000e+000 0.000000e+000 1.000000e+000
      outer loop
         vertex 9.921496e-016 1.500000e+001 2.500000e+001
         vertex 6.614330e-016 1.000000e+001 2.500000e+001
         vertex 5.000000e+000 1.500000e+001 2.500000e+001
      endloop
   endfacet
   facet normal -9.238795e-001 -3.826835e-001 0.000000e+000
      outer loop
         vertex 6.614331e-017 2.000000e+000 1.480297e-016
         vertex 5.857865e-001 5.857865e-001 4.000000e+000
         vertex 1.031507e-016 2.000000e+000 4.000000e+000
      endloop
   endfacet
   facet normal -3.826835e-001 -9.238795e-001 8.547603e-018
      outer loop
         vertex 5.857865e-001 5.857865e-001 0.000000e+000
         vertex 2.000000e+000 0.000000e+000 1.480297e-016
         vertex 2.000000e+000 3.700744e-017 4.000000e+000
      endloop
   endfacet
   facet normal -9.238795e-001 -3.826835e-001 -0.000000e+000
      outer loop
         vertex 5.857865e-001 5.857865e-001 0.000000e+000
         vertex 5.857865e-001 5.857865e-001 4.000000e+000
         vertex 6.614331e-017 2.000000e+000 1.480297e-016
      endloop
   endfacet
   facet normal -3.826835e-001 -9.238795e-001 0.000000e+000
      outer loop
         vertex 5.857865e-001 5.857865e-001 0.000000e+000
         vertex 2.000000e+000 3.700744e-017 4.000000e+000
         vertex 5.857865e-001 5.857865e-001 4.000000e+000
      endloop
   endfacet
   facet normal -3.826837e-001 9.238794e-001 0.000000e+000
      outer loop
         vertex 5.857865e-001 2.441421e+001 0.000000e+000
         vertex 5.857865e-001 2.441421e+001 4.000000e+000
         vertex 2.000000e+000 2.500000e+001 4.000000e+000
      endloop
   endfacet
   facet normal -9.238795e-001 3.826835e-001 1.709521e-017
      outer loop
         vertex 5.857865e-001 2.441421e+001 4.000000e+000
         vertex 1.574812e-015 2.300000e+001 -2.960595e-016
         vertex 1.648827e-015 2.300000e+001 4.000000e+000
      endloop
   endfacet
   facet normal -3.826837e-001 9.238794e-001 0.000000e+000
      outer loop
         vertex 5.857865e-001 2.441421e+001 0.000000e+000
         vertex 2.000000e+000 2.500000e+001 4.000000e+000
         vertex 2.000000e+000 2.500000e+001 -1.480297e-016
      endloop
   endfacet
   facet normal -9.238795e-001 3.826835e-001 0.000000e+000
      outer loop
         vertex 5.857865e-001 2.441421e+001 4.000000e+000
         vertex 5.857865e-001 2.441421e+001 0.000000e+000
         vertex 1.574812e-015 2.300000e+001 -2.960595e-016
      endloop
   endfacet
   facet normal 0.000000e+000 1.000000e+000 0.000000e+000
      outer loop
         vertex 3.000000e+000 2.500000e+001 1.480297e-016
         vertex 2.000000e+000 2.500000e+001 -1.480297e-016
         vertex 2.000000e+000 2.500000e+001 4.000000e+000
      endloop
   endfacet
   facet normal 0.000000e+000 1.000000e+000 -0.000000e+000
      outer loop
         vertex 3.000000e+000 2.500000e+001 4.000000e+000
         vertex 3.000000e+000 2.500000e+001 1.480297e-016
         vertex 2.000000e+000 2.500000e+001 4.000000e+000
      endloop
   endfacet
   facet normal -1.110223e-016 -1.000000e+000 9.251859e-018
      outer loop
         vertex 3.000000e+000 -7.401487e-017 4.000000e+000
         vertex 2.000000e+000 3.700744e-017 4.000000e+000
         vertex 2.000000e+000 0.000000e+000 1.480297e-016
      endloop
   endfacet
   facet normal -1.110223e-016 -1.000000e+000 9.251858e-018
      outer loop
         vertex 3.000000e+000 -1.110223e-016 -1.480297e-016
         vertex 3.000000e+000 -7.401487e-017 4.000000e+000
         vertex 2.000000e+000 0.000000e+000 1.480297e-016
      endloop
   endfacet
endsolid
