solid OpenSCAD_Model
  facet normal -1 0 0
    outer loop
      vertex 0 0 2.5
      vertex 0 2.99 10.5
      vertex 0 2.99 2.5
    endloop
  endfacet
  facet normal -1 -0 0
    outer loop
      vertex 0 2.99 10.5
      vertex 0 0 2.5
      vertex 0 0 10.5
    endloop
  endfacet
  facet normal -1 0 0
    outer loop
      vertex 0 2.99 1.5
      vertex 0 50 1.5
      vertex 0 50 0
    endloop
  endfacet
  facet normal -1 0 0
    outer loop
      vertex 0 50 1.5
      vertex 0 2.99 1.5
      vertex 0 50 2.5
    endloop
  endfacet
  facet normal -1 0 0
    outer loop
      vertex 0 50 2.5
      vertex 0 2.99 2.5
      vertex 0 50 10.5
    endloop
  endfacet
  facet normal -1 0 0
    outer loop
      vertex 0 2.99 10.5
      vertex 0 50 10.5
      vertex 0 2.99 2.5
    endloop
  endfacet
  facet normal -1 -0 0
    outer loop
      vertex 0 50 2.5
      vertex 0 2.99 1.5
      vertex 0 2.99 2.5
    endloop
  endfacet
  facet normal -1 0 0
    outer loop
      vertex 0 0 0
      vertex 0 2.99 1.5
      vertex 0 50 0
    endloop
  endfacet
  facet normal -1 -0 0
    outer loop
      vertex 0 2.99 1.5
      vertex 0 0 0
      vertex 0 0 1.5
    endloop
  endfacet
  facet normal -1 0 0
    outer loop
      vertex 0 50 10.5
      vertex 0 2.99 10.5
      vertex 0 50 11.5
    endloop
  endfacet
  facet normal -1 -0 0
    outer loop
      vertex 0 50 11.5
      vertex 0 2.99 10.5
      vertex 0 2.99 11.5
    endloop
  endfacet
  facet normal -1 0 0
    outer loop
      vertex 0 50 11.5
      vertex 0 2.99 11.5
      vertex 0 50 25
    endloop
  endfacet
  facet normal -1 0 0
    outer loop
      vertex 0 0 25
      vertex 0 2.99 11.5
      vertex 0 0 11.5
    endloop
  endfacet
  facet normal -1 0 0
    outer loop
      vertex 0 2.99 11.5
      vertex 0 0 25
      vertex 0 50 25
    endloop
  endfacet
  facet normal -0 0 1
    outer loop
      vertex 0 50 25
      vertex 2.60511 0 25
      vertex 2.60511 50 25
    endloop
  endfacet
  facet normal 0 0 1
    outer loop
      vertex 2.60511 0 25
      vertex 0 50 25
      vertex 0 0 25
    endloop
  endfacet
  facet normal 1 0 0
    outer loop
      vertex 25 2.99 2.5
      vertex 25 50 2.5
      vertex 25 50 4
    endloop
  endfacet
  facet normal 1 0 0
    outer loop
      vertex 25 50 2.5
      vertex 25 2.99 2.5
      vertex 25 50 1.5
    endloop
  endfacet
  facet normal 1 0 0
    outer loop
      vertex 25 2.99 1.5
      vertex 25 50 1.5
      vertex 25 2.99 2.5
    endloop
  endfacet
  facet normal 1 -0 0
    outer loop
      vertex 25 0 4
      vertex 25 2.99 2.5
      vertex 25 50 4
    endloop
  endfacet
  facet normal 1 0 0
    outer loop
      vertex 25 2.99 2.5
      vertex 25 0 4
      vertex 25 0 2.5
    endloop
  endfacet
  facet normal 1 0 0
    outer loop
      vertex 25 50 1.5
      vertex 25 2.99 1.5
      vertex 25 50 0
    endloop
  endfacet
  facet normal 1 0 0
    outer loop
      vertex 25 0 0
      vertex 25 2.99 1.5
      vertex 25 0 1.5
    endloop
  endfacet
  facet normal 1 0 0
    outer loop
      vertex 25 2.99 1.5
      vertex 25 0 0
      vertex 25 50 0
    endloop
  endfacet
  facet normal 1 -0 0
    outer loop
      vertex 25 0 12.2339
      vertex 25 50 10
      vertex 25 50 12.2339
    endloop
  endfacet
  facet normal 1 0 0
    outer loop
      vertex 25 50 10
      vertex 25 0 12.2339
      vertex 25 0 10
    endloop
  endfacet
  facet normal 0 0 -1
    outer loop
      vertex 0 0 0
      vertex 25 50 0
      vertex 25 0 0
    endloop
  endfacet
  facet normal -0 0 -1
    outer loop
      vertex 25 50 0
      vertex 0 0 0
      vertex 0 50 0
    endloop
  endfacet
  facet normal 0 -1 0
    outer loop
      vertex 0 0 2.5
      vertex 9.99 0 10.5
      vertex 0 0 10.5
    endloop
  endfacet
  facet normal 0 -1 0
    outer loop
      vertex 9.99 0 10.5
      vertex 13.01 0 4
      vertex 13.01 0 10
    endloop
  endfacet
  facet normal 0 -1 -0
    outer loop
      vertex 9.99 0 10.5
      vertex 0 0 2.5
      vertex 13.01 0 4
    endloop
  endfacet
  facet normal 0 -1 0
    outer loop
      vertex 25 0 2.5
      vertex 13.01 0 4
      vertex 0 0 2.5
    endloop
  endfacet
  facet normal 0 -1 0
    outer loop
      vertex 13.01 0 4
      vertex 25 0 2.5
      vertex 25 0 4
    endloop
  endfacet
  facet normal 0 -1 0
    outer loop
      vertex 0 0 25
      vertex 2.96754 0 24.125
      vertex 2.60511 0 25
    endloop
  endfacet
  facet normal 0 -1 0
    outer loop
      vertex 0 0 25
      vertex 3.81347 0 22.5
      vertex 2.96754 0 24.125
    endloop
  endfacet
  facet normal 0 -1 0
    outer loop
      vertex 0 0 11.5
      vertex 3.81347 0 22.5
      vertex 0 0 25
    endloop
  endfacet
  facet normal 0 -1 -0
    outer loop
      vertex 3.81347 0 22.5
      vertex 0 0 11.5
      vertex 4.79781 0 20.9549
    endloop
  endfacet
  facet normal 0 -1 -0
    outer loop
      vertex 4.79781 0 20.9549
      vertex 0 0 11.5
      vertex 5.91307 0 19.5015
    endloop
  endfacet
  facet normal 0 -1 -0
    outer loop
      vertex 16.5648 0 12.7156
      vertex 13.01 0 10
      vertex 18.3534 0 12.319
    endloop
  endfacet
  facet normal 0 -1 -0
    outer loop
      vertex 14.8176 0 13.2665
      vertex 13.01 0 10
      vertex 16.5648 0 12.7156
    endloop
  endfacet
  facet normal 0 -1 -0
    outer loop
      vertex 13.125 0 13.9675
      vertex 13.01 0 10
      vertex 14.8176 0 13.2665
    endloop
  endfacet
  facet normal 0 -1 0
    outer loop
      vertex 13.01 0 10
      vertex 13.125 0 13.9675
      vertex 9.99 0 11.5
    endloop
  endfacet
  facet normal 0 -1 -0
    outer loop
      vertex 11.5 0 14.8135
      vertex 9.99 0 11.5
      vertex 13.125 0 13.9675
    endloop
  endfacet
  facet normal 0 -1 0
    outer loop
      vertex 9.95489 0 15.7978
      vertex 9.99 0 11.5
      vertex 11.5 0 14.8135
    endloop
  endfacet
  facet normal 0 -1 0
    outer loop
      vertex 8.50146 0 16.9131
      vertex 9.99 0 11.5
      vertex 9.95489 0 15.7978
    endloop
  endfacet
  facet normal 0 -1 0
    outer loop
      vertex 9.99 0 11.5
      vertex 8.50146 0 16.9131
      vertex 0 0 11.5
    endloop
  endfacet
  facet normal 0 -1 -0
    outer loop
      vertex 7.15076 0 18.1508
      vertex 0 0 11.5
      vertex 8.50146 0 16.9131
    endloop
  endfacet
  facet normal 0 -1 -0
    outer loop
      vertex 5.91307 0 19.5015
      vertex 0 0 11.5
      vertex 7.15076 0 18.1508
    endloop
  endfacet
  facet normal 0 -1 -0
    outer loop
      vertex 18.3534 0 12.319
      vertex 13.01 0 10
      vertex 20.1697 0 12.0799
    endloop
  endfacet
  facet normal 0 -1 0
    outer loop
      vertex 13.01 0 10
      vertex 9.99 0 11.5
      vertex 9.99 0 10.5
    endloop
  endfacet
  facet normal 0 -1 0
    outer loop
      vertex 25 0 10
      vertex 20.1697 0 12.0799
      vertex 13.01 0 10
    endloop
  endfacet
  facet normal 0 -1 0
    outer loop
      vertex 20.1697 0 12.0799
      vertex 25 0 10
      vertex 22 0 12
    endloop
  endfacet
  facet normal 0 -1 0
    outer loop
      vertex 22 0 12
      vertex 25 0 10
      vertex 23.8303 0 12.0799
    endloop
  endfacet
  facet normal 0 -1 0
    outer loop
      vertex 23.8303 0 12.0799
      vertex 25 0 10
      vertex 25 0 12.2339
    endloop
  endfacet
  facet normal 0 -1 0
    outer loop
      vertex 0 0 0
      vertex 25 0 1.5
      vertex 0 0 1.5
    endloop
  endfacet
  facet normal 0 -1 -0
    outer loop
      vertex 25 0 1.5
      vertex 0 0 0
      vertex 25 0 0
    endloop
  endfacet
  facet normal 0 -1 0
    outer loop
      vertex -0.00999928 50 10.5
      vertex 0 50 11.5
      vertex -0.00999928 50 11.5
    endloop
  endfacet
  facet normal 0 -1 -0
    outer loop
      vertex 0 50 11.5
      vertex -0.00999928 50 10.5
      vertex 0 50 10.5
    endloop
  endfacet
  facet normal 0 1 0
    outer loop
      vertex 25 50 4
      vertex 25 50 2.5
      vertex 13.01 50 4
    endloop
  endfacet
  facet normal 0 1 0
    outer loop
      vertex 2.96754 50 24.125
      vertex 0 50 25
      vertex 2.60511 50 25
    endloop
  endfacet
  facet normal 0 1 0
    outer loop
      vertex 3.81347 50 22.5
      vertex 0 50 25
      vertex 2.96754 50 24.125
    endloop
  endfacet
  facet normal 0 1 0
    outer loop
      vertex 0 50 11.5
      vertex 3.81347 50 22.5
      vertex 4.79781 50 20.9549
    endloop
  endfacet
  facet normal 0 1 0
    outer loop
      vertex 0 50 11.5
      vertex 4.79781 50 20.9549
      vertex 5.91307 50 19.5015
    endloop
  endfacet
  facet normal 0 1 0
    outer loop
      vertex 0 50 11.5
      vertex 5.91307 50 19.5015
      vertex 7.15076 50 18.1508
    endloop
  endfacet
  facet normal 0 1 0
    outer loop
      vertex 25 50 10
      vertex 20.1697 50 12.0799
      vertex 22 50 12
    endloop
  endfacet
  facet normal 0 1 0
    outer loop
      vertex 13.01 50 10
      vertex 18.3534 50 12.319
      vertex 20.1697 50 12.0799
    endloop
  endfacet
  facet normal 0 1 0
    outer loop
      vertex 13.01 50 10
      vertex 16.5648 50 12.7156
      vertex 18.3534 50 12.319
    endloop
  endfacet
  facet normal 0 1 0
    outer loop
      vertex 13.01 50 10
      vertex 14.8176 50 13.2665
      vertex 16.5648 50 12.7156
    endloop
  endfacet
  facet normal 0 1 0
    outer loop
      vertex 13.01 50 10
      vertex 13.125 50 13.9675
      vertex 14.8176 50 13.2665
    endloop
  endfacet
  facet normal 0 1 0
    outer loop
      vertex 9.99 50 11.5
      vertex 11.5 50 14.8135
      vertex 13.125 50 13.9675
    endloop
  endfacet
  facet normal 0 1 -0
    outer loop
      vertex 9.99 50 11.5
      vertex 9.95489 50 15.7978
      vertex 11.5 50 14.8135
    endloop
  endfacet
  facet normal 0 1 0
    outer loop
      vertex 9.99 50 11.5
      vertex 8.50146 50 16.9131
      vertex 9.95489 50 15.7978
    endloop
  endfacet
  facet normal 0 1 0
    outer loop
      vertex 0 50 11.5
      vertex 8.50146 50 16.9131
      vertex 9.99 50 11.5
    endloop
  endfacet
  facet normal 0 1 0
    outer loop
      vertex 8.50146 50 16.9131
      vertex 0 50 11.5
      vertex 7.15076 50 18.1508
    endloop
  endfacet
  facet normal 0 1 0
    outer loop
      vertex 3.81347 50 22.5
      vertex 0 50 11.5
      vertex 0 50 25
    endloop
  endfacet
  facet normal 0 1 0
    outer loop
      vertex 13.125 50 13.9675
      vertex 13.01 50 10
      vertex 9.99 50 11.5
    endloop
  endfacet
  facet normal 0 1 0
    outer loop
      vertex 25 50 10
      vertex 22 50 12
      vertex 23.8303 50 12.0799
    endloop
  endfacet
  facet normal 0 1 -0
    outer loop
      vertex 25 50 10
      vertex 23.8303 50 12.0799
      vertex 25 50 12.2339
    endloop
  endfacet
  facet normal 0 1 0
    outer loop
      vertex 20.1697 50 12.0799
      vertex 25 50 10
      vertex 13.01 50 10
    endloop
  endfacet
  facet normal 0 1 0
    outer loop
      vertex 9.99 50 11.5
      vertex 13.01 50 10
      vertex 9.99 50 10.5
    endloop
  endfacet
  facet normal 0 1 -0
    outer loop
      vertex 13.01 50 4
      vertex 9.99 50 10.5
      vertex 13.01 50 10
    endloop
  endfacet
  facet normal 0 1 0
    outer loop
      vertex 0 50 2.5
      vertex 9.99 50 10.5
      vertex 13.01 50 4
    endloop
  endfacet
  facet normal 0 1 0
    outer loop
      vertex 9.99 50 10.5
      vertex 0 50 2.5
      vertex 0 50 10.5
    endloop
  endfacet
  facet normal 0 1 0
    outer loop
      vertex 0 50 2.5
      vertex 13.01 50 4
      vertex 25 50 2.5
    endloop
  endfacet
  facet normal 0 -1 0
    outer loop
      vertex -0.00999928 50 1.5
      vertex 0 50 2.5
      vertex -0.00999928 50 2.5
    endloop
  endfacet
  facet normal 0 -1 -0
    outer loop
      vertex 0 50 2.5
      vertex -0.00999928 50 1.5
      vertex 0 50 1.5
    endloop
  endfacet
  facet normal 0 -1 0
    outer loop
      vertex 25 50 1.5
      vertex 25.01 50 2.5
      vertex 25 50 2.5
    endloop
  endfacet
  facet normal 0 -1 -0
    outer loop
      vertex 25.01 50 2.5
      vertex 25 50 1.5
      vertex 25.01 50 1.5
    endloop
  endfacet
  facet normal 0 1 -0
    outer loop
      vertex 25 50 0
      vertex 0 50 1.5
      vertex 25 50 1.5
    endloop
  endfacet
  facet normal 0 1 0
    outer loop
      vertex 0 50 1.5
      vertex 25 50 0
      vertex 0 50 0
    endloop
  endfacet
  facet normal -1 0 0
    outer loop
      vertex -0.00999928 50 1.5
      vertex -0.00999928 53 2.5
      vertex -0.00999928 53 1.5
    endloop
  endfacet
  facet normal -1 -0 0
    outer loop
      vertex -0.00999928 53 2.5
      vertex -0.00999928 50 1.5
      vertex -0.00999928 50 2.5
    endloop
  endfacet
  facet normal 0 0 1
    outer loop
      vertex 25.01 53 2.5
      vertex 25 50 2.5
      vertex 25.01 50 2.5
    endloop
  endfacet
  facet normal 0 0 1
    outer loop
      vertex 25.01 53 2.5
      vertex 0 50 2.5
      vertex 25 50 2.5
    endloop
  endfacet
  facet normal -0 0 1
    outer loop
      vertex -0.00999928 53 2.5
      vertex 0 50 2.5
      vertex 25.01 53 2.5
    endloop
  endfacet
  facet normal 0 0 1
    outer loop
      vertex 0 50 2.5
      vertex -0.00999928 53 2.5
      vertex -0.00999928 50 2.5
    endloop
  endfacet
  facet normal 1 -0 0
    outer loop
      vertex 25.01 50 2.5
      vertex 25.01 53 1.5
      vertex 25.01 53 2.5
    endloop
  endfacet
  facet normal 1 0 0
    outer loop
      vertex 25.01 53 1.5
      vertex 25.01 50 2.5
      vertex 25.01 50 1.5
    endloop
  endfacet
  facet normal 0 1 -0
    outer loop
      vertex 25.01 53 1.5
      vertex -0.00999928 53 2.5
      vertex 25.01 53 2.5
    endloop
  endfacet
  facet normal 0 1 0
    outer loop
      vertex -0.00999928 53 2.5
      vertex 25.01 53 1.5
      vertex -0.00999928 53 1.5
    endloop
  endfacet
  facet normal 0 0 -1
    outer loop
      vertex 25 50 1.5
      vertex 25.01 53 1.5
      vertex 25.01 50 1.5
    endloop
  endfacet
  facet normal 0 0 -1
    outer loop
      vertex 0 50 1.5
      vertex 25.01 53 1.5
      vertex 25 50 1.5
    endloop
  endfacet
  facet normal 0 0 -1
    outer loop
      vertex -0.00999928 53 1.5
      vertex 0 50 1.5
      vertex -0.00999928 50 1.5
    endloop
  endfacet
  facet normal 0 0 -1
    outer loop
      vertex 0 50 1.5
      vertex -0.00999928 53 1.5
      vertex 25.01 53 1.5
    endloop
  endfacet
  facet normal -1 0 0
    outer loop
      vertex -0.00999928 50 10.5
      vertex -0.00999928 53 11.5
      vertex -0.00999928 53 10.5
    endloop
  endfacet
  facet normal -1 -0 0
    outer loop
      vertex -0.00999928 53 11.5
      vertex -0.00999928 50 10.5
      vertex -0.00999928 50 11.5
    endloop
  endfacet
  facet normal 0 0 1
    outer loop
      vertex 9.99 53 11.5
      vertex 0 50 11.5
      vertex 9.99 50 11.5
    endloop
  endfacet
  facet normal -0 0 1
    outer loop
      vertex -0.00999928 53 11.5
      vertex 0 50 11.5
      vertex 9.99 53 11.5
    endloop
  endfacet
  facet normal 0 0 1
    outer loop
      vertex 0 50 11.5
      vertex -0.00999928 53 11.5
      vertex -0.00999928 50 11.5
    endloop
  endfacet
  facet normal 1 -0 0
    outer loop
      vertex 9.99 50 11.5
      vertex 9.99 53 10.5
      vertex 9.99 53 11.5
    endloop
  endfacet
  facet normal 1 0 0
    outer loop
      vertex 9.99 53 10.5
      vertex 9.99 50 11.5
      vertex 9.99 50 10.5
    endloop
  endfacet
  facet normal 0 0 -1
    outer loop
      vertex 0 50 10.5
      vertex 9.99 53 10.5
      vertex 9.99 50 10.5
    endloop
  endfacet
  facet normal 0 0 -1
    outer loop
      vertex -0.00999928 53 10.5
      vertex 0 50 10.5
      vertex -0.00999928 50 10.5
    endloop
  endfacet
  facet normal 0 0 -1
    outer loop
      vertex 0 50 10.5
      vertex -0.00999928 53 10.5
      vertex 9.99 53 10.5
    endloop
  endfacet
  facet normal 0 1 -0
    outer loop
      vertex 9.99 53 10.5
      vertex -0.00999928 53 11.5
      vertex 9.99 53 11.5
    endloop
  endfacet
  facet normal 0 1 0
    outer loop
      vertex -0.00999928 53 11.5
      vertex 9.99 53 10.5
      vertex -0.00999928 53 10.5
    endloop
  endfacet
  facet normal 1 -0 0
    outer loop
      vertex 13.01 0 10
      vertex 13.01 50 4
      vertex 13.01 50 10
    endloop
  endfacet
  facet normal 1 0 0
    outer loop
      vertex 13.01 50 4
      vertex 13.01 0 10
      vertex 13.01 0 4
    endloop
  endfacet
  facet normal 0 0 -1
    outer loop
      vertex 13.01 0 10
      vertex 25 50 10
      vertex 25 0 10
    endloop
  endfacet
  facet normal -0 0 -1
    outer loop
      vertex 25 50 10
      vertex 13.01 0 10
      vertex 13.01 50 10
    endloop
  endfacet
  facet normal -0 0 1
    outer loop
      vertex 13.01 50 4
      vertex 25 0 4
      vertex 25 50 4
    endloop
  endfacet
  facet normal 0 0 1
    outer loop
      vertex 25 0 4
      vertex 13.01 50 4
      vertex 13.01 0 4
    endloop
  endfacet
  facet normal 0.21644 0 0.976296
    outer loop
      vertex 16.5648 50 12.7156
      vertex 18.3534 0 12.319
      vertex 18.3534 50 12.319
    endloop
  endfacet
  facet normal 0.21644 0 0.976296
    outer loop
      vertex 18.3534 0 12.319
      vertex 16.5648 50 12.7156
      vertex 16.5648 0 12.7156
    endloop
  endfacet
  facet normal 0.0436193 0 0.999048
    outer loop
      vertex 20.1697 50 12.0799
      vertex 22 0 12
      vertex 22 50 12
    endloop
  endfacet
  facet normal 0.0436193 0 0.999048
    outer loop
      vertex 22 0 12
      vertex 20.1697 50 12.0799
      vertex 20.1697 0 12.0799
    endloop
  endfacet
  facet normal 0.461748 0 0.887011
    outer loop
      vertex 11.5 50 14.8135
      vertex 13.125 0 13.9675
      vertex 13.125 50 13.9675
    endloop
  endfacet
  facet normal 0.461748 0 0.887011
    outer loop
      vertex 13.125 0 13.9675
      vertex 11.5 50 14.8135
      vertex 11.5 0 14.8135
    endloop
  endfacet
  facet normal -0.0436194 0 0.999048
    outer loop
      vertex 22 50 12
      vertex 23.8303 0 12.0799
      vertex 23.8303 50 12.0799
    endloop
  endfacet
  facet normal -0.0436194 0 0.999048
    outer loop
      vertex 23.8303 0 12.0799
      vertex 22 50 12
      vertex 22 0 12
    endloop
  endfacet
  facet normal 0.5373 0 0.843391
    outer loop
      vertex 9.95489 50 15.7978
      vertex 11.5 0 14.8135
      vertex 11.5 50 14.8135
    endloop
  endfacet
  facet normal 0.5373 0 0.843391
    outer loop
      vertex 11.5 0 14.8135
      vertex 9.95489 50 15.7978
      vertex 9.95489 0 15.7978
    endloop
  endfacet
  facet normal 0.67559 0 0.737278
    outer loop
      vertex 7.15076 50 18.1508
      vertex 8.50146 0 16.9131
      vertex 8.50146 50 16.9131
    endloop
  endfacet
  facet normal 0.67559 0 0.737278
    outer loop
      vertex 8.50146 0 16.9131
      vertex 7.15076 50 18.1508
      vertex 7.15076 0 18.1508
    endloop
  endfacet
  facet normal 0.887011 -0 0.461749
    outer loop
      vertex 2.96754 0 24.125
      vertex 3.81347 50 22.5
      vertex 2.96754 50 24.125
    endloop
  endfacet
  facet normal 0.887011 0 0.461749
    outer loop
      vertex 3.81347 50 22.5
      vertex 2.96754 0 24.125
      vertex 3.81347 0 22.5
    endloop
  endfacet
  facet normal -0.130526 0 0.991445
    outer loop
      vertex 23.8303 50 12.0799
      vertex 25 0 12.2339
      vertex 25 50 12.2339
    endloop
  endfacet
  facet normal -0.130526 0 0.991445
    outer loop
      vertex 25 0 12.2339
      vertex 23.8303 50 12.0799
      vertex 23.8303 0 12.0799
    endloop
  endfacet
  facet normal 0.130526 0 0.991445
    outer loop
      vertex 18.3534 50 12.319
      vertex 20.1697 0 12.0799
      vertex 20.1697 50 12.0799
    endloop
  endfacet
  facet normal 0.130526 0 0.991445
    outer loop
      vertex 20.1697 0 12.0799
      vertex 18.3534 50 12.319
      vertex 18.3534 0 12.319
    endloop
  endfacet
  facet normal 0.608762 0 0.793353
    outer loop
      vertex 8.50146 50 16.9131
      vertex 9.95489 0 15.7978
      vertex 9.95489 50 15.7978
    endloop
  endfacet
  facet normal 0.608762 0 0.793353
    outer loop
      vertex 9.95489 0 15.7978
      vertex 8.50146 50 16.9131
      vertex 8.50146 0 16.9131
    endloop
  endfacet
  facet normal 0.793353 -0 0.608761
    outer loop
      vertex 4.79781 0 20.9549
      vertex 5.91307 50 19.5015
      vertex 4.79781 50 20.9549
    endloop
  endfacet
  facet normal 0.793353 0 0.608761
    outer loop
      vertex 5.91307 50 19.5015
      vertex 4.79781 0 20.9549
      vertex 5.91307 0 19.5015
    endloop
  endfacet
  facet normal 0.843391 -0 0.5373
    outer loop
      vertex 3.81347 0 22.5
      vertex 4.79781 50 20.9549
      vertex 3.81347 50 22.5
    endloop
  endfacet
  facet normal 0.843391 0 0.5373
    outer loop
      vertex 4.79781 50 20.9549
      vertex 3.81347 0 22.5
      vertex 4.79781 0 20.9549
    endloop
  endfacet
  facet normal 0.92388 -0 0.382683
    outer loop
      vertex 2.60511 0 25
      vertex 2.96754 50 24.125
      vertex 2.60511 50 25
    endloop
  endfacet
  facet normal 0.92388 0 0.382683
    outer loop
      vertex 2.96754 50 24.125
      vertex 2.60511 0 25
      vertex 2.96754 0 24.125
    endloop
  endfacet
  facet normal 0.382683 0 0.92388
    outer loop
      vertex 13.125 50 13.9675
      vertex 14.8176 0 13.2665
      vertex 14.8176 50 13.2665
    endloop
  endfacet
  facet normal 0.382683 0 0.92388
    outer loop
      vertex 14.8176 0 13.2665
      vertex 13.125 50 13.9675
      vertex 13.125 0 13.9675
    endloop
  endfacet
  facet normal 0.300706 0 0.953717
    outer loop
      vertex 14.8176 50 13.2665
      vertex 16.5648 0 12.7156
      vertex 16.5648 50 12.7156
    endloop
  endfacet
  facet normal 0.300706 0 0.953717
    outer loop
      vertex 16.5648 0 12.7156
      vertex 14.8176 50 13.2665
      vertex 14.8176 0 13.2665
    endloop
  endfacet
  facet normal 0.737278 -0 0.67559
    outer loop
      vertex 5.91307 0 19.5015
      vertex 7.15076 50 18.1508
      vertex 5.91307 50 19.5015
    endloop
  endfacet
  facet normal 0.737278 0 0.67559
    outer loop
      vertex 7.15076 50 18.1508
      vertex 5.91307 0 19.5015
      vertex 7.15076 0 18.1508
    endloop
  endfacet
  facet normal 0 0 -1
    outer loop
      vertex 0 0 2.5
      vertex 25 2.99 2.5
      vertex 25 0 2.5
    endloop
  endfacet
  facet normal -0 0 -1
    outer loop
      vertex 25 2.99 2.5
      vertex 0 0 2.5
      vertex 0 2.99 2.5
    endloop
  endfacet
  facet normal 0 -1 0
    outer loop
      vertex 0 2.99 1.5
      vertex 25 2.99 2.5
      vertex 0 2.99 2.5
    endloop
  endfacet
  facet normal 0 -1 -0
    outer loop
      vertex 25 2.99 2.5
      vertex 0 2.99 1.5
      vertex 25 2.99 1.5
    endloop
  endfacet
  facet normal -0 0 1
    outer loop
      vertex 0 2.99 1.5
      vertex 25 0 1.5
      vertex 25 2.99 1.5
    endloop
  endfacet
  facet normal 0 0 1
    outer loop
      vertex 25 0 1.5
      vertex 0 2.99 1.5
      vertex 0 0 1.5
    endloop
  endfacet
  facet normal 0 0 -1
    outer loop
      vertex 0 0 11.5
      vertex 9.99 2.99 11.5
      vertex 9.99 0 11.5
    endloop
  endfacet
  facet normal -0 0 -1
    outer loop
      vertex 9.99 2.99 11.5
      vertex 0 0 11.5
      vertex 0 2.99 11.5
    endloop
  endfacet
  facet normal -1 0 0
    outer loop
      vertex 9.99 0 10.5
      vertex 9.99 2.99 11.5
      vertex 9.99 2.99 10.5
    endloop
  endfacet
  facet normal -1 -0 0
    outer loop
      vertex 9.99 2.99 11.5
      vertex 9.99 0 10.5
      vertex 9.99 0 11.5
    endloop
  endfacet
  facet normal 0 -1 0
    outer loop
      vertex 0 2.99 10.5
      vertex 9.99 2.99 11.5
      vertex 0 2.99 11.5
    endloop
  endfacet
  facet normal 0 -1 -0
    outer loop
      vertex 9.99 2.99 11.5
      vertex 0 2.99 10.5
      vertex 9.99 2.99 10.5
    endloop
  endfacet
  facet normal -0 0 1
    outer loop
      vertex 0 2.99 10.5
      vertex 9.99 0 10.5
      vertex 9.99 2.99 10.5
    endloop
  endfacet
  facet normal 0 0 1
    outer loop
      vertex 9.99 0 10.5
      vertex 0 2.99 10.5
      vertex 0 0 10.5
    endloop
  endfacet
endsolid OpenSCAD_Model
